<svg id="Layer_1" data-name="Layer 1" xmlns="http://www.w3.org/2000/svg" viewBox="0 0 299.217 194.674"><title>ora-logo</title><path d="M63.357,169.045a7.074,7.074,0,0,0,6.469-4.693l3.2-8.869-2.621.258-2.814,7.8c-1,2.516-3.591,3.767-5.775,2.8l-18.02-7.987L39,158.828l21.851,9.688A6.087,6.087,0,0,0,63.357,169.045Z" transform="translate(-6.591 -14.279)" style="fill:none"/><path d="M278.228,148.728a4.867,4.867,0,0,1-2.138,6.313l-25.5,11.3c-2.186.968-4.77-.283-5.772-2.8l-8.69-24.1-2.443.24,8.892,24.664a7.086,7.086,0,0,0,6.471,4.693,6.137,6.137,0,0,0,2.51-.529l25.5-11.307c3.311-1.47,4.833-5.625,3.406-9.287L276.333,135.5l-2.423.238Z" transform="translate(-6.591 -14.279)" style="fill:none"/><path d="M87.948,88.128,91.7,89.736C90.552,89.232,88.963,88.535,87.948,88.128Z" transform="translate(-6.591 -14.279)" style="fill:none"/><path d="M216.78,111.743a4.743,4.743,0,0,1-1.076,5.191l-23.232,22.689a4.749,4.749,0,0,1-3.318,1.35h-65.9a4.761,4.761,0,0,1-3.324-1.35L96.7,116.934a4.747,4.747,0,0,1-1.086-5.191c.01-.02-2.493-1.106-3.66-1.75L75.643,155.225l155.6-15.3L220.45,109.993C219.281,110.637,216.777,111.723,216.78,111.743Z" transform="translate(-6.591 -14.279)" style="fill:none"/><path d="M305.807,14.279H11.489L11.14,161.567,34.217,159.3c-4.326-2.036-6.331-7.422-4.517-12.18L50.263,85.224c-1.679,1.664-19.861,17.27-19.861,17.27L53.353,47.981S67.291,56.308,77.7,62.921l27.548-30.365h101.9L234.7,62.921c10.409-6.613,24.344-14.94,24.344-14.94L282,102.494s-18.184-15.606-19.859-17.27l16.619,50.032,27.048-2.659Z" transform="translate(-6.591 -14.279)" style="fill:none"/><path d="M36.312,155.041a4.862,4.862,0,0,1-2.136-6.313L55.2,85.429a4.753,4.753,0,0,1,6.089-2.8L85.725,92.908a13.079,13.079,0,0,1,.04-1.464,12.478,12.478,0,0,1,.977-3.826c.405.166.8.348,1.206.51-11.7-5.013-22.2-9.5-27.024-11.528-3.975-1.67-6.607-1.283-9.313.992-1.917,1.613-9.34,9.169-9.34,9.169l13.574-31.9c9.218,5.11,85.537,54.513,85.537,54.513l-4.314-.146-11.4-4.9c-4.386,3.17-11.242,5.056-18.791,4.73-7.188-.218-13.368-2.858-17.165-6.882L70.4,155.741l2.621-.258,17.7-49.077a27.607,27.607,0,0,0,12.6,4.749h-3.3a2.381,2.381,0,0,0-1.66,4.082l23.23,22.686a2.381,2.381,0,0,0,1.662.672h65.905a2.367,2.367,0,0,0,1.659-.672l23.23-22.686a2.382,2.382,0,0,0-1.66-4.082h-3.3a27.594,27.594,0,0,0,12.6-4.749l12,33.282,2.443-.24-13.372-37.081c-3.811,3.917-9.913,6.476-16.986,6.69-7.547.326-14.407-1.56-18.789-4.73l-11.394,4.9-4.316.146S247.585,59.97,256.8,54.86l13.572,31.9s-7.421-7.556-9.339-9.169c-2.706-2.275-5.338-2.662-9.309-.992C246.9,78.631,236.4,83.115,224.7,88.128c.405-.162.8-.344,1.207-.51a12.65,12.65,0,0,1,.976,3.826,13.52,13.52,0,0,1,.041,1.361l24.191-10.18a4.748,4.748,0,0,1,6.083,2.8l16.713,50.3,2.423-.238-16.88-50.817c-.023-.06-.04-.117-.064-.174a7.3,7.3,0,0,0-6.657-4.581,7.026,7.026,0,0,0-2.652.4,28.48,28.48,0,0,1,2.565-1.536c3.052-1.273,4.672-1.22,6.858.62,1.5,1.264,16.567,15.005,16.567,15.005L257.935,51.436s-36.969,22.289-37.043,22.337l12-9.614-26.8-29.213H106.307L79.512,64.159l12,9.614c-.072-.048-37.041-22.337-37.041-22.337L36.332,94.415S51.393,80.674,52.9,79.41c2.188-1.84,3.806-1.893,6.858-.62a28.73,28.73,0,0,1,2.567,1.536,7.032,7.032,0,0,0-2.655-.4,7.29,7.29,0,0,0-6.65,4.581,1.743,1.743,0,0,0-.068.174l-21.01,63.244c-1.423,3.662.1,7.817,3.414,9.287L39,158.828l4.791-.471Zm89.37-48.018,9.066,3.9H124.272a2.355,2.355,0,0,0-2.367,2.444l-.792-1.167a2.383,2.383,0,0,0-1.967-1.043h-6A30.867,30.867,0,0,0,125.682,107.023Zm-2.433,29.2-23.232-22.691h19.129l15.407,22.691Zm13.656-.235c.375.044-12.43-22.692-12.43-22.692h18.234l5.5,22.692Zm13.125.077-3.616-22.533h19.114l-3.611,22.533ZM124.305,68.527h63.586L161.365,109.4H150.832Zm6.151,13.527-11.963-15.19-14.585-1.773H208.7l-14.56,1.657L182.15,82.054l10.133-15.837-71.849-.086Zm81.927,31.478-23.229,22.691H177.847l15.408-22.691Zm-25.662-6.509a30.869,30.869,0,0,0,12.533,4.132h-6a2.389,2.389,0,0,0-1.968,1.043l-.792,1.167a2.35,2.35,0,0,0-2.364-2.444H177.654Zm1.41,6.273s-12.8,22.736-12.43,22.692H164.4l5.5-22.692Zm-20.26-3.931h-4.022l31.58-40.459,31.542-3.387ZM83.884,62.716l23.405-25.389h97.616L228.31,62.716H83.884Zm1.545,2.8,31.545,3.387,31.575,40.459h-4.02Z" transform="translate(-6.591 -14.279)" style="fill:none"/><path d="M224.7,88.128c-1.016.408-2.605,1.105-3.755,1.609Z" transform="translate(-6.591 -14.279)" style="fill:none"/><path d="M121.113,112.2l.792,1.167a2.355,2.355,0,0,1,2.367-2.444h10.476l-9.066-3.9a30.867,30.867,0,0,1-12.538,4.132h6A2.383,2.383,0,0,1,121.113,112.2Z" transform="translate(-6.591 -14.279)"/><path d="M85.725,92.908,61.292,82.625a4.753,4.753,0,0,0-6.089,2.8l-21.027,63.3a4.862,4.862,0,0,0,2.136,6.313l7.482,3.316L70.4,155.741l19.314-53.566A13.888,13.888,0,0,1,85.725,92.908Z" transform="translate(-6.591 -14.279)"/><polygon points="141.959 95.086 110.383 54.627 78.839 51.24 137.938 95.086 141.959 95.086"/><path d="M100.017,113.532l23.232,22.691h11.3l-15.407-22.691Z" transform="translate(-6.591 -14.279)"/><polygon points="154.775 95.122 181.301 54.249 117.714 54.249 144.242 95.122 154.775 95.122"/><polygon points="139.824 99.253 143.44 121.786 155.326 121.786 158.937 99.253 139.824 99.253"/><polygon points="221.719 48.437 198.315 23.048 197.673 23.048 101.342 23.048 100.698 23.048 77.293 48.437 77.936 48.437 221.076 48.437 221.719 48.437"/><path d="M190.183,112.1a2.378,2.378,0,0,1,.312,1.267l.792-1.167a2.389,2.389,0,0,1,1.968-1.043h6a30.869,30.869,0,0,1-12.533-4.132l-9.067,3.9h10.477A2.364,2.364,0,0,1,190.183,112.1Z" transform="translate(-6.591 -14.279)"/><polygon points="185.692 51.938 175.56 67.776 187.548 52.47 202.108 50.812 97.317 50.812 111.902 52.585 123.865 67.776 113.843 51.852 185.692 51.938"/><polygon points="157.259 95.086 161.28 95.086 220.381 51.24 188.838 54.627 157.259 95.086"/><path d="M177.847,136.223h11.307l23.229-22.691H193.255Z" transform="translate(-6.591 -14.279)"/><path d="M164.4,135.988h11.3c-.374.044,12.43-22.692,12.43-22.692H169.9Z" transform="translate(-6.591 -14.279)"/><path d="M124.475,113.3s12.805,22.736,12.43,22.692h11.3l-5.5-22.692Z" transform="translate(-6.591 -14.279)"/><path d="M219.521,90.349A10.246,10.246,0,0,1,220,92.655a10.142,10.142,0,0,0-.475-2.311Z" transform="translate(-6.591 -14.279)" style="fill:none"/><polygon points="213.421 78.575 213.421 78.575 213.421 78.575 213.421 78.575" style="fill:none"/><path d="M220.3,92.887c-.093-.009-.182-.028-.277-.032h0C220.121,92.859,220.21,92.878,220.3,92.887Z" transform="translate(-6.591 -14.279)" style="fill:none"/><path d="M217.821,100.137l.048.014-.048-.014Z" transform="translate(-6.591 -14.279)" style="fill:none"/><path d="M217.8,100.131a.036.036,0,0,1,.019.006h0Z" transform="translate(-6.591 -14.279)"/><polygon points="213.421 78.575 213.421 78.575 213.417 78.575 213.418 78.575 213.421 78.575"/><path d="M194.449,101.127c.07.073.146.142.22.217.121.127.25.253.384.379.089.084.183.161.277.245.127.108.255.217.385.323.1.077.2.155.3.23q.214.159.435.31c.1.066.195.136.3.2.2.125.4.25.609.365.061.041.126.08.191.116.253.138.508.274.777.4.1.047.2.091.3.138.184.086.374.166.57.246.113.048.229.093.342.138.2.071.39.14.587.209.115.038.226.077.339.113.23.072.466.141.7.2.084.023.162.048.245.068.324.082.653.155.986.222.071.009.143.02.213.033.266.048.533.092.8.127.113.015.227.025.341.04.236.027.473.05.715.069.122.01.243.018.363.025.251.017.5.02.754.024.108,0,.216.008.326.008.354,0,.718-.008,1.083-.03.265-.015.531-.036.793-.061.086-.008.174-.02.258-.03.178-.02.352-.042.529-.064.093-.016.186-.033.279-.045.171-.032.342-.063.512-.1.082-.018.162-.033.244-.052.2-.042.389-.088.581-.136.051-.015.1-.027.151-.039a13.683,13.683,0,0,0,7.461-4.9l0-.007a3.672,3.672,0,0,1-2.632-3.031c-.175-2.009,1.64-3.887,4.046-4.2a5.11,5.11,0,0,1,.787-.036h0c-.008-.063,0-.132-.008-.2a10.246,10.246,0,0,0-.479-2.306l0-.005c.475-.2.946-.4,1.419-.607,1.15-.5,2.739-1.2,3.755-1.609,11.7-5.013,22.2-9.5,27.027-11.528,3.971-1.67,6.6-1.283,9.309.992,1.918,1.613,9.339,9.169,9.339,9.169L256.8,54.86c-9.217,5.11-85.536,54.513-85.536,54.513l4.316-.146,11.394-4.9c2.26-.971,4.773-2.051,7.462-3.21C194.444,101.12,194.447,101.122,194.449,101.127Z" transform="translate(-6.591 -14.279)"/><path d="M219.525,90.344A10.142,10.142,0,0,1,220,92.655c.008.067.008.13.011.2h.015c.095,0,.184.023.277.032a4.1,4.1,0,0,1,2.881,1.491l3.739-1.573a13.52,13.52,0,0,0-.041-1.361,12.65,12.65,0,0,0-.976-3.826c-.4.166-.8.348-1.207.51l-3.755,1.609C220.123,90.1,219.524,90.36,219.525,90.344Z" transform="translate(-6.591 -14.279)" style="fill:#b0bc22"/><path d="M221.8,99.823a4.833,4.833,0,0,1-1.956.58,5.037,5.037,0,0,1-1.979-.252l-.048-.014a13.707,13.707,0,0,1-7.48,4.89c-.049.012-.1.024-.151.039-.192.048-.385.094-.581.136-.082.019-.162.034-.244.052-.17.033-.341.064-.512.1-.093.012-.186.029-.279.045-.177.022-.351.044-.529.064-.084.01-.172.022-.258.03-.262.025-.528.046-.793.061-.365.022-.729.03-1.083.03-.11,0-.218,0-.326-.008-.252,0-.5-.007-.754-.024-.12-.007-.241-.015-.363-.025-.242-.019-.479-.042-.715-.069-.114-.015-.228-.025-.341-.04-.269-.035-.536-.079-.8-.127-.07-.013-.142-.024-.213-.033-.333-.067-.662-.14-.986-.222-.083-.02-.161-.045-.245-.068-.238-.062-.474-.131-.7-.2-.113-.036-.224-.075-.339-.113-.2-.069-.391-.138-.587-.209-.113-.045-.229-.09-.342-.138-.2-.08-.386-.16-.57-.246-.1-.047-.2-.091-.3-.138-.269-.127-.524-.263-.777-.4-.065-.036-.13-.075-.191-.116-.209-.115-.412-.24-.609-.365-.1-.068-.2-.138-.3-.2q-.221-.151-.435-.31c-.1-.075-.2-.153-.3-.23-.13-.106-.258-.215-.385-.323-.094-.084-.188-.161-.277-.245-.134-.126-.263-.252-.384-.379-.074-.075-.15-.144-.22-.217,0,0-7.373,3.225-7.473,3.2,4.382,3.17,11.242,5.056,18.789,4.73,7.073-.214,13.175-2.773,16.986-6.69l-.767-2.126C221.925,100.1,221.864,99.96,221.8,99.823Z" transform="translate(-6.591 -14.279)" style="fill:#b0bc22"/><path d="M223.184,94.378a3.373,3.373,0,0,1,.718,1.808,3.833,3.833,0,0,1-2.1,3.637c.06.137.121.277.18.418l.767,2.126a13.929,13.929,0,0,0,4.172-9.562Z" transform="translate(-6.591 -14.279)" style="fill:#b0bc22"/><path d="M219.525,90.344c0,.016.6-.247,1.419-.607C220.471,89.94,220,90.142,219.525,90.344Z" transform="translate(-6.591 -14.279)" style="fill:#b0bc22"/><path d="M194.438,101.117c-2.689,1.159-5.2,2.239-7.462,3.21.1.025,7.473-3.2,7.473-3.2S194.444,101.12,194.438,101.117Z" transform="translate(-6.591 -14.279)" style="fill:#b0bc22"/><path d="M210.341,105.027a13.707,13.707,0,0,0,7.48-4.89.036.036,0,0,0-.019-.006A13.683,13.683,0,0,1,210.341,105.027Z" transform="translate(-6.591 -14.279)" style="fill:#b7d433"/><path d="M220,92.655c.008.067,0,.136.008.2h0C220.008,92.785,220.008,92.722,220,92.655Z" transform="translate(-6.591 -14.279)" style="fill:#b7d433"/><path d="M219.819,95.794l3.365-1.416a4.111,4.111,0,0,0-2.881-1.491c-.093-.009-.182-.028-.277-.031A10.572,10.572,0,0,1,219.819,95.794Z" transform="translate(-6.591 -14.279)" style="fill:#ffef00"/><path d="M218.3,99.442c-.151.235-.308.469-.477.7l.048.014a5.066,5.066,0,0,0,1.979.252,4.833,4.833,0,0,0,1.956-.58,36.777,36.777,0,0,0-2.007-3.944A10.926,10.926,0,0,1,218.3,99.442Z" transform="translate(-6.591 -14.279)" style="fill:#ffef00"/><path d="M219.819,95.794c-.006.029-.015.056-.022.085a36.777,36.777,0,0,1,2.007,3.944,3.833,3.833,0,0,0,2.1-3.637,3.384,3.384,0,0,0-.718-1.808Z" transform="translate(-6.591 -14.279)" style="fill:#ffef00"/><path d="M218.3,99.442c-.151.233-.307.465-.475.689l-.016-.007,0,.007.019.006C217.99,99.911,218.147,99.677,218.3,99.442Z" transform="translate(-6.591 -14.279)" style="fill:#ffef00"/><polygon points="213.417 78.575 213.417 78.575 213.418 78.575 213.417 78.575" style="fill:#ffef00"/><path d="M217.869,100.151a5.037,5.037,0,0,0,1.979.252A5.066,5.066,0,0,1,217.869,100.151Z" transform="translate(-6.591 -14.279)" style="fill:#ffef00"/><path d="M220.3,92.887a4.111,4.111,0,0,1,2.881,1.491h0A4.1,4.1,0,0,0,220.3,92.887Z" transform="translate(-6.591 -14.279)" style="fill:#ffef00"/><path d="M223.9,96.186a3.373,3.373,0,0,0-.718-1.808h0A3.384,3.384,0,0,1,223.9,96.186Z" transform="translate(-6.591 -14.279)" style="fill:#ffef00"/><path d="M220.011,92.854l.015,0h-.015Z" transform="translate(-6.591 -14.279)" style="fill:#b0bc22"/><path d="M219.761,95.819l.039-.017a10.6,10.6,0,0,0,.208-2.948,5.11,5.11,0,0,0-.787.036c-2.406.316-4.221,2.194-4.046,4.2a3.672,3.672,0,0,0,2.632,3.031,11.027,11.027,0,0,0,1.978-4.265Z" transform="translate(-6.591 -14.279)" style="fill:#b0bc22"/><polygon points="213.418 78.575 213.421 78.575 213.421 78.575 213.418 78.575" style="fill:#b0bc22"/><path d="M219.761,95.819l.024.04c0-.02.011-.038.015-.057Z" transform="translate(-6.591 -14.279)" style="fill:#b0bc22"/><path d="M220.026,92.854h0Z" transform="translate(-6.591 -14.279)" style="fill:#b0bc22"/><path d="M218.3,99.442a10.926,10.926,0,0,0,1.5-3.563l-.008-.014A10.951,10.951,0,0,1,218.3,99.442Z" transform="translate(-6.591 -14.279)" style="fill:#b0bc22"/><path d="M220.026,92.856l-.015,0a10.66,10.66,0,0,1-.2,2.945l.013-.005A10.572,10.572,0,0,0,220.026,92.856Z" transform="translate(-6.591 -14.279)" style="fill:#b0bc22"/><path d="M219.789,95.865l.008.014c.007-.029.016-.056.022-.085l-.013.005C219.8,95.822,219.794,95.843,219.789,95.865Z" transform="translate(-6.591 -14.279)" style="fill:#b0bc22"/><path d="M218.3,99.442a10.951,10.951,0,0,0,1.491-3.577l0-.006a11.027,11.027,0,0,1-1.978,4.265l.016.007C217.991,99.907,218.147,99.675,218.3,99.442Z" transform="translate(-6.591 -14.279)" style="fill:#b0bc22"/><path d="M219.8,95.8l.006,0a10.66,10.66,0,0,0,.2-2.945h0A10.6,10.6,0,0,1,219.8,95.8Z" transform="translate(-6.591 -14.279)" style="fill:#b0bc22"/><path d="M219.8,95.8c0,.019-.011.037-.015.057l0,.006c.005-.022.013-.043.017-.066Z" transform="translate(-6.591 -14.279)" style="fill:#b0bc22"/><path d="M93.121,90.344a10.3,10.3,0,0,0-.474,2.311,10.357,10.357,0,0,1,.479-2.306Z" transform="translate(-6.591 -14.279)" style="fill:none"/><path d="M91.1,93.173c.028-.011.053-.027.081-.038C91.156,93.146,91.131,93.162,91.1,93.173Z" transform="translate(-6.591 -14.279)" style="fill:none"/><path d="M92.623,92.855c-.131,0-.254.028-.381.043.127-.015.25-.038.381-.042Z" transform="translate(-6.591 -14.279)" style="fill:none"/><polygon points="86.046 78.575 86.045 78.575 86.046 78.575 86.046 78.575" style="fill:none"/><path d="M94.812,100.141l.014,0h0Z" transform="translate(-6.591 -14.279)" style="fill:none"/><path d="M91.677,93c.071-.018.137-.045.21-.059C91.814,92.952,91.748,92.979,91.677,93Z" transform="translate(-6.591 -14.279)" style="fill:none"/><path d="M88.748,96.186a3.414,3.414,0,0,1,.129-.685A3.414,3.414,0,0,0,88.748,96.186Z" transform="translate(-6.591 -14.279)"/><polygon points="86.049 78.575 86.05 78.575 86.046 78.575 86.046 78.575 86.049 78.575"/><path d="M94.826,100.137a.047.047,0,0,1,.019-.006l-.019.006Z" transform="translate(-6.591 -14.279)"/><path d="M93.121,90.344l.005.005a10.357,10.357,0,0,0-.479,2.306c-.006.067,0,.136-.006.2h0a5.078,5.078,0,0,1,.785.036c2.406.316,4.216,2.194,4.048,4.2a3.676,3.676,0,0,1-2.633,3.032l0,.006a13.688,13.688,0,0,0,7.46,4.9c.05.012.1.024.153.039.189.048.384.094.58.136.08.019.163.034.246.052.169.033.341.064.509.1.1.012.189.029.282.045.173.022.351.044.527.064.085.01.17.022.258.03.264.025.528.046.794.061.365.022.726.03,1.086.03.108,0,.215,0,.323-.008.254,0,.5-.007.751-.024.122-.007.243-.015.364-.025q.363-.028.715-.069c.115-.015.23-.025.34-.04.274-.035.539-.079.8-.127.073-.013.145-.024.215-.033.334-.067.66-.14.982-.222.085-.02.165-.045.249-.068.236-.062.472-.131.7-.2.113-.036.224-.075.337-.113.2-.069.394-.138.589-.209.113-.045.228-.09.34-.138.194-.08.382-.16.572-.246.1-.047.2-.091.3-.138.267-.127.524-.263.776-.4.065-.036.13-.075.192-.116.21-.115.411-.24.61-.365.1-.068.195-.138.293-.2q.224-.151.434-.31c.1-.075.2-.153.3-.23.133-.106.26-.215.387-.323.1-.084.187-.161.276-.245q.2-.189.386-.379c.074-.075.149-.144.219-.217,0,0,.005-.007.008-.01,2.693,1.159,5.2,2.239,7.467,3.21l11.4,4.9,4.314.146S65.063,59.97,55.845,54.86l-13.574,31.9s7.423-7.556,9.34-9.169c2.706-2.275,5.338-2.662,9.313-.992,4.823,2.031,15.321,6.515,27.024,11.528,1.015.407,2.6,1.1,3.754,1.608Z" transform="translate(-6.591 -14.279)"/><path d="M117.979,101.344q-.184.191-.386.379c-.089.084-.181.161-.276.245-.127.108-.254.217-.387.323-.1.077-.2.155-.3.23q-.21.159-.434.31c-.1.066-.193.136-.293.2-.2.125-.4.25-.61.365-.062.041-.127.08-.192.116-.252.138-.509.274-.776.4-.1.047-.2.091-.3.138-.19.086-.378.166-.572.246-.112.048-.227.093-.34.138-.195.071-.391.14-.589.209-.113.038-.224.077-.337.113-.233.072-.469.141-.7.2-.084.023-.164.048-.249.068-.322.082-.648.155-.982.222-.07.009-.142.02-.215.033-.264.048-.529.092-.8.127-.11.015-.225.025-.34.04q-.352.04-.715.069c-.121.01-.242.018-.364.025-.247.017-.5.02-.751.024-.108,0-.215.008-.323.008-.36,0-.721-.008-1.086-.03-.266-.015-.53-.036-.794-.061-.088-.008-.173-.02-.258-.03-.176-.02-.354-.042-.527-.064-.093-.016-.186-.033-.282-.045-.168-.032-.34-.063-.509-.1-.083-.018-.166-.033-.246-.052-.2-.042-.391-.088-.58-.136-.053-.015-.1-.027-.153-.039a13.715,13.715,0,0,1-7.479-4.89l-.014,0a5.046,5.046,0,0,1-2.013.262,4.8,4.8,0,0,1-2.154-.7q-.115.261-.231.533l-.7,1.934c3.8,4.024,9.977,6.664,17.165,6.882,7.549.326,14.405-1.56,18.791-4.73-.1.025-7.475-3.2-7.475-3.2C118.128,101.2,118.053,101.269,117.979,101.344Z" transform="translate(-6.591 -14.279)" style="fill:#b0bc22"/><path d="M91.1,93.173c.028-.011.053-.027.081-.038A4.522,4.522,0,0,1,91.677,93c.071-.018.137-.045.21-.059.115-.022.237-.026.355-.04s.25-.038.381-.043h.013c.005-.069.007-.132.011-.2a10.3,10.3,0,0,1,.474-2.311c0,.016-.6-.247-1.419-.608l-3.754-1.608c-.4-.162-.8-.344-1.206-.51a12.478,12.478,0,0,0-.977,3.826,13.079,13.079,0,0,0-.04,1.464l3.686,1.551A3.865,3.865,0,0,1,91.1,93.173Z" transform="translate(-6.591 -14.279)" style="fill:#b0bc22"/><path d="M90.414,100.241q.115-.271.231-.533a3.793,3.793,0,0,1-1.9-3.522,3.263,3.263,0,0,1,.663-1.727l-3.686-1.551a13.888,13.888,0,0,0,3.992,9.267Z" transform="translate(-6.591 -14.279)" style="fill:#b0bc22"/><path d="M93.121,90.344,91.7,89.736C92.524,90.1,93.123,90.36,93.121,90.344Z" transform="translate(-6.591 -14.279)" style="fill:#b0bc22"/><path d="M118.2,101.127s7.375,3.225,7.475,3.2c-2.262-.971-4.774-2.051-7.467-3.21C118.2,101.12,118.2,101.122,118.2,101.127Z" transform="translate(-6.591 -14.279)" style="fill:#b0bc22"/><path d="M102.305,105.027a13.688,13.688,0,0,1-7.46-4.9.047.047,0,0,0-.019.006A13.715,13.715,0,0,0,102.305,105.027Z" transform="translate(-6.591 -14.279)" style="fill:#b7d433"/><path d="M92.647,92.655c0,.067-.006.13-.011.2h.005C92.646,92.791,92.641,92.722,92.647,92.655Z" transform="translate(-6.591 -14.279)" style="fill:#b7d433"/><path d="M94.812,100.141l.014,0c-.226-.3-.431-.616-.625-.935a10.684,10.684,0,0,1-1.578-6.346c-.131,0-.254.027-.381.042s-.24.018-.355.04c-.073.014-.139.041-.21.059a4.522,4.522,0,0,0-.493.138c-.028.011-.053.027-.081.038a3.865,3.865,0,0,0-1.692,1.286l3.23,1.36a36.947,36.947,0,0,0-2,3.889,4.8,4.8,0,0,0,2.154.7A5.082,5.082,0,0,0,94.812,100.141Z" transform="translate(-6.591 -14.279)" style="fill:#ffef00"/><path d="M89.411,94.459a3.263,3.263,0,0,0-.663,1.727,3.793,3.793,0,0,0,1.9,3.522,36.947,36.947,0,0,1,2-3.889Z" transform="translate(-6.591 -14.279)" style="fill:#ffef00"/><path d="M94.2,99.2c.194.319.4.633.625.935l.019-.006,0-.006-.015.006C94.6,99.831,94.4,99.519,94.2,99.2Z" transform="translate(-6.591 -14.279)" style="fill:#ffef00"/><polygon points="86.05 78.575 86.05 78.575 86.049 78.575 86.05 78.575" style="fill:#ffef00"/><path d="M91.887,92.938c.115-.022.237-.026.355-.04C92.124,92.912,92,92.916,91.887,92.938Z" transform="translate(-6.591 -14.279)" style="fill:#ffef00"/><path d="M91.184,93.135A4.522,4.522,0,0,1,91.677,93,4.522,4.522,0,0,0,91.184,93.135Z" transform="translate(-6.591 -14.279)" style="fill:#ffef00"/><path d="M92.8,100.4a5.046,5.046,0,0,0,2.013-.262A5.082,5.082,0,0,1,92.8,100.4Z" transform="translate(-6.591 -14.279)" style="fill:#ffef00"/><path d="M91.1,93.173a3.865,3.865,0,0,0-1.692,1.286h0A3.865,3.865,0,0,1,91.1,93.173Z" transform="translate(-6.591 -14.279)" style="fill:#ffef00"/><path d="M89.411,94.459a3.4,3.4,0,0,0-.534,1.042,3.4,3.4,0,0,1,.534-1.042Z" transform="translate(-6.591 -14.279)" style="fill:#ffef00"/><path d="M92.636,92.854h-.013Z" transform="translate(-6.591 -14.279)" style="fill:#b0bc22"/><path d="M94.841,100.125a3.676,3.676,0,0,0,2.633-3.032c.168-2.009-1.642-3.887-4.048-4.2a5.078,5.078,0,0,0-.785-.036A10.775,10.775,0,0,0,94.841,100.125Z" transform="translate(-6.591 -14.279)" style="fill:#b0bc22"/><polygon points="86.046 78.575 86.046 78.575 86.049 78.575 86.046 78.575" style="fill:#b0bc22"/><path d="M92.623,92.854h0Z" transform="translate(-6.591 -14.279)" style="fill:#b0bc22"/><path d="M92.636,92.854l-.013,0A10.684,10.684,0,0,0,94.2,99.2,10.721,10.721,0,0,1,92.636,92.854Z" transform="translate(-6.591 -14.279)" style="fill:#b0bc22"/><path d="M92.636,92.854A10.721,10.721,0,0,0,94.2,99.2c.194.317.4.629.625.929l.015-.006a10.775,10.775,0,0,1-2.2-7.271h-.005Z" transform="translate(-6.591 -14.279)" style="fill:#b0bc22"/><path d="M278.6,134.774,262.14,85.224c1.675,1.664,19.859,17.27,19.859,17.27L259.045,47.981S245.11,56.308,234.7,62.921L207.152,32.556h-101.9L77.7,62.921c-10.409-6.613-24.347-14.94-24.347-14.94L30.4,102.494s18.182-15.606,19.861-17.27L29.7,147.119a9.726,9.726,0,0,0,3.74,11.763l-22.3,2.193L6.591,208.953,301.7,179.934l4.108-47.836ZM35.352,157.209c-3.318-1.47-4.837-5.625-3.414-9.287l21.01-63.244a1.743,1.743,0,0,1,.068-.174,7.29,7.29,0,0,1,6.65-4.581,7.032,7.032,0,0,1,2.655.4,28.73,28.73,0,0,0-2.567-1.536c-3.052-1.273-4.67-1.22-6.858.62-1.5,1.264-16.564,15.005-16.564,15.005L54.466,51.436S91.435,73.725,91.507,73.773l-12-9.614,26.8-29.213h99.785l26.8,29.213-12,9.614c.074-.048,37.043-22.337,37.043-22.337L276.07,94.415S261.006,80.674,259.5,79.41c-2.186-1.84-3.806-1.893-6.858-.62a28.48,28.48,0,0,0-2.565,1.536,7.026,7.026,0,0,1,2.652-.4,7.3,7.3,0,0,1,6.657,4.581c.024.057.041.114.064.174l16.719,50.334-2.422.238L257.2,85.429a4.748,4.748,0,0,0-6.083-2.8l-24.191,10.18a13.929,13.929,0,0,1-4.172,9.562l13.2,36.6-2.443.241-11.826-32.8a27.594,27.594,0,0,1-12.6,4.749h3.3a2.382,2.382,0,0,1,1.66,4.082l-23.23,22.686a2.367,2.367,0,0,1-1.659.672h-65.9a2.381,2.381,0,0,1-1.662-.672l-23.23-22.686a2.381,2.381,0,0,1,1.66-4.082h3.3a27.607,27.607,0,0,1-12.6-4.749L73.208,154.971l-35.114,3.453ZM96.7,116.934l23.225,22.689a4.761,4.761,0,0,0,3.324,1.35h65.905a4.749,4.749,0,0,0,3.318-1.35L215.7,116.934a4.743,4.743,0,0,0,1.076-5.191c0-.02,2.5-1.106,3.67-1.75l10.62,29.455L75.828,154.714l16.126-44.721c1.167.644,3.67,1.73,3.66,1.75A4.747,4.747,0,0,0,96.7,116.934Zm202.7,60.732L9.349,206.183l4.073-42.838,289.654-28.484Z" transform="translate(-6.591 -14.279)"/><polygon points="290.971 161.569 4.966 189.694 8.654 150.885 294.302 122.793 290.971 161.569"/><path d="M47.429,169.35l-.626,7.513-3.6.352.266-2.667-2.149.214-.465,4.723,3.008-.3-.415,4.606-2.947.284-.54,5.276,1.29-.129-.181,1.311-.419,2.032-.774,1.285-1.167.514-4.478.444,1.908-5.21,1.472-15.632-1.957-3.486,11.77-1.132m-20.2,6.891-2.148.2L23.706,190.85l2.142-.209Zm3.961-1.663L29.72,190.817l-.174,1.1-.267,1.048-.395.971-.515.822-.562.531-.608.21-5.687.555-1.838-3.593,1.642-17.038.185-1.016.343-.9.512-.819.6-.562.585-.365.6-.152,5.19-.508Zm260.9-29.312-.548,5.2-.8.072-1.358,14.315-.212,1.631-.212,1.23-.294.837-.423.73-.608.459-.781.227-1.692.171-2.554-12.066-1.2,12.429-5.125.512,1.939-5.22,1.471-15.625-1.957-3.493,5.9-.58,2.652,11.773,1.069-12.134Zm-22.933,7.179-2.116.214L265.663,167.1l2.123-.209Zm3.962-1.659-1.47,16.278-.173,1.106-.274,1.016-.4.968-.506.824-.538.522-.566.207-5.709.567-1.814-3.609,1.579-17.024.177-1.019.379-.9.51-.827.563-.554.611-.363.609-.153,5.225-.51Zm-15.192-2.157-.5,4.693-.738.073-1.369,14.783,1.29-.134-.177,1.314-.422,2.032-.8,1.287-1.133.517-4.447.439,1.961-5.213L253,152.8l-1.9-3.5Zm-12.2,1.222-.664,7.478-3.192.313.328-2.631-1.322.128-1.326,14.584,1.292-.128-.185,1.311-.157,1.24-.212.887-.32.618-.562.583-.824.391-1.1.2-3.965.4L235.491,170l1.585-14.485-1.231.122-.294,2.635-3.142.305.907-7.535Zm-18.42,5.44-.333,3.848-3.931.389.215-2.564-2.092.2-1.375,14.412,2.122-.216.325-3.285,3.9-.38-.4,3.886-.17,1.1-.245,1.021-.4.968-.5.824-.534.517-.6.216-5.687.562-1.847-3.6,1.591-17.027.2-1.025.353-.893.538-.831.562-.552.59-.362.6-.155,5.312-.523ZM211.9,153.149l-.5,4.7-.743.074L209.3,172.7l1.29-.126-.182,1.311-.423,2.034-.769,1.279-1.151.526-4.433.428,1.972-5.21,1.446-15.624-1.96-3.507Zm-15.559,6.426-2.145.218-1.45,14.283,2.207-.216Zm4-1.565-1.52,16.367-.147,1.067-.24.982-.315.909-.45.782-.477.514-.535.212-9.774.953,1.968-5.21,1.478-15.626-1.96-3.5,9.981-.986ZM180.1,161.176l-2.155.212-1.415,14.283,2.179-.206Zm4.033-1.577-1.533,16.38-.174,1.069-.239.988-.316.894-.449.782-.477.52-.539.2-9.769.968,1.974-5.217,1.473-15.623-1.961-3.5,9.98-.977Zm-23.2,3.178-1.48,8.648,1.417-.134Zm5.322-5.14-.389,4.875-1.168.116.274,14.435,1.229-.126-.156,1.315-.155,1.228-.22.887-.312.621-.561.579-.864.4-1.1.2-2.056.2.06-6.328-2.246.218-1.106,6.432-5.618.55,2.067-4.227,3.523-16.819-1.711-3.522ZM136.7,165.448l-2.212.212-1.416,14.286,2.244-.219Zm3.971-1.571-1.522,16.37L139,181.31l-.24,1-.327.892-.444.789-.473.511-.543.207-9.736.964,1.911-5.213,1.473-15.629-1.957-3.489,10.013-.981ZM116.975,167.1l-1.5,8.655,1.415-.141Zm5.264-5.132-.384,4.869-1.173.116.307,14.433,1.2-.123-.115,1.308-.158,1.229-.23.893-.307.617-.565.587-.856.394-1.071.194-2.081.206.019-6.331-2.241.225-1.1,6.429-5.593.558,2.1-4.238,3.493-16.822-1.712-3.519Zm-20.806,6.972-2.151.206-1.374,14.405,2.148-.2Zm4-1.664-1.5,16.272-.174,1.109-.274,1.019-.374.967-.5.819-.54.525-.6.212-5.689.559-1.836-3.6,1.611-17.033.154-1.013.376-.9.536-.839.562-.55.59-.367.641-.156,5.187-.511ZM84.7,170.928l-2.158.211-.3,4.125,2.084-.2Zm4.1-2.143-.092,1.281-.1,1.507-.147,1.657-.121,1.87-.113.476-.112.507-.161.541-.227.517-.254.534-.387.457-.258.282-.459.318-.619.345.943,1.048.635,1.127.264,1.117.008.4-.076.779-.132,1.162,1.261-.122-.221,1.637-.215,1.227-.258.834-.452.729-.574.451-.794.237-3.225.318.927-8.275-2.22-1.707-.465,5.29,1.226-.125-.209,1.633-.227,1.231-.29.831-.42.728-.6.469-.792.225-4.483.445,1.965-5.222,1.484-15.62-1.966-3.493,9.838-.943ZM64.5,167.677l-.652,7.5-3.562.352.2-2.659-2.118.2-.435,4.723,2.978-.279-.407,4.595-2.983.3-.474,5.257,1.224-.117-.113,1.305-.425,2.026-.806,1.291-1.131.514-4.481.436,1.905-5.2,1.471-15.63L52.74,168.8ZM246.982,148.71l-.831,9.532-4.422.443-.916,9.894,1.315-.126-.308,2.531-.206,1.388-.267,1.052-.392.756-.789.816-1.121.547-1.47.295-5.706.559,2.486-6.6,1.137-10.5-4.391.436,1.158-9.646Zm.629-.591-.914,10.575-4.431.433-.834,8.86,1.352-.137-.4,3.176-.2,1.445-.324,1.118-.415.848-.9.923-1.263.652-1.645.348-6.608.65,2.765-7.314,1.074-9.84-4.422.439,1.309-10.656Zm-46.073,9.676-1.561,16.651-.171,1.112-.237,1.069-.362,1.036,0,.03-.028.028-.664,1.122-.836.7-.927.3-11.521,1.138,2.49-6.569,1.419-15.25-2.566-4.589,12.47-1.228Zm.574-.114-1.539,16.809-.168,1.127-.293,1.114-.362,1.091.007.03-.03.035-.807,1.281-.972.844-1.136.358L184.4,181.6l2.754-7.289,1.4-15.028-2.854-5.109,13.664-1.344Zm-78.621,3.1-.549,7.008-1.077.1.25,12.356,1.325-.137-.247,2.542-.177,1.378-.3,1.056-.364.751-.787.821-1.128.543-1.484.305-3.32.327.032-6.339-.06.013-1.143,6.432-8.446.832,2.851-5.7,3.411-16.4L110.1,162.1Zm.631-.553-.639,7.994-1.016.1.21,11.335,1.416-.144-.308,3.166-.206,1.449-.315,1.121-.417.843-.9.932-1.269.642-1.638.359-3.966.381-.019-.489-.073.5-9.893.98,3.242-6.5,3.341-16.177-2.418-5.03Zm150.185-9.655-1.5,16.562-.2,1.258-.31,1.112-.436,1.033-.723,1.162-.858.711-.993.31-6.513.636-2.3-4.487,1.619-17.314.255-1.2.419-1.093.654-.932.754-.789.887-.517.935-.254,6.021-.594Zm.584-.116-1.528,16.684-.215,1.32-.317,1.21-.447,1.069-.845,1.288-.992.845-1.216.368-6.938.678-2.5-4.953,1.635-17.445.241-1.294.481-1.168.673-1.054.9-.867,1-.595,1.117-.265,6.422-.628ZM228.5,155.079l-.467,4.98-6.054.6-.606,6.443,6.052-.591-.522,5.135-.184,1.258-.329,1.123-.42,1.03-.719,1.163-.871.7-.981.315-6.524.641-2.272-4.492,1.615-17.314.225-1.2.421-1.093.654-.935.795-.789.851-.523.935-.242,6.109-.6Zm.582-.116-.513,5.574-6.048.594-.52,5.414,6.047-.595-.585,5.742-.183,1.281-.346,1.214-.452,1.074-.833,1.282-1.006.848-1.2.362-6.913.684L214,173.481l1.631-17.44.245-1.3.477-1.166.711-1.056.9-.87,1-.592,1.083-.266,6.522-.642Zm-61.578,1.5-.549,7-1.083.108.259,12.348,1.318-.133-.249,2.535-.182,1.318-.287,1.084-.365.782h-.033l-.818.829-1.126.549-1.46.29-3.345.335.091-6.339-.088.008-1.109,6.44-8.476.834,2.882-5.711,3.373-16.4-2.21-4.558Zm.624-.562-.637,8-1.05.106.249,11.327,1.415-.143-.318,3.166-.195,1.411-.325,1.122-.412.849v.03h-.025l-.935.932-1.266.651-1.649.35-3.963.384-.015-.151-.01.158-9.892.968,3.205-6.48,3.37-16.185-2.474-5.03ZM48.684,168.206l-.829,9.58-2.7.257-.617,6.667-2.98.293-.312,3.2,1.326-.134-.344,2.548-.269,1.641-.493,1.284-.685.932-.871.622-1.087.286-6.236.612,2.425-6.554,1.445-15.256L33.9,169.6Zm.622-.583-.914,10.625-2.729.269-.59,6.635-2.981.3-.22,2.155,1.35-.131-.431,3.176-.177,1.318-.358,1.119-.432.945-.811.95-.96.624-1.184.3-7.1.693,2.673-7.266,1.4-15.025-2.828-5.12Zm33.263,14.524.06.021-.235,2.008Zm7.379-13.317-.119,1.69-.118,1.623-.126,1.532-.133,1.473,0,.03-.018.156-.122.627-.142.517-.14.447-.252.61-.338.627-.406.567-.173.171-.2.17-.223.206.643.965.439.981.227,1.03-.007.251-.02.433-.063.627,1.231-.12-.1,1.219-.189,1.6-.234,1.3-.311,1.024-.028.032-.025.066-.671,1.058-.92.675-1.182.305-4.615.451.057-.473-.5.3-.578.207-.665.131-6.238.61,2.487-6.569,1.446-15.244-2.562-4.595,12.23-1.139,2.637,4.108Zm.557,0-.109,1.723-.123,1.623-.128,1.538-.1,1.467,0,.065L90,175.4l-.12.636-.133.547-.134.475-.282.674-.367.661-.47.63-.111.105-.08.1-.116.1.559.939.37.955.183.974.027.183v.25l-.033.347,1.231-.123-.17,1.82-.174,1.664-.272,1.358-.3,1.046-.019.069-.028.035-.812,1.22-1.1.794-1.362.383-5.313.522.018-.122-.3.086-.334.063-.375.073-7.087.691,2.723-7.279,1.409-15.02-2.862-5.153,13.46-1.255,2.928,4.547Zm202.857-24.747-.737,7.334-.829.075-1.26,13.43-.224,1.763-.278,1.3-.275.924-.672,1.062-.93.7-1.207.313-2.7.254-1.207-5.61-.545,5.784-7.832.774,2.424-6.564,1.423-15.249-2.568-4.58,8.638-.854,1.214,5.436.47-5.6Zm.624-.556-.85,8.335-.8.071-1.2,13.025h-.034l-.226,1.793-.263,1.364-.318.957-.341.621-.383.541-.48.452-.644.4-.692.253-.761.171-3.221.313-.514-2.4-.217,2.474-9.227.905,2.706-7.277,1.4-15.029-2.858-5.108,9.949-.986.5,2.249.2-2.315Zm-34.818,3.922-.694,6.793-.737.076-1.166,12.7,1.352-.135-.342,2.545-.3,1.644-.467,1.3-.682.93-.9.615-1.067.29-6.2.606,2.493-6.569,1.386-15.237-2.5-4.592Zm.664-.567-.848,7.839-.7.068-1.1,11.642,1.386-.134-.432,3.175-.2,1.327-.328,1.114-.435.946-.8.95-1,.628-1.151.292-7.095.7,2.764-7.284,1.368-15.025L248.467,148Zm-46.644,5.081-.734,6.806-.708.074-1.166,12.7,1.321-.131-.333,2.554-.28,1.638-.493,1.29-.685.928-.866.616-1.089.292-6.205.6,2.516-6.566,1.419-15.247-2.568-4.589Zm.626-.555L213,159.243l-.7.063L211.2,170.954l1.352-.129-.428,3.17-.181,1.324-.323,1.122-.467.942-.779.946-.991.625-1.179.3-7.067.7,2.73-7.274,1.409-15.033-2.832-5.117ZM185.285,159.4l-1.554,16.648-.173,1.112-.24,1.074-.364,1.023,0,.033-.031.03-.66,1.125-.83.7-.935.305-11.514,1.129,2.487-6.566,1.408-15.244-2.558-4.592,12.472-1.23Zm.582-.12-1.55,16.809-.173,1.134-.288,1.11-.363,1.085.01.039-.034.032-.8,1.288-.967.84-1.144.358L168.145,183.2l2.759-7.277,1.406-15.035-2.858-5.115,13.67-1.341Zm-44,4.386L140.3,180.307l-.172,1.114-.234,1.069-.363,1.034,0,.037-.03.026-.661,1.126-.832.7-.938.31-11.486,1.13,2.428-6.569,1.45-15.249L126.9,160.45l12.447-1.225Zm.573-.119-1.576,16.815-.167,1.129-.264,1.114-.354,1.088-.03.036,0,.03-.807,1.283-.967.847-1.146.355-12.347,1.215,2.662-7.267,1.411-15.027-2.832-5.119L139.7,158.7Zm-35.851,3.533-1.5,16.553-.168,1.162-.324,1.15-.42,1.066,0,.033-.727,1.115-.861.747-1.027.313-6.51.634-2.269-4.481L94.4,168.083l.2-1.2.422-1.061.678-1,.8-.8.841-.506.942-.26,6.026-.585Zm.6-.128-1.512,16.681-.192,1.228-.314,1.212-.447,1.132h-.029v.033l-.833,1.288-1.034.849-1.206.37-6.911.675L92.2,185.457l1.61-17.407.213-1.266.472-1.192.734-1.1.91-.862.988-.594,1.093-.26,6.453-.633Zm-41.423-.424-.835,9.574-2.753.266-.615,6.673-2.991.287-.268,3.2,1.259-.125-.249,2.542L59,190.575l-.46,1.291-.684.925-.9.621-1.089.3-6.206.6,2.428-6.556,1.419-15.242-2.566-4.592Zm.625-.584-.912,10.629-2.764.272-.62,6.639-2.984.3-.189,2.155,1.263-.129-.308,3.169-.211,1.321-.326,1.123-.435.941-.805.943-.994.625-1.178.3-7.1.7,2.7-7.268,1.407-15.035-2.863-5.111Zm202.769-13.5-2.116.214L265.663,167.1l2.123-.209Zm-23.426-2.594-.664,7.478-3.192.313.328-2.631-1.322.128-1.326,14.584,1.292-.128-.185,1.311-.157,1.24-.212.887-.32.618-.562.583-.824.391-1.1.2-3.965.4L235.491,170l1.585-14.485-1.231.122-.294,2.635-3.142.305.907-7.535Zm-45.387,8.159-1.52,16.367-.147,1.067-.24.982-.315.909-.45.782-.477.514-.535.212-9.774.953,1.968-5.21,1.478-15.626-1.96-3.5,9.981-.986ZM180.1,161.176l-2.155.212-1.415,14.283,2.179-.206ZM27.228,176.241l-2.148.2L23.706,190.85l2.142-.209ZM84.7,170.928l-2.158.211-.3,4.125,2.084-.2Zm37.542-8.96-.384,4.869-1.173.116.307,14.433,1.2-.123-.115,1.308-.158,1.229-.23.893-.307.617-.565.587-.856.394-1.071.194-2.081.206.019-6.331-2.241.225-1.1,6.429-5.593.558,2.1-4.238,3.493-16.822-1.712-3.519Zm-20.806,6.972-2.151.206-1.374,14.405,2.148-.2Zm171.685-18.154-1.47,16.278-.173,1.106-.274,1.016-.4.968-.506.824-.538.522-.566.207-5.709.567-1.814-3.609,1.579-17.024.177-1.019.379-.9.51-.827.563-.554.611-.363.609-.153,5.225-.51Zm-45.808,4.5-.333,3.848-3.931.389.215-2.564-2.092.2-1.375,14.412,2.122-.216.325-3.285,3.9-.38-.4,3.886-.17,1.1-.245,1.021-.4.968-.5.824-.534.517-.6.216-5.687.562-1.847-3.6,1.591-17.027.2-1.025.353-.893.538-.831.562-.552.59-.362.6-.155,5.312-.523Zm-61.059,2.346-.389,4.875-1.168.116.274,14.435,1.229-.126-.156,1.315-.155,1.228-.22.887-.312.621-.561.579-.864.4-1.1.2-2.056.2.06-6.328-2.246.218-1.106,6.432-5.618.55,2.067-4.227,3.523-16.819-1.711-3.522ZM136.7,165.448l-2.212.212-1.416,14.286,2.244-.219Zm-89.268,3.9-.626,7.513-3.6.352.266-2.667-2.149.214-.465,4.723,3.008-.3-.415,4.606-2.947.284-.54,5.276,1.29-.129-.181,1.311-.419,2.032-.774,1.285-1.167.514-4.478.444,1.908-5.21,1.472-15.632-1.957-3.486Zm41.366-.565-.092,1.281-.1,1.507-.147,1.657-.121,1.87-.113.476-.112.507-.161.541-.227.517-.254.534-.387.457-.258.282-.459.318-.619.345.943,1.048.635,1.127.264,1.117.008.4-.076.779-.132,1.162,1.261-.122-.221,1.637-.215,1.227-.258.834-.452.729-.574.451-.794.237-3.225.318.927-8.275-2.22-1.707-.465,5.29,1.226-.125-.209,1.633-.227,1.231-.29.831-.42.728-.6.469-.792.225-4.483.445,1.965-5.222,1.484-15.62-1.966-3.493,9.838-.943Zm203.294-23.519-.548,5.2-.8.072-1.358,14.315-.212,1.631-.212,1.23-.294.837-.423.73-.608.459-.781.227-1.692.171-2.554-12.066-1.2,12.429-5.125.512,1.939-5.22,1.471-15.625-1.957-3.493,5.9-.58,2.652,11.773,1.069-12.134Zm-34.163,3.363-.5,4.693-.738.073-1.369,14.783,1.29-.134-.177,1.314-.422,2.032-.8,1.287-1.133.517-4.447.439,1.961-5.213L253,152.8l-1.9-3.5Zm-46.023,4.52-.5,4.7-.743.074L209.3,172.7l1.29-.126-.182,1.311-.423,2.034-.769,1.279-1.151.526-4.433.428,1.972-5.21,1.446-15.624-1.96-3.507Zm-15.559,6.426-2.145.218-1.45,14.283,2.207-.216Zm-12.215.024-1.533,16.38-.174,1.069-.239.988-.316.894-.449.782-.477.52-.539.2-9.769.968,1.974-5.217,1.473-15.623-1.961-3.5,9.98-.977Zm-23.2,3.178-1.48,8.648,1.417-.134Zm-20.261,1.1-1.522,16.37L139,181.31l-.24,1-.327.892-.444.789-.473.511-.543.207-9.736.964,1.911-5.213,1.473-15.629-1.957-3.489,10.013-.981ZM116.975,167.1l-1.5,8.655,1.415-.141Zm-11.546.176-1.5,16.272-.174,1.109-.274,1.019-.374.967-.5.819-.54.525-.6.212-5.689.559-1.836-3.6,1.611-17.033.154-1.013.376-.9.536-.839.562-.55.59-.367.641-.156,5.187-.511Zm-40.925.4-.652,7.5-3.562.352.2-2.659-2.118.2-.435,4.723,2.978-.279-.407,4.595-2.983.3-.474,5.257,1.224-.117-.113,1.305-.425,2.026-.806,1.291-1.131.514-4.481.436,1.905-5.2,1.471-15.63L52.74,168.8Zm-33.315,6.9L29.72,190.817l-.174,1.1-.267,1.048-.395.971-.515.822-.562.531-.608.21-5.687.555-1.838-3.593,1.642-17.038.185-1.016.343-.9.512-.819.6-.562.585-.365.6-.152,5.19-.508Zm1.19-.2L30.87,190.858l-.191,1.207L30.39,193.2l-.455,1.1.01.04-.032.02-.754,1.139-.864.708-1,.308-6.519.645-2.258-4.494,1.644-17.281.191-1.2.422-1.09.644-1h.035l.818-.794.852-.491.883-.238,6.012-.6Zm.581-.126L31.429,190.9l-.182,1.261-.317,1.17-.442,1.169-.031.03,0,.033-.893,1.293-1.01.809-1.2.374-6.923.685-2.495-4.968L19.6,175.345l.223-1.294.435-1.192.7-1.057h.034l-.007-.032.94-.875,1-.562,1.034-.257,6.419-.633Zm-1.771.33L29.72,190.817l-.174,1.1-.267,1.048-.395.971-.515.822-.562.531-.608.21-5.687.555-1.838-3.593,1.642-17.038.185-1.016.343-.9.512-.819.6-.562.585-.365.6-.152,5.19-.508Zm260.9-29.312-.548,5.2-.8.072-1.358,14.315-.212,1.631-.212,1.23-.294.837-.423.73-.608.459-.781.227-1.692.171-2.554-12.066-1.2,12.429-5.125.512,1.939-5.22,1.471-15.625-1.957-3.493,5.9-.58,2.652,11.773,1.069-12.134Zm-22.933,7.179-2.116.214L265.663,167.1l2.123-.209Zm3.962-1.659-1.47,16.278-.173,1.106-.274,1.016-.4.968-.506.824-.538.522-.566.207-5.709.567-1.814-3.609,1.579-17.024.177-1.019.379-.9.51-.827.563-.554.611-.363.609-.153,5.225-.51Zm-15.192-2.157-.5,4.693-.738.073-1.369,14.783,1.29-.134-.177,1.314-.422,2.032-.8,1.287-1.133.517-4.447.439,1.961-5.213L253,152.8l-1.9-3.5Zm-12.2,1.222-.664,7.478-3.192.313.328-2.631-1.322.128-1.326,14.584,1.292-.128-.185,1.311-.157,1.24-.212.887-.32.618-.562.583-.824.391-1.1.2-3.965.4L235.491,170l1.585-14.485-1.231.122-.294,2.635-3.142.305.907-7.535Zm-18.42,5.44-.333,3.848-3.931.389.215-2.564-2.092.2-1.375,14.412,2.122-.216.325-3.285,3.9-.38-.4,3.886-.17,1.1-.245,1.021-.4.968-.5.824-.534.517-.6.216-5.687.562-1.847-3.6,1.591-17.027.2-1.025.353-.893.538-.831.562-.552.59-.362.6-.155,5.312-.523ZM211.9,153.149l-.5,4.7-.743.074L209.3,172.7l1.29-.126-.182,1.311-.423,2.034-.769,1.279-1.151.526-4.433.428,1.972-5.21,1.446-15.624-1.96-3.507Zm-15.559,6.426-2.145.218-1.45,14.283,2.207-.216Zm4-1.565-1.52,16.367-.147,1.067-.24.982-.315.909-.45.782-.477.514-.535.212-9.774.953,1.968-5.21,1.478-15.626-1.96-3.5,9.981-.986ZM180.1,161.176l-2.155.212-1.415,14.283,2.179-.206Zm4.033-1.577-1.533,16.38-.174,1.069-.239.988-.316.894-.449.782-.477.52-.539.2-9.769.968,1.974-5.217,1.473-15.623-1.961-3.5,9.98-.977Zm-23.2,3.178-1.48,8.648,1.417-.134Zm5.322-5.14-.389,4.875-1.168.116.274,14.435,1.229-.126-.156,1.315-.155,1.228-.22.887-.312.621-.561.579-.864.4-1.1.2-2.056.2.06-6.328-2.246.218-1.106,6.432-5.618.55,2.067-4.227,3.523-16.819-1.711-3.522ZM136.7,165.448l-2.212.212-1.416,14.286,2.244-.219Zm3.971-1.571-1.522,16.37L139,181.31l-.24,1-.327.892-.444.789-.473.511-.543.207-9.736.964,1.911-5.213,1.473-15.629-1.957-3.489,10.013-.981ZM116.975,167.1l-1.5,8.655,1.415-.141Zm5.264-5.132-.384,4.869-1.173.116.307,14.433,1.2-.123-.115,1.308-.158,1.229-.23.893-.307.617-.565.587-.856.394-1.071.194-2.081.206.019-6.331-2.241.225-1.1,6.429-5.593.558,2.1-4.238,3.493-16.822-1.712-3.519Zm-20.806,6.972-2.151.206-1.374,14.405,2.148-.2Zm4-1.664-1.5,16.272-.174,1.109-.274,1.019-.374.967-.5.819-.54.525-.6.212-5.689.559-1.836-3.6,1.611-17.033.154-1.013.376-.9.536-.839.562-.55.59-.367.641-.156,5.187-.511ZM84.7,170.928l-2.158.211-.3,4.125,2.084-.2Zm4.1-2.143-.092,1.281-.1,1.507-.147,1.657-.121,1.87-.113.476-.112.507-.161.541-.227.517-.254.534-.387.457-.258.282-.459.318-.619.345.943,1.048.635,1.127.264,1.117.008.4-.076.779-.132,1.162,1.261-.122-.221,1.637-.215,1.227-.258.834-.452.729-.574.451-.794.237-3.225.318.927-8.275-2.22-1.707-.465,5.29,1.226-.125-.209,1.633-.227,1.231-.29.831-.42.728-.6.469-.792.225-4.483.445,1.965-5.222,1.484-15.62-1.966-3.493,9.838-.943ZM64.5,167.677l-.652,7.5-3.562.352.2-2.659-2.118.2-.435,4.723,2.978-.279-.407,4.595-2.983.3-.474,5.257,1.224-.117-.113,1.305-.425,2.026-.806,1.291-1.131.514-4.481.436,1.905-5.2,1.471-15.63L52.74,168.8ZM47.429,169.35l-.626,7.513-3.6.352.266-2.667-2.149.214-.465,4.723,3.008-.3-.415,4.606-2.947.284-.54,5.276,1.29-.129-.181,1.311-.419,2.032-.774,1.285-1.167.514-4.478.444,1.908-5.21,1.472-15.632-1.957-3.486Zm-20.2,6.891-2.148.2L23.706,190.85l2.142-.209Z" transform="translate(-6.591 -14.279)" style="fill:#b0bc22;fill-rule:evenodd"/></svg>