<?xml version="1.0" encoding="utf-8"?>
<!-- Generator: Adobe Illustrator 23.0.1, SVG Export Plug-In . SVG Version: 6.00 Build 0)  -->
<svg version="1.1" id="Layer_1" xmlns="http://www.w3.org/2000/svg" xmlns:xlink="http://www.w3.org/1999/xlink" x="0px" y="0px"
	 viewBox="0 0 299.2 194.7" style="enable-background:new 0 0 299.2 194.7;" xml:space="preserve">
<style type="text/css">
	.st0{fill:none;}
	.st1{fill:#424343;}
	.st2{fill:#B0BC22;}
	.st3{fill:#B7D433;}
	.st4{fill:#FFEF00;}
	.st5{fill-rule:evenodd;clip-rule:evenodd;fill:#B0BC22;}
</style>
<title>ora-logo</title>
<path class="st0" d="M56.8,154.8c2.9-0.1,5.5-1.9,6.5-4.7l3.2-8.9l-2.6,0.3l-2.8,7.8c-1,2.5-3.6,3.8-5.8,2.8l-18-8l-4.8,0.5
	l21.9,9.7C55,154.6,55.9,154.8,56.8,154.8z"/>
<path class="st0" d="M271.6,134.4c1.1,2.3,0.1,5.1-2.1,6.3L244,152.1c-2.2,1-4.8-0.3-5.8-2.8l-8.7-24.1l-2.4,0.2l8.9,24.7
	c1,2.7,3.6,4.6,6.5,4.7c0.9,0,1.7-0.2,2.5-0.5l25.5-11.3c3.3-1.5,4.8-5.6,3.4-9.3l-4.1-12.4l-2.4,0.2L271.6,134.4z"/>
<path class="st0" d="M81.4,73.8l3.8,1.6C84,75,82.4,74.3,81.4,73.8z"/>
<path class="st0" d="M210.2,97.5c0.7,1.8,0.3,3.8-1.1,5.2l-23.2,22.7c-0.9,0.9-2.1,1.4-3.3,1.4h-65.9c-1.2,0-2.4-0.5-3.3-1.4
	l-23.2-22.7c-1.4-1.3-1.8-3.4-1.1-5.2c0,0-2.5-1.1-3.7-1.8l-16.3,45.2l155.6-15.3l-10.8-29.9C212.7,96.4,210.2,97.4,210.2,97.5z"/>
<path class="st0" d="M299.2,0H4.9L4.5,147.3l23.1-2.3c-4.3-2-6.3-7.4-4.5-12.2l20.6-61.9C42,72.6,23.8,88.2,23.8,88.2l23-54.5
	c0,0,13.9,8.3,24.3,14.9l27.5-30.4h101.9l27.6,30.4c10.4-6.6,24.3-14.9,24.3-14.9l23,54.5c0,0-18.2-15.6-19.9-17.3l16.6,50l27-2.7
	L299.2,0z"/>
<path class="st0" d="M29.7,140.8c-2.3-1.2-3.2-4-2.1-6.3l21-63.3c0.9-2.4,3.6-3.7,6.1-2.8l24.4,10.3c0-0.5,0-1,0-1.5
	c0.1-1.3,0.5-2.6,1-3.8c0.4,0.2,0.8,0.3,1.2,0.5c-11.7-5-22.2-9.5-27-11.5c-4-1.7-6.6-1.3-9.3,1c-1.9,1.6-9.3,9.2-9.3,9.2l13.6-31.9
	c9.2,5.1,85.5,54.5,85.5,54.5l-4.3-0.1L119.1,90c-4.4,3.2-11.2,5.1-18.8,4.7c-7.2-0.2-13.4-2.9-17.2-6.9l-19.3,53.6l2.6-0.3
	l17.7-49.1c3.7,2.6,8.1,4.2,12.6,4.7h-3.3c-1.3,0-2.4,1.1-2.4,2.4c0,0.6,0.3,1.2,0.7,1.7l23.2,22.7c0.4,0.4,1,0.7,1.7,0.7h65.9
	c0.6,0,1.2-0.2,1.7-0.7l23.2-22.7c0.9-0.9,1-2.4,0-3.4c-0.4-0.5-1.1-0.7-1.7-0.7h-3.3c4.5-0.5,8.9-2.1,12.6-4.7l12,33.3l2.4-0.2
	l-13.4-37.1c-3.8,3.9-9.9,6.5-17,6.7c-7.5,0.3-14.4-1.6-18.8-4.7L169,94.9l-4.3,0.1c0,0,76.3-49.4,85.5-54.5l13.6,31.9
	c0,0-7.4-7.6-9.3-9.2c-2.7-2.3-5.3-2.7-9.3-1c-4.8,2-15.3,6.5-27,11.5c0.4-0.2,0.8-0.3,1.2-0.5c0.5,1.2,0.9,2.5,1,3.8
	c0,0.5,0.1,0.9,0,1.4l24.2-10.2c2.5-0.9,5.2,0.4,6.1,2.8l16.7,50.3l2.4-0.2l-16.9-50.8c0-0.1,0-0.1-0.1-0.2
	c-1.1-2.7-3.7-4.5-6.7-4.6c-0.9,0-1.8,0.1-2.7,0.4c0.8-0.6,1.7-1.1,2.6-1.5c3.1-1.3,4.7-1.2,6.9,0.6c1.5,1.3,16.6,15,16.6,15
	l-18.1-43c0,0-37,22.3-37,22.3l12-9.6l-26.8-29.2H99.7L72.9,49.9l12,9.6c-0.1,0-37-22.3-37-22.3l-18.1,43c0,0,15.1-13.7,16.6-15
	c2.2-1.8,3.8-1.9,6.9-0.6c0.9,0.5,1.7,1,2.6,1.5c-0.9-0.3-1.8-0.4-2.7-0.4c-2.9,0-5.6,1.9-6.7,4.6c0,0.1,0,0.1-0.1,0.2l-21,63.2
	c-1.4,3.7,0.1,7.8,3.4,9.3l3.6,1.6l4.8-0.5L29.7,140.8z M119.1,92.7l9.1,3.9h-10.5c-1.3,0-2.4,1-2.4,2.3c0,0,0,0.1,0,0.1l-0.8-1.2
	c-0.4-0.7-1.2-1-2-1h-6C111,96.4,115.3,95,119.1,92.7z M116.7,121.9L93.4,99.3h19.1l15.4,22.7H116.7z M130.3,121.7
	c0.4,0-12.4-22.7-12.4-22.7h18.2l5.5,22.7H130.3z M143.4,121.8l-3.6-22.5h19.1l-3.6,22.5H143.4z M117.7,54.2h63.6l-26.5,40.9h-10.5
	L117.7,54.2z M123.9,67.8l-12-15.2l-14.6-1.8h104.8l-14.6,1.7l-12,15.3l10.1-15.8l-71.8-0.1L123.9,67.8z M205.8,99.3l-23.2,22.7
	h-11.3l15.4-22.7L205.8,99.3z M180.1,92.7c3.8,2.3,8.1,3.7,12.5,4.1h-6c-0.8,0-1.5,0.4-2,1l-0.8,1.2c0.1-1.3-1-2.4-2.3-2.4
	c0,0-0.1,0-0.1,0h-10.5L180.1,92.7z M181.5,99c0,0-12.8,22.7-12.4,22.7h-11.3l5.5-22.7L181.5,99z M161.3,95.1h-4l31.6-40.5l31.5-3.4
	L161.3,95.1z M77.3,48.4L100.7,23h97.6l23.4,25.4H77.3z M78.8,51.2l31.5,3.4L142,95.1h-4L78.8,51.2z"/>
<path class="st0" d="M218.1,73.8c-1,0.4-2.6,1.1-3.8,1.6L218.1,73.8z"/>
<path class="st1" d="M114.5,97.9l0.8,1.2c0-1.3,1-2.4,2.3-2.4c0,0,0.1,0,0.1,0h10.5l-9.1-3.9c-3.8,2.3-8.1,3.7-12.5,4.1h6
	C113.3,96.9,114.1,97.3,114.5,97.9z"/>
<path class="st1" d="M79.1,78.6L54.7,68.3c-2.5-0.9-5.2,0.4-6.1,2.8l-21,63.3c-1.1,2.3-0.1,5.1,2.1,6.3l7.5,3.3l26.6-2.6l19.3-53.6
	C80.7,85.4,79.3,82.1,79.1,78.6z"/>
<polygon class="st1" points="142,95.1 110.4,54.6 78.8,51.2 137.9,95.1 "/>
<path class="st1" d="M93.4,99.3l23.2,22.7H128l-15.4-22.7L93.4,99.3z"/>
<polygon class="st1" points="154.8,95.1 181.3,54.2 117.7,54.2 144.2,95.1 "/>
<polygon class="st1" points="139.8,99.3 143.4,121.8 155.3,121.8 158.9,99.3 "/>
<polygon class="st1" points="221.7,48.4 198.3,23 197.7,23 101.3,23 100.7,23 77.3,48.4 77.9,48.4 221.1,48.4 "/>
<path class="st1" d="M183.6,97.8c0.2,0.4,0.3,0.8,0.3,1.3l0.8-1.2c0.4-0.7,1.2-1,2-1h6c-4.4-0.5-8.7-1.9-12.5-4.1l-9.1,3.9h10.5
	C182.4,96.6,183.2,97.1,183.6,97.8z"/>
<polygon class="st1" points="185.7,51.9 175.6,67.8 187.5,52.5 202.1,50.8 97.3,50.8 111.9,52.6 123.9,67.8 113.8,51.9 "/>
<polygon class="st1" points="157.3,95.1 161.3,95.1 220.4,51.2 188.8,54.6 "/>
<path class="st1" d="M171.3,121.9h11.3l23.2-22.7h-19.1L171.3,121.9z"/>
<path class="st1" d="M157.8,121.7h11.3c-0.4,0,12.4-22.7,12.4-22.7h-18.2L157.8,121.7z"/>
<path class="st1" d="M117.9,99c0,0,12.8,22.7,12.4,22.7h11.3L136.1,99H117.9z"/>
<path class="st0" d="M212.9,76.1c0.2,0.7,0.4,1.5,0.5,2.3C213.3,77.6,213.2,76.8,212.9,76.1L212.9,76.1z"/>
<polygon class="st0" points="213.4,78.6 213.4,78.6 213.4,78.6 "/>
<path class="st0" d="M213.7,78.6c-0.1,0-0.2,0-0.3,0l0,0C213.5,78.6,213.6,78.6,213.7,78.6z"/>
<path class="st0" d="M211.2,85.9L211.2,85.9L211.2,85.9z"/>
<path class="st1" d="M211.2,85.9C211.2,85.9,211.2,85.9,211.2,85.9L211.2,85.9L211.2,85.9z"/>
<polygon class="st1" points="213.4,78.6 213.4,78.6 213.4,78.6 213.4,78.6 "/>
<path class="st1" d="M187.9,86.8c0.1,0.1,0.1,0.1,0.2,0.2c0.1,0.1,0.3,0.3,0.4,0.4c0.1,0.1,0.2,0.2,0.3,0.2c0.1,0.1,0.3,0.2,0.4,0.3
	c0.1,0.1,0.2,0.2,0.3,0.2c0.1,0.1,0.3,0.2,0.4,0.3c0.1,0.1,0.2,0.1,0.3,0.2c0.2,0.1,0.4,0.3,0.6,0.4c0.1,0,0.1,0.1,0.2,0.1
	c0.3,0.1,0.5,0.3,0.8,0.4c0.1,0,0.2,0.1,0.3,0.1c0.2,0.1,0.4,0.2,0.6,0.2c0.1,0,0.2,0.1,0.3,0.1c0.2,0.1,0.4,0.1,0.6,0.2
	c0.1,0,0.2,0.1,0.3,0.1c0.2,0.1,0.5,0.1,0.7,0.2c0.1,0,0.2,0,0.2,0.1c0.3,0.1,0.7,0.2,1,0.2c0.1,0,0.1,0,0.2,0
	c0.3,0,0.5,0.1,0.8,0.1c0.1,0,0.2,0,0.3,0c0.2,0,0.5,0.1,0.7,0.1c0.1,0,0.2,0,0.4,0c0.3,0,0.5,0,0.8,0c0.1,0,0.2,0,0.3,0
	c0.4,0,0.7,0,1.1,0c0.3,0,0.5,0,0.8-0.1c0.1,0,0.2,0,0.3,0c0.2,0,0.4,0,0.5-0.1c0.1,0,0.2,0,0.3,0c0.2,0,0.3-0.1,0.5-0.1
	c0.1,0,0.2,0,0.2-0.1c0.2,0,0.4-0.1,0.6-0.1c0.1,0,0.1,0,0.2,0c3-0.8,5.6-2.5,7.5-4.9v0c-1.4-0.4-2.4-1.6-2.6-3
	c-0.2-2,1.6-3.9,4-4.2c0.3,0,0.5,0,0.8,0l0,0c0-0.1,0-0.1,0-0.2c-0.1-0.8-0.2-1.6-0.5-2.3v0c0.5-0.2,0.9-0.4,1.4-0.6
	c1.1-0.5,2.7-1.2,3.8-1.6c11.7-5,22.2-9.5,27-11.5c4-1.7,6.6-1.3,9.3,1c1.9,1.6,9.3,9.2,9.3,9.2l-13.6-31.9
	c-9.2,5.1-85.5,54.5-85.5,54.5l4.3-0.1l11.4-4.9C182.6,89.1,185.2,88,187.9,86.8C187.9,86.8,187.9,86.8,187.9,86.8z"/>
<path class="st2" d="M212.9,76.1c0.2,0.7,0.4,1.5,0.5,2.3c0,0.1,0,0.1,0,0.2h0c0.1,0,0.2,0,0.3,0c1.1,0.1,2.2,0.6,2.9,1.5l3.7-1.6
	c0-0.5,0-0.9,0-1.4c-0.1-1.3-0.5-2.6-1-3.8c-0.4,0.2-0.8,0.3-1.2,0.5l-3.8,1.6C213.5,75.8,212.9,76.1,212.9,76.1z"/>
<path class="st2" d="M215.2,85.5c-0.6,0.3-1.3,0.5-2,0.6c-0.7,0-1.3,0-2-0.3l0,0c-1.9,2.4-4.5,4.1-7.5,4.9c0,0-0.1,0-0.2,0
	c-0.2,0-0.4,0.1-0.6,0.1c-0.1,0-0.2,0-0.2,0.1c-0.2,0-0.3,0.1-0.5,0.1c-0.1,0-0.2,0-0.3,0c-0.2,0-0.4,0-0.5,0.1c-0.1,0-0.2,0-0.3,0
	c-0.3,0-0.5,0-0.8,0.1c-0.4,0-0.7,0-1.1,0c-0.1,0-0.2,0-0.3,0c-0.3,0-0.5,0-0.8,0c-0.1,0-0.2,0-0.4,0c-0.2,0-0.5,0-0.7-0.1
	c-0.1,0-0.2,0-0.3,0c-0.3,0-0.5-0.1-0.8-0.1c-0.1,0-0.1,0-0.2,0c-0.3-0.1-0.7-0.1-1-0.2c-0.1,0-0.2,0-0.2-0.1
	c-0.2-0.1-0.5-0.1-0.7-0.2c-0.1,0-0.2-0.1-0.3-0.1c-0.2-0.1-0.4-0.1-0.6-0.2c-0.1,0-0.2-0.1-0.3-0.1c-0.2-0.1-0.4-0.2-0.6-0.2
	c-0.1,0-0.2-0.1-0.3-0.1c-0.3-0.1-0.5-0.3-0.8-0.4c-0.1,0-0.1-0.1-0.2-0.1c-0.2-0.1-0.4-0.2-0.6-0.4c-0.1-0.1-0.2-0.1-0.3-0.2
	c-0.1-0.1-0.3-0.2-0.4-0.3c-0.1-0.1-0.2-0.2-0.3-0.2c-0.1-0.1-0.3-0.2-0.4-0.3c-0.1-0.1-0.2-0.2-0.3-0.2c-0.1-0.1-0.3-0.3-0.4-0.4
	c-0.1-0.1-0.1-0.1-0.2-0.2c0,0-7.4,3.2-7.5,3.2c4.4,3.2,11.2,5.1,18.8,4.7c7.1-0.2,13.2-2.8,17-6.7l-0.8-2.1
	C215.3,85.8,215.3,85.7,215.2,85.5z"/>
<path class="st2" d="M216.6,80.1c0.4,0.5,0.7,1.1,0.7,1.8c0.1,1.5-0.7,3-2.1,3.6c0.1,0.1,0.1,0.3,0.2,0.4l0.8,2.1
	c2.6-2.5,4.1-6,4.2-9.6L216.6,80.1z"/>
<path class="st2" d="M212.9,76.1c0,0,0.6-0.2,1.4-0.6C213.9,75.7,213.4,75.9,212.9,76.1z"/>
<path class="st2" d="M187.8,86.8c-2.7,1.2-5.2,2.2-7.5,3.2C180.5,90.1,187.9,86.8,187.8,86.8C187.9,86.8,187.9,86.8,187.8,86.8z"/>
<path class="st3" d="M203.8,90.7c3-0.7,5.6-2.5,7.5-4.9c0,0,0,0,0,0C209.3,88.3,206.7,90,203.8,90.7z"/>
<path class="st3" d="M213.4,78.4c0,0.1,0,0.1,0,0.2l0,0C213.4,78.5,213.4,78.4,213.4,78.4z"/>
<path class="st4" d="M213.2,81.5l3.4-1.4c-0.7-0.9-1.8-1.4-2.9-1.5c-0.1,0-0.2,0-0.3,0C213.5,79.6,213.4,80.6,213.2,81.5z"/>
<path class="st4" d="M211.7,85.2c-0.2,0.2-0.3,0.5-0.5,0.7l0,0c0.6,0.2,1.3,0.3,2,0.3c0.7-0.1,1.4-0.2,2-0.6c-0.6-1.4-1.3-2.7-2-3.9
	C212.9,82.9,212.4,84.1,211.7,85.2z"/>
<path class="st4" d="M213.2,81.5C213.2,81.5,213.2,81.6,213.2,81.5c0.7,1.4,1.4,2.7,2,4c1.4-0.7,2.2-2.1,2.1-3.6
	c-0.1-0.7-0.3-1.3-0.7-1.8L213.2,81.5z"/>
<path class="st4" d="M211.7,85.2c-0.2,0.2-0.3,0.5-0.5,0.7l0,0v0l0,0C211.4,85.6,211.6,85.4,211.7,85.2z"/>
<polygon class="st4" points="213.4,78.6 213.4,78.6 213.4,78.6 "/>
<path class="st4" d="M211.3,85.9c0.6,0.2,1.3,0.3,2,0.3C212.6,86.2,211.9,86.1,211.3,85.9z"/>
<path class="st4" d="M213.7,78.6c1.1,0.1,2.2,0.6,2.9,1.5l0,0C215.9,79.2,214.8,78.7,213.7,78.6z"/>
<path class="st4" d="M217.3,81.9c-0.1-0.7-0.3-1.3-0.7-1.8l0,0C217,80.6,217.3,81.2,217.3,81.9z"/>
<path class="st2" d="M213.4,78.6L213.4,78.6L213.4,78.6z"/>
<path class="st2" d="M213.2,81.5L213.2,81.5c0.2-1,0.3-2,0.2-3c-0.3,0-0.5,0-0.8,0c-2.4,0.3-4.2,2.2-4,4.2c0.2,1.4,1.2,2.6,2.6,3
	C212.2,84.6,212.8,83.1,213.2,81.5L213.2,81.5z"/>
<polygon class="st2" points="213.4,78.6 213.4,78.6 213.4,78.6 "/>
<path class="st2" d="M213.2,81.5L213.2,81.5C213.2,81.6,213.2,81.5,213.2,81.5L213.2,81.5z"/>
<path class="st2" d="M213.4,78.6L213.4,78.6z"/>
<path class="st2" d="M211.7,85.2c0.7-1.1,1.2-2.3,1.5-3.6l0,0C212.9,82.9,212.4,84.1,211.7,85.2z"/>
<path class="st2" d="M213.4,78.6L213.4,78.6c0.1,1,0,2-0.2,2.9l0,0C213.4,80.6,213.5,79.6,213.4,78.6z"/>
<path class="st2" d="M213.2,81.6L213.2,81.6C213.2,81.6,213.2,81.5,213.2,81.6L213.2,81.6C213.2,81.5,213.2,81.6,213.2,81.6z"/>
<path class="st2" d="M211.7,85.2c0.7-1.1,1.2-2.3,1.5-3.6v0c-0.3,1.5-1,3-2,4.3l0,0C211.4,85.6,211.6,85.4,211.7,85.2z"/>
<path class="st2" d="M213.2,81.5L213.2,81.5c0.2-1,0.3-2,0.2-2.9l0,0C213.5,79.6,213.4,80.6,213.2,81.5z"/>
<path class="st2" d="M213.2,81.5C213.2,81.5,213.2,81.6,213.2,81.5L213.2,81.5C213.2,81.6,213.2,81.5,213.2,81.5L213.2,81.5z"/>
<path class="st0" d="M86.5,76.1c-0.2,0.7-0.4,1.5-0.5,2.3C86.1,77.6,86.3,76.8,86.5,76.1L86.5,76.1z"/>
<path class="st0" d="M84.5,78.9C84.5,78.9,84.6,78.9,84.5,78.9C84.6,78.9,84.5,78.9,84.5,78.9z"/>
<path class="st0" d="M86,78.6c-0.1,0-0.3,0-0.4,0C85.8,78.6,85.9,78.6,86,78.6L86,78.6z"/>
<polygon class="st0" points="86,78.6 86,78.6 86,78.6 "/>
<path class="st0" d="M88.2,85.9L88.2,85.9L88.2,85.9L88.2,85.9z"/>
<path class="st0" d="M85.1,78.7c0.1,0,0.1,0,0.2-0.1C85.2,78.7,85.2,78.7,85.1,78.7z"/>
<path class="st1" d="M82.2,81.9c0-0.2,0.1-0.5,0.1-0.7C82.2,81.4,82.2,81.7,82.2,81.9z"/>
<polygon class="st1" points="86,78.6 86.1,78.6 86,78.6 86,78.6 "/>
<path class="st1" d="M88.2,85.9C88.2,85.9,88.2,85.9,88.2,85.9L88.2,85.9z"/>
<path class="st1" d="M86.5,76.1L86.5,76.1c-0.2,0.8-0.4,1.5-0.5,2.3c0,0.1,0,0.1,0,0.2l0,0c0.3,0,0.5,0,0.8,0c2.4,0.3,4.2,2.2,4,4.2
	c-0.2,1.4-1.2,2.6-2.6,3v0c1.9,2.4,4.5,4.1,7.5,4.9c0.1,0,0.1,0,0.2,0c0.2,0,0.4,0.1,0.6,0.1c0.1,0,0.2,0,0.2,0.1
	c0.2,0,0.3,0.1,0.5,0.1c0.1,0,0.2,0,0.3,0c0.2,0,0.4,0,0.5,0.1c0.1,0,0.2,0,0.3,0c0.3,0,0.5,0,0.8,0.1c0.4,0,0.7,0,1.1,0
	c0.1,0,0.2,0,0.3,0c0.3,0,0.5,0,0.8,0c0.1,0,0.2,0,0.4,0c0.2,0,0.5,0,0.7-0.1c0.1,0,0.2,0,0.3,0c0.3,0,0.5-0.1,0.8-0.1
	c0.1,0,0.1,0,0.2,0c0.3-0.1,0.7-0.1,1-0.2c0.1,0,0.2,0,0.2-0.1c0.2-0.1,0.5-0.1,0.7-0.2c0.1,0,0.2-0.1,0.3-0.1
	c0.2-0.1,0.4-0.1,0.6-0.2c0.1,0,0.2-0.1,0.3-0.1c0.2-0.1,0.4-0.2,0.6-0.2c0.1,0,0.2-0.1,0.3-0.1c0.3-0.1,0.5-0.3,0.8-0.4
	c0.1,0,0.1-0.1,0.2-0.1c0.2-0.1,0.4-0.2,0.6-0.4c0.1-0.1,0.2-0.1,0.3-0.2c0.1-0.1,0.3-0.2,0.4-0.3c0.1-0.1,0.2-0.2,0.3-0.2
	c0.1-0.1,0.3-0.2,0.4-0.3c0.1-0.1,0.2-0.2,0.3-0.2c0.1-0.1,0.3-0.3,0.4-0.4c0.1-0.1,0.1-0.1,0.2-0.2c0,0,0,0,0,0
	c2.7,1.2,5.2,2.2,7.5,3.2l11.4,4.9l4.3,0.1c0,0-76.3-49.4-85.5-54.5L35.7,72.5c0,0,7.4-7.6,9.3-9.2c2.7-2.3,5.3-2.7,9.3-1
	c4.8,2,15.3,6.5,27,11.5c1,0.4,2.6,1.1,3.8,1.6L86.5,76.1z"/>
<path class="st2" d="M111.4,87.1c-0.1,0.1-0.3,0.3-0.4,0.4c-0.1,0.1-0.2,0.2-0.3,0.2c-0.1,0.1-0.3,0.2-0.4,0.3
	c-0.1,0.1-0.2,0.2-0.3,0.2c-0.1,0.1-0.3,0.2-0.4,0.3c-0.1,0.1-0.2,0.1-0.3,0.2c-0.2,0.1-0.4,0.3-0.6,0.4c-0.1,0-0.1,0.1-0.2,0.1
	c-0.3,0.1-0.5,0.3-0.8,0.4c-0.1,0-0.2,0.1-0.3,0.1c-0.2,0.1-0.4,0.2-0.6,0.2c-0.1,0-0.2,0.1-0.3,0.1c-0.2,0.1-0.4,0.1-0.6,0.2
	c-0.1,0-0.2,0.1-0.3,0.1c-0.2,0.1-0.5,0.1-0.7,0.2c-0.1,0-0.2,0-0.2,0.1c-0.3,0.1-0.6,0.2-1,0.2c-0.1,0-0.1,0-0.2,0
	c-0.3,0-0.5,0.1-0.8,0.1c-0.1,0-0.2,0-0.3,0c-0.2,0-0.5,0-0.7,0.1c-0.1,0-0.2,0-0.4,0c-0.2,0-0.5,0-0.8,0c-0.1,0-0.2,0-0.3,0
	c-0.4,0-0.7,0-1.1,0c-0.3,0-0.5,0-0.8-0.1c-0.1,0-0.2,0-0.3,0c-0.2,0-0.4,0-0.5-0.1c-0.1,0-0.2,0-0.3,0C97,91,96.9,91,96.7,91
	c-0.1,0-0.2,0-0.2-0.1c-0.2,0-0.4-0.1-0.6-0.1c-0.1,0-0.1,0-0.2,0c-3-0.7-5.6-2.5-7.5-4.9h0c-0.6,0.2-1.3,0.3-2,0.3
	c-0.8-0.1-1.5-0.3-2.2-0.7c-0.1,0.2-0.2,0.4-0.2,0.5l-0.7,1.9c3.8,4,10,6.7,17.2,6.9c7.5,0.3,14.4-1.6,18.8-4.7
	c-0.1,0-7.5-3.2-7.5-3.2C111.5,86.9,111.5,87,111.4,87.1z"/>
<path class="st2" d="M84.5,78.9C84.5,78.9,84.6,78.9,84.5,78.9c0.2-0.1,0.4-0.1,0.6-0.2c0.1,0,0.1,0,0.2-0.1c0.1,0,0.2,0,0.4,0
	s0.3,0,0.4,0h0c0-0.1,0-0.1,0-0.2c0.1-0.8,0.2-1.6,0.5-2.3c0,0-0.6-0.2-1.4-0.6l-3.8-1.6c-0.4-0.2-0.8-0.3-1.2-0.5
	c-0.5,1.2-0.9,2.5-1,3.8c0,0.5-0.1,1,0,1.5l3.7,1.6C83.3,79.6,83.8,79.2,84.5,78.9z"/>
<path class="st2" d="M83.8,86c0.1-0.2,0.2-0.4,0.2-0.5c-1.3-0.7-2-2.1-1.9-3.5c0-0.6,0.3-1.2,0.7-1.7l-3.7-1.6
	c0.1,3.5,1.5,6.8,4,9.3L83.8,86z"/>
<path class="st2" d="M86.5,76.1l-1.4-0.6C85.9,75.8,86.5,76.1,86.5,76.1z"/>
<path class="st2" d="M111.6,86.8c0,0,7.4,3.2,7.5,3.2C116.8,89.1,114.3,88,111.6,86.8C111.6,86.8,111.6,86.8,111.6,86.8z"/>
<path class="st3" d="M95.7,90.7c-3-0.8-5.6-2.5-7.5-4.9c0,0,0,0,0,0C90.1,88.3,92.7,90,95.7,90.7z"/>
<path class="st3" d="M86.1,78.4c0,0.1,0,0.1,0,0.2h0C86.1,78.5,86,78.4,86.1,78.4z"/>
<path class="st4" d="M88.2,85.9L88.2,85.9c-0.2-0.3-0.4-0.6-0.6-0.9c-1.2-1.9-1.7-4.1-1.6-6.3c-0.1,0-0.3,0-0.4,0s-0.2,0-0.4,0
	c-0.1,0-0.1,0-0.2,0.1c-0.2,0-0.3,0.1-0.5,0.1c0,0-0.1,0-0.1,0c-0.7,0.3-1.3,0.7-1.7,1.3l3.2,1.4c-0.7,1.3-1.4,2.6-2,3.9
	c0.7,0.4,1.4,0.6,2.2,0.7C86.9,86.2,87.6,86.1,88.2,85.9z"/>
<path class="st4" d="M82.8,80.2c-0.4,0.5-0.6,1.1-0.7,1.7c-0.1,1.4,0.6,2.8,1.9,3.5c0.6-1.3,1.3-2.6,2-3.9L82.8,80.2z"/>
<path class="st4" d="M87.6,84.9c0.2,0.3,0.4,0.6,0.6,0.9l0,0v0l0,0C88,85.6,87.8,85.2,87.6,84.9z"/>
<polygon class="st4" points="86.1,78.6 86.1,78.6 86,78.6 "/>
<path class="st4" d="M85.3,78.7c0.1,0,0.2,0,0.4,0C85.5,78.6,85.4,78.6,85.3,78.7z"/>
<path class="st4" d="M84.6,78.9c0.2-0.1,0.3-0.1,0.5-0.1C84.9,78.8,84.8,78.8,84.6,78.9z"/>
<path class="st4" d="M86.2,86.1c0.7,0,1.4,0,2-0.3C87.6,86.1,86.9,86.2,86.2,86.1z"/>
<path class="st4" d="M84.5,78.9c-0.7,0.3-1.3,0.7-1.7,1.3l0,0C83.2,79.6,83.8,79.2,84.5,78.9z"/>
<path class="st4" d="M82.8,80.2c-0.2,0.3-0.4,0.7-0.5,1C82.4,80.8,82.6,80.5,82.8,80.2z"/>
<path class="st2" d="M86,78.6L86,78.6L86,78.6z"/>
<path class="st2" d="M88.3,85.8c1.4-0.4,2.4-1.6,2.6-3c0.2-2-1.6-3.9-4-4.2c-0.3,0-0.5,0-0.8,0C85.9,81.2,86.7,83.8,88.3,85.8z"/>
<polygon class="st2" points="86,78.6 86,78.6 86,78.6 "/>
<path class="st2" d="M86,78.6L86,78.6z"/>
<path class="st2" d="M86,78.6L86,78.6c-0.2,2.2,0.4,4.4,1.6,6.3C86.4,83,85.9,80.8,86,78.6z"/>
<path class="st2" d="M86,78.6c-0.2,2.2,0.4,4.4,1.6,6.3c0.2,0.3,0.4,0.6,0.6,0.9l0,0C86.7,83.8,85.9,81.2,86,78.6L86,78.6L86,78.6z"
	/>
<path class="st1" d="M272,120.5l-16.5-49.6c1.7,1.7,19.9,17.3,19.9,17.3l-23-54.5c0,0-13.9,8.3-24.3,14.9l-27.5-30.4H98.7L71.1,48.6
	C60.7,42,46.8,33.7,46.8,33.7l-23,54.5c0,0,18.2-15.6,19.9-17.3l-20.6,61.9c-1.7,4.3-0.2,9.2,3.7,11.8l-22.3,2.2L0,194.7l295.1-29
	l4.1-47.8L272,120.5z M28.8,142.9c-3.3-1.5-4.8-5.6-3.4-9.3l21-63.2c0-0.1,0-0.1,0.1-0.2c1.1-2.7,3.7-4.5,6.7-4.6
	c0.9,0,1.8,0.1,2.7,0.4c-0.8-0.6-1.7-1.1-2.6-1.5c-3.1-1.3-4.7-1.2-6.9,0.6c-1.5,1.3-16.6,15-16.6,15l18.1-43c0,0,37,22.3,37,22.3
	l-12-9.6l26.8-29.2h99.8l26.8,29.2l-12,9.6c0.1,0,37-22.3,37-22.3l18.1,43c0,0-15.1-13.7-16.6-15c-2.2-1.8-3.8-1.9-6.9-0.6
	c-0.9,0.5-1.7,1-2.6,1.5c0.9-0.3,1.8-0.4,2.7-0.4c2.9,0,5.6,1.9,6.7,4.6c0,0.1,0,0.1,0.1,0.2l16.7,50.3l-2.4,0.2l-16.5-49.8
	c-0.9-2.4-3.6-3.7-6.1-2.8l-24.2,10.2c-0.1,3.6-1.6,7-4.2,9.6l13.2,36.6l-2.4,0.2l-11.8-32.8c-3.7,2.6-8.1,4.2-12.6,4.7h3.3
	c1.3,0,2.4,1.1,2.4,2.4c0,0.6-0.3,1.2-0.7,1.7l-23.2,22.7c-0.4,0.4-1,0.7-1.7,0.7h-65.9c-0.6,0-1.2-0.2-1.7-0.7L91.8,101
	c-0.9-0.9-1-2.4,0-3.4c0.4-0.5,1.1-0.7,1.7-0.7h3.3c-4.5-0.5-8.9-2.2-12.6-4.7l-17.5,48.6l-35.1,3.5L28.8,142.9z M90.1,102.7
	l23.2,22.7c0.9,0.9,2.1,1.4,3.3,1.4h65.9c1.2,0,2.4-0.5,3.3-1.4l23.2-22.7c1.4-1.3,1.8-3.4,1.1-5.2c0,0,2.5-1.1,3.7-1.8l10.6,29.5
	L69.2,140.4l16.1-44.7c1.2,0.6,3.7,1.7,3.7,1.8C88.3,99.3,88.7,101.3,90.1,102.7z M292.8,163.4L2.8,191.9l4.1-42.8l289.7-28.5
	L292.8,163.4z"/>
<polygon class="st1" points="291,161.6 5,189.7 8.7,150.9 294.3,122.8 "/>
<path class="st5" d="M40.8,155.1l-0.6,7.5l-3.6,0.4l0.3-2.7l-2.1,0.2l-0.5,4.7l3-0.3l-0.4,4.6l-2.9,0.3l-0.5,5.3l1.3-0.1l-0.2,1.3
	l-0.4,2l-0.8,1.3l-1.2,0.5l-4.5,0.4l1.9-5.2l1.5-15.6l-2-3.5L40.8,155.1 M20.6,162l-2.1,0.2l-1.4,14.4l2.1-0.2L20.6,162z
	 M24.6,160.3l-1.5,16.2l-0.2,1.1l-0.3,1l-0.4,1l-0.5,0.8l-0.6,0.5l-0.6,0.2l-5.7,0.6l-1.8-3.6l1.6-17l0.2-1l0.3-0.9l0.5-0.8l0.6-0.6
	l0.6-0.4l0.6-0.2l5.2-0.5L24.6,160.3z M285.5,131l-0.5,5.2l-0.8,0.1l-1.4,14.3l-0.2,1.6l-0.2,1.2l-0.3,0.8l-0.4,0.7l-0.6,0.5
	l-0.8,0.2l-1.7,0.2l-2.6-12.1l-1.2,12.4l-5.1,0.5l1.9-5.2l1.5-15.6l-2-3.5l5.9-0.6l2.7,11.8l1.1-12.1L285.5,131z M262.6,138.2
	l-2.1,0.2l-1.4,14.4l2.1-0.2L262.6,138.2z M266.5,136.5l-1.5,16.3l-0.2,1.1l-0.3,1l-0.4,1l-0.5,0.8l-0.5,0.5l-0.6,0.2l-5.7,0.6
	l-1.8-3.6l1.6-17l0.2-1l0.4-0.9l0.5-0.8l0.6-0.6l0.6-0.4l0.6-0.2l5.2-0.5L266.5,136.5z M251.3,134.3l-0.5,4.7l-0.7,0.1l-1.4,14.8
	l1.3-0.1l-0.2,1.3l-0.4,2l-0.8,1.3l-1.1,0.5l-4.4,0.4l2-5.2l1.4-15.6l-1.9-3.5L251.3,134.3z M239.1,135.6l-0.7,7.5l-3.2,0.3l0.3-2.6
	l-1.3,0.1l-1.3,14.6l1.3-0.1l-0.2,1.3l-0.2,1.2l-0.2,0.9l-0.3,0.6l-0.6,0.6l-0.8,0.4l-1.1,0.2l-4,0.4l2-5.2l1.6-14.5l-1.2,0.1
	L229,144l-3.1,0.3l0.9-7.5L239.1,135.6z M220.7,141l-0.3,3.8l-3.9,0.4l0.2-2.6l-2.1,0.2l-1.4,14.4l2.1-0.2l0.3-3.3l3.9-0.4l-0.4,3.9
	l-0.2,1.1l-0.2,1l-0.4,1l-0.5,0.8l-0.5,0.5l-0.6,0.2l-5.7,0.6l-1.8-3.6l1.6-17l0.2-1l0.4-0.9l0.5-0.8l0.6-0.6l0.6-0.4l0.6-0.2
	l5.3-0.5L220.7,141z M205.3,138.9l-0.5,4.7l-0.7,0.1l-1.4,14.8l1.3-0.1l-0.2,1.3l-0.4,2l-0.8,1.3l-1.2,0.5l-4.4,0.4l2-5.2l1.4-15.6
	l-2-3.5L205.3,138.9z M189.7,145.3l-2.1,0.2l-1.4,14.3l2.2-0.2L189.7,145.3z M193.7,143.7l-1.5,16.4l-0.1,1.1l-0.2,1l-0.3,0.9
	l-0.4,0.8l-0.5,0.5l-0.5,0.2l-9.8,1l2-5.2l1.5-15.6l-2-3.5l10-1L193.7,143.7z M173.5,146.9l-2.2,0.2l-1.4,14.3l2.2-0.2L173.5,146.9z
	 M177.5,145.3l-1.5,16.4l-0.2,1.1l-0.2,1l-0.3,0.9l-0.4,0.8l-0.5,0.5l-0.5,0.2l-9.8,1l2-5.2l1.5-15.6l-2-3.5l10-1L177.5,145.3z
	 M154.3,148.5l-1.5,8.6l1.4-0.1L154.3,148.5z M159.7,143.4l-0.4,4.9l-1.2,0.1l0.3,14.4l1.2-0.1l-0.2,1.3l-0.2,1.2l-0.2,0.9l-0.3,0.6
	l-0.6,0.6l-0.9,0.4l-1.1,0.2l-2.1,0.2l0.1-6.3L152,162l-1.1,6.4l-5.6,0.6l2.1-4.2l3.5-16.8l-1.7-3.5L159.7,143.4z M130.1,151.2
	l-2.2,0.2l-1.4,14.3l2.2-0.2L130.1,151.2z M134.1,149.6l-1.5,16.4l-0.1,1.1l-0.2,1l-0.3,0.9l-0.4,0.8l-0.5,0.5l-0.5,0.2l-9.7,1
	l1.9-5.2l1.5-15.6l-2-3.5l10-1L134.1,149.6z M110.4,152.8l-1.5,8.7l1.4-0.1L110.4,152.8z M115.6,147.7l-0.4,4.9l-1.2,0.1l0.3,14.4
	l1.2-0.1l-0.1,1.3l-0.2,1.2l-0.2,0.9l-0.3,0.6l-0.6,0.6l-0.9,0.4l-1.1,0.2l-2.1,0.2l0-6.3l-2.2,0.2l-1.1,6.4l-5.6,0.6l2.1-4.2
	l3.5-16.8l-1.7-3.5L115.6,147.7z M94.8,154.7l-2.2,0.2l-1.4,14.4l2.1-0.2L94.8,154.7z M98.8,153l-1.5,16.3l-0.2,1.1l-0.3,1l-0.4,1
	l-0.5,0.8l-0.5,0.5l-0.6,0.2l-5.7,0.6l-1.8-3.6l1.6-17l0.2-1l0.4-0.9l0.5-0.8l0.6-0.6l0.6-0.4l0.6-0.2l5.2-0.5L98.8,153z
	 M78.1,156.6l-2.2,0.2l-0.3,4.1l2.1-0.2L78.1,156.6z M82.2,154.5l-0.1,1.3l-0.1,1.5l-0.1,1.7l-0.1,1.9l-0.1,0.5l-0.1,0.5l-0.2,0.5
	l-0.2,0.5l-0.3,0.5l-0.4,0.5l-0.3,0.3l-0.5,0.3l-0.6,0.3l0.9,1l0.6,1.1l0.3,1.1l0,0.4l-0.1,0.8l-0.1,1.2l1.3-0.1l-0.2,1.6l-0.2,1.2
	l-0.3,0.8l-0.5,0.7l-0.6,0.5l-0.8,0.2l-3.2,0.3l0.9-8.3l-2.2-1.7l-0.5,5.3l1.2-0.1l-0.2,1.6l-0.2,1.2l-0.3,0.8l-0.4,0.7l-0.6,0.5
	l-0.8,0.2l-4.5,0.4l2-5.2l1.5-15.6l-2-3.5l9.8-0.9L82.2,154.5z M57.9,153.4l-0.7,7.5l-3.6,0.4l0.2-2.7l-2.1,0.2l-0.4,4.7l3-0.3
	l-0.4,4.6l-3,0.3l-0.5,5.3l1.2-0.1l-0.1,1.3l-0.4,2l-0.8,1.3l-1.1,0.5l-4.5,0.4l1.9-5.2l1.5-15.6l-2-3.5L57.9,153.4z M240.4,134.4
	l-0.8,9.5l-4.4,0.4l-0.9,9.9l1.3-0.1l-0.3,2.5l-0.2,1.4l-0.3,1.1l-0.4,0.8l-0.8,0.8l-1.1,0.5l-1.5,0.3l-5.7,0.6l2.5-6.6l1.1-10.5
	l-4.4,0.4l1.2-9.6L240.4,134.4z M241,133.8l-0.9,10.6l-4.4,0.4l-0.8,8.9l1.4-0.1l-0.4,3.2l-0.2,1.4l-0.3,1.1l-0.4,0.8l-0.9,0.9
	l-1.3,0.7l-1.6,0.3l-6.6,0.6l2.8-7.3l1.1-9.8l-4.4,0.4l1.3-10.7L241,133.8z M194.9,143.5l-1.6,16.7l-0.2,1.1l-0.2,1.1l-0.4,1v0l0,0
	l-0.7,1.1l-0.8,0.7l-0.9,0.3l-11.5,1.1l2.5-6.6l1.4-15.3l-2.6-4.6l12.5-1.2L194.9,143.5z M195.5,143.4l-1.5,16.8l-0.2,1.1l-0.3,1.1
	l-0.4,1.1l0,0l0,0l-0.8,1.3l-1,0.8l-1.1,0.4l-12.4,1.2l2.8-7.3l1.4-15l-2.9-5.1l13.7-1.3L195.5,143.4z M116.9,146.5l-0.5,7l-1.1,0.1
	l0.3,12.4l1.3-0.1l-0.2,2.5l-0.2,1.4l-0.3,1.1l-0.4,0.8l-0.8,0.8l-1.1,0.5l-1.5,0.3l-3.3,0.3l0-6.3l-0.1,0l-1.1,6.4l-8.4,0.8
	l2.9-5.7l3.4-16.4l-2.2-4.6L116.9,146.5z M117.5,145.9l-0.6,8l-1,0.1l0.2,11.3l1.4-0.1l-0.3,3.2l-0.2,1.4l-0.3,1.1l-0.4,0.8
	l-0.9,0.9l-1.3,0.6l-1.6,0.4l-4,0.4l0-0.5l-0.1,0.5l-9.9,1l3.2-6.5l3.3-16.2l-2.4-5L117.5,145.9z M267.7,136.3l-1.5,16.6l-0.2,1.3
	l-0.3,1.1l-0.4,1l-0.7,1.2l-0.9,0.7l-1,0.3l-6.5,0.6l-2.3-4.5l1.6-17.3l0.3-1.2l0.4-1.1l0.7-0.9l0.8-0.8l0.9-0.5l0.9-0.3l6-0.6
	L267.7,136.3z M268.3,136.2l-1.5,16.7l-0.2,1.3l-0.3,1.2l-0.4,1.1l-0.8,1.3l-1,0.8l-1.2,0.4l-6.9,0.7l-2.5-5l1.6-17.4l0.2-1.3
	l0.5-1.2l0.7-1.1l0.9-0.9l1-0.6l1.1-0.3l6.4-0.6L268.3,136.2z M221.9,140.8l-0.5,5l-6.1,0.6l-0.6,6.4l6.1-0.6l-0.5,5.1l-0.2,1.3
	l-0.3,1.1l-0.4,1l-0.7,1.2l-0.9,0.7l-1,0.3l-6.5,0.6l-2.3-4.5l1.6-17.3l0.2-1.2l0.4-1.1l0.7-0.9l0.8-0.8l0.9-0.5l0.9-0.2l6.1-0.6
	L221.9,140.8z M222.5,140.7l-0.5,5.6l-6,0.6l-0.5,5.4l6-0.6l-0.6,5.7l-0.2,1.3l-0.3,1.2l-0.5,1.1l-0.8,1.3l-1,0.8l-1.2,0.4l-6.9,0.7
	l-2.5-5l1.6-17.4l0.2-1.3l0.5-1.2l0.7-1.1l0.9-0.9l1-0.6l1.1-0.3l6.5-0.6L222.5,140.7z M160.9,142.2l-0.5,7l-1.1,0.1l0.3,12.3
	l1.3-0.1l-0.2,2.5l-0.2,1.3l-0.3,1.1l-0.4,0.8h0l-0.8,0.8l-1.1,0.5l-1.5,0.3l-3.3,0.3l0.1-6.3l-0.1,0l-1.1,6.4l-8.5,0.8l2.9-5.7
	l3.4-16.4l-2.2-4.6L160.9,142.2z M161.5,141.6l-0.6,8l-1.1,0.1l0.2,11.3l1.4-0.1l-0.3,3.2l-0.2,1.4l-0.3,1.1l-0.4,0.8v0h0l-0.9,0.9
	l-1.3,0.7l-1.6,0.4l-4,0.4l0-0.2l0,0.2l-9.9,1l3.2-6.5l3.4-16.2l-2.5-5L161.5,141.6z M42.1,153.9l-0.8,9.6l-2.7,0.3l-0.6,6.7l-3,0.3
	l-0.3,3.2l1.3-0.1l-0.3,2.5l-0.3,1.6l-0.5,1.3l-0.7,0.9l-0.9,0.6l-1.1,0.3l-6.2,0.6l2.4-6.6l1.4-15.3l-2.6-4.6L42.1,153.9z
	 M42.7,153.3L41.8,164l-2.7,0.3l-0.6,6.6l-3,0.3l-0.2,2.2l1.3-0.1l-0.4,3.2l-0.2,1.3l-0.4,1.1l-0.4,0.9l-0.8,0.9l-1,0.6l-1.2,0.3
	l-7.1,0.7l2.7-7.3l1.4-15l-2.8-5.1L42.7,153.3z M76,167.9L76,167.9l-0.2,2L76,167.9z M83.4,154.6l-0.1,1.7l-0.1,1.6l-0.1,1.5
	l-0.1,1.5v0l0,0.2l-0.1,0.6l-0.1,0.5l-0.1,0.4l-0.3,0.6l-0.3,0.6l-0.4,0.6l-0.2,0.2l-0.2,0.2l-0.2,0.2l0.6,1l0.4,1l0.2,1l0,0.3
	l0,0.4l-0.1,0.6l1.2-0.1l-0.1,1.2L83,172l-0.2,1.3l-0.3,1l0,0l0,0.1l-0.7,1.1l-0.9,0.7l-1.2,0.3l-4.6,0.5l0.1-0.5l-0.5,0.3l-0.6,0.2
	l-0.7,0.1l-6.2,0.6l2.5-6.6l1.4-15.2l-2.6-4.6l12.2-1.1l2.6,4.1L83.4,154.6z M83.9,154.6l-0.1,1.7l-0.1,1.6l-0.1,1.5l-0.1,1.5v0.1
	l0,0.2l-0.1,0.6l-0.1,0.5l-0.1,0.5l-0.3,0.7l-0.4,0.7l-0.5,0.6l-0.1,0.1l-0.1,0.1l-0.1,0.1l0.6,0.9l0.4,1l0.2,1l0,0.2v0.3l0,0.3
	l1.2-0.1l-0.2,1.8l-0.2,1.7l-0.3,1.4l-0.3,1l0,0.1l0,0l-0.8,1.2l-1.1,0.8l-1.4,0.4l-5.3,0.5l0-0.1l-0.3,0.1l-0.3,0.1l-0.4,0.1
	l-7.1,0.7L69,171l1.4-15l-2.9-5.2l13.5-1.3l2.9,4.5L83.9,154.6z M286.8,129.8l-0.7,7.3l-0.8,0.1l-1.3,13.4l-0.2,1.8l-0.3,1.3
	l-0.3,0.9l-0.7,1.1l-0.9,0.7l-1.2,0.3l-2.7,0.3l-1.2-5.6l-0.5,5.8l-7.8,0.8l2.4-6.6l1.4-15.2l-2.6-4.6l8.6-0.9l1.2,5.4l0.5-5.6
	L286.8,129.8z M287.4,129.2l-0.9,8.3l-0.8,0.1l-1.2,13h0l-0.2,1.8l-0.3,1.4l-0.3,1l-0.3,0.6L283,156l-0.5,0.5l-0.6,0.4l-0.7,0.3
	l-0.8,0.2l-3.2,0.3l-0.5-2.4l-0.2,2.5l-9.2,0.9l2.7-7.3l1.4-15l-2.9-5.1l9.9-1l0.5,2.2l0.2-2.3L287.4,129.2z M252.6,133.2l-0.7,6.8
	l-0.7,0.1l-1.2,12.7l1.4-0.1l-0.3,2.5l-0.3,1.6l-0.5,1.3l-0.7,0.9l-0.9,0.6l-1.1,0.3l-6.2,0.6l2.5-6.6l1.4-15.2l-2.5-4.6
	L252.6,133.2z M253.2,132.6l-0.8,7.8l-0.7,0.1l-1.1,11.6l1.4-0.1l-0.4,3.2l-0.2,1.3l-0.3,1.1l-0.4,0.9l-0.8,0.9l-1,0.6l-1.2,0.3
	l-7.1,0.7l2.8-7.3l1.4-15l-2.8-5.1L253.2,132.6z M206.6,137.7l-0.7,6.8l-0.7,0.1l-1.2,12.7l1.3-0.1l-0.3,2.6l-0.3,1.6l-0.5,1.3
	l-0.7,0.9l-0.9,0.6l-1.1,0.3l-6.2,0.6l2.5-6.6l1.4-15.2l-2.6-4.6L206.6,137.7z M207.2,137.1l-0.8,7.8l-0.7,0.1l-1.1,11.6l1.4-0.1
	l-0.4,3.2l-0.2,1.3l-0.3,1.1l-0.5,0.9l-0.8,0.9l-1,0.6l-1.2,0.3l-7.1,0.7l2.7-7.3l1.4-15l-2.8-5.1L207.2,137.1z M178.7,145.1
	l-1.6,16.6l-0.2,1.1l-0.2,1.1l-0.4,1v0l0,0l-0.7,1.1l-0.8,0.7l-0.9,0.3l-11.5,1.1l2.5-6.6l1.4-15.2l-2.6-4.6l12.5-1.2L178.7,145.1z
	 M179.3,145l-1.6,16.8l-0.2,1.1l-0.3,1.1l-0.4,1.1l0,0l0,0l-0.8,1.3l-1,0.8l-1.1,0.4l-12.4,1.2l2.8-7.3l1.4-15l-2.9-5.1l13.7-1.3
	L179.3,145z M135.3,149.4l-1.6,16.6l-0.2,1.1l-0.2,1.1l-0.4,1v0l0,0l-0.7,1.1l-0.8,0.7l-0.9,0.3l-11.5,1.1l2.4-6.6l1.4-15.2
	l-2.6-4.6l12.4-1.2L135.3,149.4z M135.8,149.3l-1.6,16.8l-0.2,1.1l-0.3,1.1l-0.4,1.1l0,0v0l-0.8,1.3l-1,0.8l-1.1,0.4l-12.3,1.2
	l2.7-7.3l1.4-15l-2.8-5.1l13.7-1.3L135.8,149.3z M100,152.8l-1.5,16.6l-0.2,1.2l-0.3,1.1l-0.4,1.1v0l-0.7,1.1l-0.9,0.7l-1,0.3
	l-6.5,0.6l-2.3-4.5l1.6-17.3l0.2-1.2l0.4-1.1l0.7-1l0.8-0.8l0.8-0.5l0.9-0.3l6-0.6L100,152.8z M100.6,152.7l-1.5,16.7l-0.2,1.2
	l-0.3,1.2l-0.4,1.1h0v0l-0.8,1.3l-1,0.8l-1.2,0.4l-6.9,0.7l-2.5-5l1.6-17.4l0.2-1.3l0.5-1.2l0.7-1.1l0.9-0.9l1-0.6l1.1-0.3l6.5-0.6
	L100.6,152.7z M59.2,152.2l-0.8,9.6l-2.8,0.3l-0.6,6.7l-3,0.3l-0.3,3.2l1.3-0.1l-0.2,2.5l-0.3,1.6l-0.5,1.3l-0.7,0.9l-0.9,0.6
	l-1.1,0.3l-6.2,0.6l2.4-6.6l1.4-15.2l-2.6-4.6L59.2,152.2z M59.8,151.7l-0.9,10.6l-2.8,0.3l-0.6,6.6l-3,0.3l-0.2,2.2l1.3-0.1
	l-0.3,3.2l-0.2,1.3l-0.3,1.1l-0.4,0.9l-0.8,0.9l-1,0.6l-1.2,0.3l-7.1,0.7l2.7-7.3l1.4-15l-2.9-5.1L59.8,151.7z M262.6,138.2
	l-2.1,0.2l-1.4,14.4l2.1-0.2L262.6,138.2z M239.1,135.6l-0.7,7.5l-3.2,0.3l0.3-2.6l-1.3,0.1l-1.3,14.6l1.3-0.1l-0.2,1.3l-0.2,1.2
	l-0.2,0.9l-0.3,0.6l-0.6,0.6l-0.8,0.4l-1.1,0.2l-4,0.4l2-5.2l1.6-14.5l-1.2,0.1L229,144l-3.1,0.3l0.9-7.5L239.1,135.6z M193.8,143.7
	l-1.5,16.4l-0.1,1.1l-0.2,1l-0.3,0.9l-0.4,0.8l-0.5,0.5l-0.5,0.2l-9.8,1l2-5.2l1.5-15.6l-2-3.5l10-1L193.8,143.7z M173.5,146.9
	l-2.2,0.2l-1.4,14.3l2.2-0.2L173.5,146.9z M20.6,162l-2.1,0.2l-1.4,14.4l2.1-0.2L20.6,162z M78.1,156.6l-2.2,0.2l-0.3,4.1l2.1-0.2
	L78.1,156.6z M115.7,147.7l-0.4,4.9l-1.2,0.1l0.3,14.4l1.2-0.1l-0.1,1.3l-0.2,1.2l-0.2,0.9l-0.3,0.6l-0.6,0.6l-0.9,0.4l-1.1,0.2
	l-2.1,0.2l0-6.3l-2.2,0.2l-1.1,6.4l-5.6,0.6l2.1-4.2l3.5-16.8l-1.7-3.5L115.7,147.7z M94.8,154.7l-2.2,0.2l-1.4,14.4l2.1-0.2
	L94.8,154.7z M266.5,136.5l-1.5,16.3l-0.2,1.1l-0.3,1l-0.4,1l-0.5,0.8l-0.5,0.5l-0.6,0.2l-5.7,0.6l-1.8-3.6l1.6-17l0.2-1l0.4-0.9
	l0.5-0.8l0.6-0.6l0.6-0.4l0.6-0.2l5.2-0.5L266.5,136.5z M220.7,141l-0.3,3.8l-3.9,0.4l0.2-2.6l-2.1,0.2l-1.4,14.4l2.1-0.2l0.3-3.3
	l3.9-0.4l-0.4,3.9l-0.2,1.1l-0.2,1l-0.4,1l-0.5,0.8l-0.5,0.5l-0.6,0.2l-5.7,0.6l-1.8-3.6l1.6-17l0.2-1l0.4-0.9l0.5-0.8l0.6-0.6
	l0.6-0.4l0.6-0.2l5.3-0.5L220.7,141z M159.7,143.4l-0.4,4.9l-1.2,0.1l0.3,14.4l1.2-0.1l-0.2,1.3l-0.2,1.2l-0.2,0.9l-0.3,0.6
	l-0.6,0.6l-0.9,0.4l-1.1,0.2l-2.1,0.2l0.1-6.3L152,162l-1.1,6.4l-5.6,0.6l2.1-4.2l3.5-16.8l-1.7-3.5L159.7,143.4z M130.1,151.2
	l-2.2,0.2l-1.4,14.3l2.2-0.2L130.1,151.2z M40.8,155.1l-0.6,7.5l-3.6,0.4l0.3-2.7l-2.1,0.2l-0.5,4.7l3-0.3l-0.4,4.6l-2.9,0.3
	l-0.5,5.3l1.3-0.1l-0.2,1.3l-0.4,2l-0.8,1.3l-1.2,0.5l-4.5,0.4l1.9-5.2l1.5-15.6l-2-3.5L40.8,155.1z M82.2,154.5l-0.1,1.3l-0.1,1.5
	l-0.1,1.7l-0.1,1.9l-0.1,0.5l-0.1,0.5l-0.2,0.5l-0.2,0.5l-0.3,0.5l-0.4,0.5l-0.3,0.3l-0.5,0.3l-0.6,0.3l0.9,1l0.6,1.1l0.3,1.1l0,0.4
	l-0.1,0.8l-0.1,1.2l1.3-0.1l-0.2,1.6l-0.2,1.2l-0.3,0.8l-0.5,0.7l-0.6,0.5l-0.8,0.2l-3.2,0.3l0.9-8.3l-2.2-1.7l-0.5,5.3l1.2-0.1
	l-0.2,1.6l-0.2,1.2l-0.3,0.8l-0.4,0.7l-0.6,0.5l-0.8,0.2l-4.5,0.4l2-5.2l1.5-15.6l-2-3.5l9.8-0.9L82.2,154.5z M285.5,131l-0.5,5.2
	l-0.8,0.1l-1.4,14.3l-0.2,1.6l-0.2,1.2l-0.3,0.8l-0.4,0.7l-0.6,0.5l-0.8,0.2l-1.7,0.2l-2.6-12.1l-1.2,12.4l-5.1,0.5l1.9-5.2
	l1.5-15.6l-2-3.5l5.9-0.6l2.7,11.8l1.1-12.1L285.5,131z M251.3,134.3l-0.5,4.7l-0.7,0.1l-1.4,14.8l1.3-0.1l-0.2,1.3l-0.4,2l-0.8,1.3
	l-1.1,0.5l-4.4,0.4l2-5.2l1.4-15.6l-1.9-3.5L251.3,134.3z M205.3,138.9l-0.5,4.7l-0.7,0.1l-1.4,14.8l1.3-0.1l-0.2,1.3l-0.4,2
	l-0.8,1.3l-1.2,0.5l-4.4,0.4l2-5.2l1.4-15.6l-2-3.5L205.3,138.9z M189.8,145.3l-2.1,0.2l-1.4,14.3l2.2-0.2L189.8,145.3z
	 M177.5,145.3l-1.5,16.4l-0.2,1.1l-0.2,1l-0.3,0.9l-0.4,0.8l-0.5,0.5l-0.5,0.2l-9.8,1l2-5.2l1.5-15.6l-2-3.5l10-1L177.5,145.3z
	 M154.3,148.5l-1.5,8.6l1.4-0.1L154.3,148.5z M134.1,149.6l-1.5,16.4l-0.1,1.1l-0.2,1l-0.3,0.9l-0.4,0.8l-0.5,0.5l-0.5,0.2l-9.7,1
	l1.9-5.2l1.5-15.6l-2-3.5l10-1L134.1,149.6z M110.4,152.8l-1.5,8.7l1.4-0.1L110.4,152.8z M98.8,153l-1.5,16.3l-0.2,1.1l-0.3,1
	l-0.4,1l-0.5,0.8l-0.5,0.5l-0.6,0.2l-5.7,0.6l-1.8-3.6l1.6-17l0.2-1l0.4-0.9l0.5-0.8l0.6-0.6l0.6-0.4l0.6-0.2l5.2-0.5L98.8,153z
	 M57.9,153.4l-0.7,7.5l-3.6,0.4l0.2-2.7l-2.1,0.2l-0.4,4.7l3-0.3l-0.4,4.6l-3,0.3l-0.5,5.3l1.2-0.1l-0.1,1.3l-0.4,2l-0.8,1.3
	l-1.1,0.5l-4.5,0.4l1.9-5.2l1.5-15.6l-2-3.5L57.9,153.4z M24.6,160.3l-1.5,16.2l-0.2,1.1l-0.3,1l-0.4,1l-0.5,0.8l-0.6,0.5l-0.6,0.2
	l-5.7,0.6l-1.8-3.6l1.6-17l0.2-1l0.3-0.9l0.5-0.8l0.6-0.6l0.6-0.4l0.6-0.2l5.2-0.5L24.6,160.3z M25.8,160.1l-1.5,16.5l-0.2,1.2
	l-0.3,1.1l-0.5,1.1l0,0l0,0l-0.8,1.1l-0.9,0.7l-1,0.3l-6.5,0.6l-2.3-4.5l1.6-17.3l0.2-1.2l0.4-1.1l0.6-1h0l0.8-0.8l0.9-0.5l0.9-0.2
	l6-0.6L25.8,160.1z M26.4,160l-1.5,16.7l-0.2,1.3l-0.3,1.2l-0.4,1.2l0,0v0l-0.9,1.3l-1,0.8l-1.2,0.4l-6.9,0.7l-2.5-5l1.7-17.4
	l0.2-1.3l0.4-1.2l0.7-1.1h0l0,0l0.9-0.9l1-0.6l1-0.3l6.4-0.6L26.4,160z M24.6,160.3l-1.5,16.2l-0.2,1.1l-0.3,1l-0.4,1l-0.5,0.8
	l-0.6,0.5l-0.6,0.2l-5.7,0.6l-1.8-3.6l1.6-17l0.2-1l0.3-0.9l0.5-0.8l0.6-0.6l0.6-0.4l0.6-0.2l5.2-0.5L24.6,160.3z M285.5,131
	l-0.5,5.2l-0.8,0.1l-1.4,14.3l-0.2,1.6l-0.2,1.2l-0.3,0.8l-0.4,0.7l-0.6,0.5l-0.8,0.2l-1.7,0.2l-2.6-12.1l-1.2,12.4l-5.1,0.5
	l1.9-5.2l1.5-15.6l-2-3.5l5.9-0.6l2.7,11.8l1.1-12.1L285.5,131z M262.6,138.2l-2.1,0.2l-1.4,14.4l2.1-0.2L262.6,138.2z M266.5,136.5
	l-1.5,16.3l-0.2,1.1l-0.3,1l-0.4,1l-0.5,0.8l-0.5,0.5l-0.6,0.2l-5.7,0.6l-1.8-3.6l1.6-17l0.2-1l0.4-0.9l0.5-0.8l0.6-0.6l0.6-0.4
	l0.6-0.2l5.2-0.5L266.5,136.5z M251.3,134.4l-0.5,4.7l-0.7,0.1l-1.4,14.8l1.3-0.1l-0.2,1.3l-0.4,2l-0.8,1.3l-1.1,0.5l-4.4,0.4l2-5.2
	l1.4-15.6l-1.9-3.5L251.3,134.4z M239.1,135.6l-0.7,7.5l-3.2,0.3l0.3-2.6l-1.3,0.1l-1.3,14.6l1.3-0.1l-0.2,1.3l-0.2,1.2l-0.2,0.9
	l-0.3,0.6l-0.6,0.6l-0.8,0.4l-1.1,0.2l-4,0.4l2-5.2l1.6-14.5l-1.2,0.1L229,144l-3.1,0.3l0.9-7.5L239.1,135.6z M220.7,141l-0.3,3.8
	l-3.9,0.4l0.2-2.6l-2.1,0.2l-1.4,14.4l2.1-0.2l0.3-3.3l3.9-0.4l-0.4,3.9l-0.2,1.1l-0.2,1l-0.4,1l-0.5,0.8l-0.5,0.5l-0.6,0.2
	l-5.7,0.6l-1.8-3.6l1.6-17l0.2-1l0.4-0.9l0.5-0.8l0.6-0.6l0.6-0.4l0.6-0.2l5.3-0.5L220.7,141z M205.3,138.9l-0.5,4.7l-0.7,0.1
	l-1.4,14.8l1.3-0.1l-0.2,1.3l-0.4,2l-0.8,1.3l-1.2,0.5l-4.4,0.4l2-5.2l1.4-15.6l-2-3.5L205.3,138.9z M189.7,145.3l-2.1,0.2
	l-1.4,14.3l2.2-0.2L189.7,145.3z M193.7,143.7l-1.5,16.4l-0.1,1.1l-0.2,1l-0.3,0.9l-0.4,0.8l-0.5,0.5l-0.5,0.2l-9.8,1l2-5.2
	l1.5-15.6l-2-3.5l10-1L193.7,143.7z M173.5,146.9l-2.2,0.2l-1.4,14.3l2.2-0.2L173.5,146.9z M177.5,145.3l-1.5,16.4l-0.2,1.1l-0.2,1
	l-0.3,0.9l-0.4,0.8l-0.5,0.5l-0.5,0.2l-9.8,1l2-5.2l1.5-15.6l-2-3.5l10-1L177.5,145.3z M154.3,148.5l-1.5,8.6l1.4-0.1L154.3,148.5z
	 M159.7,143.4l-0.4,4.9l-1.2,0.1l0.3,14.4l1.2-0.1l-0.2,1.3l-0.2,1.2l-0.2,0.9l-0.3,0.6l-0.6,0.6l-0.9,0.4l-1.1,0.2l-2.1,0.2
	l0.1-6.3L152,162l-1.1,6.4l-5.6,0.6l2.1-4.2l3.5-16.8l-1.7-3.5L159.7,143.4z M130.1,151.2l-2.2,0.2l-1.4,14.3l2.2-0.2L130.1,151.2z
	 M134.1,149.6l-1.5,16.4l-0.1,1.1l-0.2,1l-0.3,0.9l-0.4,0.8l-0.5,0.5l-0.5,0.2l-9.7,1l1.9-5.2l1.5-15.6l-2-3.5l10-1L134.1,149.6z
	 M110.4,152.8l-1.5,8.7l1.4-0.1L110.4,152.8z M115.6,147.7l-0.4,4.9l-1.2,0.1l0.3,14.4l1.2-0.1l-0.1,1.3l-0.2,1.2l-0.2,0.9l-0.3,0.6
	l-0.6,0.6l-0.9,0.4l-1.1,0.2l-2.1,0.2l0-6.3l-2.2,0.2l-1.1,6.4l-5.6,0.6l2.1-4.2l3.5-16.8l-1.7-3.5L115.6,147.7z M94.8,154.7
	l-2.2,0.2l-1.4,14.4l2.1-0.2L94.8,154.7z M98.8,153l-1.5,16.3l-0.2,1.1l-0.3,1l-0.4,1l-0.5,0.8l-0.5,0.5l-0.6,0.2l-5.7,0.6l-1.8-3.6
	l1.6-17l0.2-1l0.4-0.9l0.5-0.8l0.6-0.6l0.6-0.4l0.6-0.2l5.2-0.5L98.8,153z M78.1,156.6l-2.2,0.2l-0.3,4.1l2.1-0.2L78.1,156.6z
	 M82.2,154.5l-0.1,1.3l-0.1,1.5l-0.1,1.7l-0.1,1.9l-0.1,0.5l-0.1,0.5l-0.2,0.5l-0.2,0.5l-0.3,0.5l-0.4,0.5l-0.3,0.3l-0.5,0.3
	l-0.6,0.3l0.9,1l0.6,1.1l0.3,1.1l0,0.4l-0.1,0.8l-0.1,1.2l1.3-0.1l-0.2,1.6l-0.2,1.2l-0.3,0.8l-0.5,0.7l-0.6,0.5l-0.8,0.2l-3.2,0.3
	l0.9-8.3l-2.2-1.7l-0.5,5.3l1.2-0.1l-0.2,1.6l-0.2,1.2l-0.3,0.8l-0.4,0.7l-0.6,0.5l-0.8,0.2l-4.5,0.4l2-5.2l1.5-15.6l-2-3.5l9.8-0.9
	L82.2,154.5z M57.9,153.4l-0.7,7.5l-3.6,0.4l0.2-2.7l-2.1,0.2l-0.4,4.7l3-0.3l-0.4,4.6l-3,0.3l-0.5,5.3l1.2-0.1l-0.1,1.3l-0.4,2
	l-0.8,1.3l-1.1,0.5l-4.5,0.4l1.9-5.2l1.5-15.6l-2-3.5L57.9,153.4z M40.8,155.1l-0.6,7.5l-3.6,0.4l0.3-2.7l-2.1,0.2l-0.5,4.7l3-0.3
	l-0.4,4.6l-2.9,0.3l-0.5,5.3l1.3-0.1l-0.2,1.3l-0.4,2l-0.8,1.3l-1.2,0.5l-4.5,0.4l1.9-5.2l1.5-15.6l-2-3.5L40.8,155.1z M20.6,162
	l-2.1,0.2l-1.4,14.4l2.1-0.2L20.6,162z"/>
</svg>
