<svg id="Layer_1" data-name="Layer 1" xmlns="http://www.w3.org/2000/svg" viewBox="0 0 427.489 278.129"><title>ORA_LOGO_grey</title><path d="M97.359,221.113a10.107,10.107,0,0,0,9.242-6.705l4.569-12.671-3.744.368-4.021,11.151c-1.436,3.594-5.13,5.381-8.251,4L69.409,205.843l-6.845.673,31.218,13.841A8.69,8.69,0,0,0,97.359,221.113Z" transform="translate(-16.257)" style="fill:none"/><path d="M404.344,192.087c1.433,3.593.062,7.631-3.055,9.018L364.85,217.254c-3.123,1.383-6.815-.4-8.246-4l-12.416-34.428-3.49.343,12.7,35.237a10.124,10.124,0,0,0,9.244,6.705,8.748,8.748,0,0,0,3.586-.756L402.668,204.2c4.73-2.1,6.9-8.036,4.865-13.269l-5.9-17.754-3.461.34Z" transform="translate(-16.257)" style="fill:none"/><path d="M132.491,105.507c1.767.756,3.567,1.529,5.364,2.3C136.212,107.085,133.942,106.09,132.491,105.507Z" transform="translate(-16.257)" style="fill:none"/><path d="M316.554,139.246a6.778,6.778,0,0,1-1.538,7.417l-33.191,32.415a6.784,6.784,0,0,1-4.741,1.929H182.927a6.8,6.8,0,0,1-4.75-1.929L145,146.663a6.779,6.779,0,0,1-1.552-7.417c.014-.028-3.563-1.58-5.23-2.5l-23.3,64.623,222.3-21.855L321.8,136.746C320.126,137.666,316.549,139.218,316.554,139.246Z" transform="translate(-16.257)" style="fill:none"/><path d="M443.746,0H23.256l-.5,210.43,32.971-3.242c-6.182-2.908-9.047-10.6-6.455-17.4l29.378-88.428c-2.4,2.377-28.375,24.673-28.375,24.673L83.066,48.15s19.913,11.9,34.784,21.345l39.358-43.383H302.8L342.156,69.5c14.871-9.449,34.782-21.345,34.782-21.345l32.792,77.882s-25.978-22.3-28.371-24.673l23.744,71.48,38.643-3.8Z" transform="translate(-16.257)" style="fill:none"/><path d="M58.72,201.105c-3.121-1.387-4.489-5.425-3.052-9.018l30.041-90.436c1.518-3.6,5.409-5.385,8.7-4l34.906,14.691a19.077,19.077,0,0,1,.058-2.092,17.794,17.794,0,0,1,1.4-5.465c.579.237,1.144.5,1.722.727-16.72-7.161-31.718-13.567-38.609-16.469-5.678-2.386-9.438-1.833-13.305,1.417-2.738,2.3-13.344,13.1-13.344,13.1L86.627,57.978c13.169,7.3,122.205,77.883,122.205,77.883l-6.162-.209-16.281-7c-6.266,4.531-16.06,7.224-26.847,6.759-10.268-.311-19.1-4.084-24.522-9.832l-27.594,76.528,3.744-.368,25.282-70.116a39.462,39.462,0,0,0,18,6.786h-4.718a3.4,3.4,0,0,0-2.371,5.832l33.187,32.411a3.409,3.409,0,0,0,2.376.96h94.157a3.388,3.388,0,0,0,2.371-.96l33.188-32.411a3.4,3.4,0,0,0-2.372-5.832h-4.716a39.441,39.441,0,0,0,18-6.786l17.143,47.55,3.49-.343-19.1-52.977c-5.445,5.595-14.162,9.251-24.269,9.558-10.782.465-20.582-2.228-26.842-6.759-9.821,4.223-16.279,7-16.279,7l-6.167.209S360.564,65.279,373.732,57.978l19.391,45.577s-10.6-10.8-13.344-13.1c-3.865-3.25-7.625-3.8-13.3-1.417-6.9,2.9-21.892,9.308-38.613,16.469.579-.23,1.147-.49,1.725-.727a18.05,18.05,0,0,1,1.393,5.465,18.954,18.954,0,0,1,.06,1.944l34.56-14.543c3.286-1.38,7.174.408,8.692,4l23.878,71.869,3.461-.34-24.116-72.6c-.034-.085-.057-.166-.092-.248a10.427,10.427,0,0,0-9.51-6.544,10.032,10.032,0,0,0-3.789.575,40.975,40.975,0,0,1,3.664-2.2c4.361-1.818,6.676-1.743,9.8.887,2.146,1.805,23.668,21.436,23.668,21.436l-25.908-61.4S322.533,84.93,322.428,85l17.14-13.736L301.283,29.526H158.721L120.44,71.263,137.577,85c-.1-.069-52.921-31.913-52.921-31.913l-25.907,61.4S80.267,94.858,82.414,93.053c3.126-2.63,5.437-2.7,9.8-.887a41.482,41.482,0,0,1,3.668,2.2,10.049,10.049,0,0,0-3.794-.575,10.414,10.414,0,0,0-9.5,6.544,2.5,2.5,0,0,0-.1.248L52.471,190.934c-2.033,5.233.137,11.169,4.877,13.269l5.216,2.313,6.845-.673ZM186.4,132.5l12.952,5.57H184.387a3.362,3.362,0,0,0-3.381,3.491l-1.132-1.667a3.4,3.4,0,0,0-2.81-1.489h-8.575A44.1,44.1,0,0,0,186.4,132.5Zm-3.476,41.719L149.735,141.8h27.329l22.013,32.419Zm19.51-.337c.535.064-17.76-32.419-17.76-32.419h26.051l7.856,32.419Zm18.751.111L216.022,141.8H243.33L238.171,174ZM184.435,77.5H275.28l-37.9,58.4H222.334Zm8.787,19.326-17.091-21.7-20.837-2.533H305.007l-20.8,2.369L267.078,96.83,281.555,74.2,178.9,74.08ZM310.271,141.8l-33.187,32.419H260.93L282.943,141.8Zm-36.664-9.3a44.115,44.115,0,0,0,17.907,5.905h-8.571a3.415,3.415,0,0,0-2.812,1.489L279,141.563a3.356,3.356,0,0,0-3.378-3.491H260.654Zm2.015,8.963s-18.292,32.483-17.759,32.419H241.717l7.853-32.419Zm-28.945-5.617h-5.745l45.117-57.8,45.064-4.839ZM126.685,69.2l33.439-36.272H299.588L333.025,69.2H126.685Zm2.209,4.005,45.067,4.839,45.112,57.8h-5.745Z" transform="translate(-16.257)" style="fill:none"/><path d="M327.867,105.507c-1.452.583-3.722,1.579-5.365,2.3Z" transform="translate(-16.257)" style="fill:none"/><path d="M179.874,139.9l1.132,1.667a3.362,3.362,0,0,1,3.381-3.491h14.968L186.4,132.5a44.1,44.1,0,0,1-17.914,5.905h8.575A3.4,3.4,0,0,1,179.874,139.9Z" transform="translate(-16.257)" style="fill:#424343"/><path d="M129.315,112.337,94.409,97.646c-3.291-1.38-7.182.408-8.7,4L55.668,192.087c-1.437,3.593-.069,7.631,3.052,9.018l10.689,4.738,38.017-3.738,27.594-76.528A19.849,19.849,0,0,1,129.315,112.337Z" transform="translate(-16.257)" style="fill:#424343"/><polygon points="202.815 135.848 157.704 78.045 112.636 73.206 197.071 135.848 202.815 135.848" style="fill:#424343"/><path d="M149.735,141.8l33.192,32.419h16.15L177.064,141.8Z" transform="translate(-16.257)" style="fill:#424343"/><polygon points="221.125 135.899 259.023 77.504 168.178 77.504 206.077 135.899 221.125 135.899" style="fill:#424343"/><polygon points="199.765 141.802 204.931 173.995 221.913 173.995 227.073 141.802 199.765 141.802" style="fill:#424343"/><polygon points="316.768 69.201 283.33 32.929 282.413 32.929 144.787 32.929 143.867 32.929 110.428 69.201 111.347 69.201 315.85 69.201 316.768 69.201" style="fill:#424343"/><path d="M278.555,139.753a3.4,3.4,0,0,1,.445,1.81l1.131-1.667a3.415,3.415,0,0,1,2.812-1.489h8.571a44.115,44.115,0,0,1-17.907-5.905l-12.953,5.57h14.968A3.379,3.379,0,0,1,278.555,139.753Z" transform="translate(-16.257)" style="fill:#424343"/><polygon points="265.297 74.204 250.821 96.83 267.948 74.963 288.749 72.594 139.037 72.594 159.873 75.127 176.965 96.83 162.646 74.08 265.297 74.204" style="fill:#424343"/><polygon points="224.674 135.848 230.419 135.848 314.856 73.206 269.791 78.045 224.674 135.848" style="fill:#424343"/><path d="M260.93,174.221h16.154L310.271,141.8H282.943Z" transform="translate(-16.257)" style="fill:#424343"/><path d="M241.717,173.884h16.146c-.533.064,17.759-32.419,17.759-32.419H249.57Z" transform="translate(-16.257)" style="fill:#424343"/><path d="M184.677,141.465s18.3,32.483,17.76,32.419h16.147l-7.856-32.419Z" transform="translate(-16.257)" style="fill:#424343"/><path d="M320.469,108.681a14.6,14.6,0,0,1,.685,3.294,14.546,14.546,0,0,0-.678-3.3Z" transform="translate(-16.257)" style="fill:none"/><polygon points="304.913 112.259 304.913 112.259 304.913 112.259 304.913 112.259" style="fill:none"/><path d="M321.586,112.306c-.133-.013-.26-.039-.4-.044h0C321.326,112.267,321.453,112.293,321.586,112.306Z" transform="translate(-16.257)" style="fill:none"/><path d="M318.041,122.664c.022.008.046.013.068.02-.022-.007-.046-.012-.068-.02Z" transform="translate(-16.257)" style="fill:none"/><path d="M318.014,122.656a.057.057,0,0,1,.027.008h0Z" transform="translate(-16.257)"/><polygon points="304.913 112.259 304.913 112.259 304.908 112.259 304.909 112.259 304.913 112.259"/><path d="M284.648,124.08c.1.1.209.2.315.309q.261.271.55.542c.126.119.26.23.4.35.181.153.364.309.55.461.144.11.286.222.427.328.2.152.412.3.621.444.14.094.279.194.425.291.282.179.571.358.87.522q.132.087.273.165c.362.2.726.392,1.11.574.138.066.284.13.429.2.264.124.535.237.815.352.162.068.327.132.489.2.279.1.557.2.839.3.164.055.322.111.484.162.328.1.666.2,1,.29.12.033.233.069.351.1.463.117.933.221,1.408.317.1.013.2.028.305.047.379.069.761.133,1.146.182.16.021.324.036.486.058.337.038.676.07,1.022.1.174.014.348.025.519.036.358.023.717.028,1.078.034.153,0,.307.011.465.011.5,0,1.026-.011,1.547-.043.379-.021.758-.051,1.133-.088.123-.01.248-.027.369-.042.254-.028.5-.06.756-.092.132-.021.266-.047.4-.064.243-.045.488-.09.73-.137.117-.025.232-.046.35-.074.279-.06.554-.126.83-.2.072-.021.144-.038.215-.055a19.549,19.549,0,0,0,10.66-7l.007-.009a5.249,5.249,0,0,1-3.761-4.332c-.25-2.87,2.343-5.552,5.781-6a7.492,7.492,0,0,1,1.124-.051h0c-.011-.089,0-.187-.011-.284a14.6,14.6,0,0,0-.685-3.294l.007-.007c.678-.289,1.35-.578,2.026-.867,1.643-.721,3.913-1.717,5.365-2.3,16.721-7.161,31.715-13.567,38.613-16.469,5.674-2.386,9.434-1.833,13.3,1.417,2.741,2.3,13.344,13.1,13.344,13.1L373.732,57.978c-13.168,7.3-122.205,77.883-122.205,77.883l6.167-.209s6.458-2.779,16.279-7c3.228-1.387,6.818-2.93,10.661-4.586A.024.024,0,0,1,284.648,124.08Z" transform="translate(-16.257)" style="fill:#424343"/><path d="M320.476,108.674a14.546,14.546,0,0,1,.678,3.3c.011.1.011.186.016.284h0a.12.12,0,0,0,.019,0v0c.136,0,.263.031.4.044a5.867,5.867,0,0,1,4.117,2.131l5.342-2.248a18.954,18.954,0,0,0-.06-1.944,18.05,18.05,0,0,0-1.393-5.465c-.578.237-1.146.5-1.725.727l-5.365,2.3C321.329,108.321,320.474,108.7,320.476,108.674Z" transform="translate(-16.257)" style="fill:#b0bc22"/><path d="M323.731,122.216a6.876,6.876,0,0,1-2.794.828,7.166,7.166,0,0,1-2.828-.36c-.022-.007-.046-.012-.068-.02a19.582,19.582,0,0,1-10.687,6.987c-.071.017-.143.034-.215.055-.276.069-.551.135-.83.2-.118.028-.233.049-.35.074-.242.047-.487.092-.73.137-.133.017-.267.043-.4.064-.254.032-.5.064-.756.092-.121.015-.246.032-.369.042-.375.037-.754.067-1.133.088-.521.032-1.042.043-1.547.043-.158,0-.312-.007-.465-.011-.361-.006-.72-.011-1.078-.034-.171-.011-.345-.022-.519-.036-.346-.028-.685-.06-1.022-.1-.162-.022-.326-.037-.486-.058-.385-.049-.767-.113-1.146-.182-.1-.019-.2-.034-.305-.047-.475-.1-.945-.2-1.408-.317-.118-.028-.231-.064-.351-.1-.339-.089-.677-.188-1-.29-.162-.051-.32-.107-.484-.162-.282-.1-.56-.2-.839-.3-.162-.064-.327-.128-.489-.2-.28-.115-.551-.228-.815-.352-.145-.066-.291-.13-.429-.2-.384-.182-.748-.376-1.11-.574q-.141-.078-.273-.165c-.3-.164-.588-.343-.87-.522-.146-.1-.285-.2-.425-.291-.209-.145-.416-.292-.621-.444-.141-.106-.283-.218-.427-.328-.186-.152-.369-.308-.55-.461-.135-.12-.269-.231-.4-.35q-.289-.27-.55-.542c-.106-.107-.214-.2-.315-.309,0,0-10.533,4.606-10.675,4.57,6.26,4.531,16.06,7.224,26.842,6.759,10.107-.307,18.824-3.963,24.269-9.558l-1.1-3.037C323.9,122.611,323.817,122.413,323.731,122.216Z" transform="translate(-16.257)" style="fill:#b0bc22"/><path d="M325.7,114.437a4.833,4.833,0,0,1,1.026,2.583,5.478,5.478,0,0,1-3,5.2c.086.2.172.4.257.6l1.1,3.037a19.907,19.907,0,0,0,5.961-13.662Z" transform="translate(-16.257)" style="fill:#b0bc22"/><path d="M320.476,108.674c0,.022.853-.353,2.026-.867C321.826,108.1,321.154,108.385,320.476,108.674Z" transform="translate(-16.257)" style="fill:#b0bc22"/><path d="M284.634,124.064c-3.843,1.656-7.433,3.2-10.661,4.586.142.036,10.675-4.57,10.675-4.57A.024.024,0,0,0,284.634,124.064Z" transform="translate(-16.257)" style="fill:#b0bc22"/><path d="M307.354,129.651a19.582,19.582,0,0,0,10.687-6.987.057.057,0,0,0-.027-.008A19.549,19.549,0,0,1,307.354,129.651Z" transform="translate(-16.257)" style="fill:#b7d433"/><path d="M321.154,111.975c.011.1,0,.2.011.284h0C321.165,112.161,321.165,112.072,321.154,111.975Z" transform="translate(-16.257)" style="fill:#b7d433"/><path d="M320.9,116.46l4.806-2.023a5.875,5.875,0,0,0-4.116-2.131c-.133-.013-.26-.039-.4-.044A15.11,15.11,0,0,1,320.9,116.46Z" transform="translate(-16.257)" style="fill:#ffef00"/><path d="M318.722,121.671c-.216.337-.44.671-.681.993.022.008.046.013.068.02a7.209,7.209,0,0,0,2.828.36,6.876,6.876,0,0,0,2.794-.828,52.911,52.911,0,0,0-2.867-5.635A15.615,15.615,0,0,1,318.722,121.671Z" transform="translate(-16.257)" style="fill:#ffef00"/><path d="M320.9,116.46c-.009.041-.023.08-.032.121a52.911,52.911,0,0,1,2.867,5.635,5.478,5.478,0,0,0,3-5.2,4.834,4.834,0,0,0-1.027-2.583Z" transform="translate(-16.257)" style="fill:#ffef00"/><path d="M318.722,121.671c-.216.334-.439.665-.679.985l-.022-.009-.007.009.027.008C318.282,122.342,318.506,122.008,318.722,121.671Z" transform="translate(-16.257)" style="fill:#ffef00"/><polygon points="304.908 112.259 304.908 112.259 304.909 112.259 304.908 112.259" style="fill:#ffef00"/><path d="M318.109,122.684a7.166,7.166,0,0,0,2.828.36A7.209,7.209,0,0,1,318.109,122.684Z" transform="translate(-16.257)" style="fill:#ffef00"/><path d="M321.586,112.306a5.875,5.875,0,0,1,4.116,2.131h0A5.867,5.867,0,0,0,321.586,112.306Z" transform="translate(-16.257)" style="fill:#ffef00"/><path d="M326.729,117.02a4.833,4.833,0,0,0-1.026-2.583h0A4.834,4.834,0,0,1,326.729,117.02Z" transform="translate(-16.257)" style="fill:#ffef00"/><path d="M321.17,112.26l.02,0h0l-.019,0h0Z" transform="translate(-16.257)" style="fill:#b0bc22"/><path d="M320.813,116.5l.055-.023a15.176,15.176,0,0,0,.3-4.213,7.492,7.492,0,0,0-1.124.051c-3.438.453-6.031,3.135-5.781,6a5.249,5.249,0,0,0,3.761,4.332,15.756,15.756,0,0,0,2.826-6.095C320.826,116.518,320.813,116.5,320.813,116.5Z" transform="translate(-16.257)" style="fill:#b0bc22"/><polygon points="304.909 112.259 304.913 112.26 304.913 112.259 304.909 112.259" style="fill:#b0bc22"/><path d="M320.813,116.5s.013.023.034.057c.006-.027.015-.053.021-.08Z" transform="translate(-16.257)" style="fill:#b0bc22"/><path d="M321.19,112.259a.12.12,0,0,1-.019,0l.019,0Z" transform="translate(-16.257)" style="fill:#b0bc22"/><path d="M318.722,121.671a15.615,15.615,0,0,0,2.142-5.09l-.011-.02A15.652,15.652,0,0,1,318.722,121.671Z" transform="translate(-16.257)" style="fill:#b0bc22"/><path d="M321.19,112.262l-.02,0a15.264,15.264,0,0,1-.293,4.208l.019-.008A15.11,15.11,0,0,0,321.19,112.262Z" transform="translate(-16.257)" style="fill:#b0bc22"/><path d="M320.853,116.561l.011.02c.009-.041.023-.08.032-.121l-.019.008C320.87,116.5,320.859,116.53,320.853,116.561Z" transform="translate(-16.257)" style="fill:#b0bc22"/><path d="M318.722,121.671a15.652,15.652,0,0,0,2.131-5.11l-.006-.009a15.756,15.756,0,0,1-2.826,6.095l.022.009C318.283,122.336,318.506,122.005,318.722,121.671Z" transform="translate(-16.257)" style="fill:#b0bc22"/><path d="M320.868,116.472l.009,0a15.264,15.264,0,0,0,.293-4.208h0A15.176,15.176,0,0,1,320.868,116.472Z" transform="translate(-16.257)" style="fill:#b0bc22"/><path d="M320.868,116.472c-.006.027-.015.053-.021.08l.006.009c.006-.031.017-.062.024-.093Z" transform="translate(-16.257)" style="fill:#b0bc22"/><path d="M139.882,108.674a14.764,14.764,0,0,0-.676,3.3,14.713,14.713,0,0,1,.684-3.294Z" transform="translate(-16.257)" style="fill:none"/><path d="M137,112.716c.04-.016.075-.039.115-.054C137.075,112.677,137.04,112.7,137,112.716Z" transform="translate(-16.257)" style="fill:none"/><path d="M139.17,112.262c-.186.006-.362.039-.543.06.181-.021.357-.054.543-.06Z" transform="translate(-16.257)" style="fill:none"/><polygon points="122.933 112.259 122.932 112.259 122.933 112.259 122.933 112.259" style="fill:none"/><path d="M142.3,122.67l.019-.006h0Z" transform="translate(-16.257)" style="fill:none"/><path d="M137.819,112.464c.1-.026.2-.064.3-.085C138.015,112.4,137.92,112.438,137.819,112.464Z" transform="translate(-16.257)" style="fill:none"/><path d="M133.635,117.02a4.96,4.96,0,0,1,.184-.978A4.96,4.96,0,0,0,133.635,117.02Z" transform="translate(-16.257)"/><path d="M139.2,112.259h0Z" transform="translate(-16.257)"/><path d="M142.318,122.664a.074.074,0,0,1,.028-.008l-.028.008Z" transform="translate(-16.257)"/><path d="M139.882,108.674l.008.007a14.713,14.713,0,0,0-.684,3.294c-.01.1,0,.2-.01.284h0a7.479,7.479,0,0,1,1.123.051c3.437.453,6.023,3.135,5.783,6a5.25,5.25,0,0,1-3.762,4.332l.006.009a19.548,19.548,0,0,0,10.658,7c.072.017.143.034.218.055.271.069.549.135.829.2.114.028.232.049.352.074.241.047.487.092.726.137.137.017.27.043.4.064.247.032.5.064.752.092.122.015.243.032.369.042.377.037.754.067,1.135.088.521.032,1.037.043,1.551.043.155,0,.307-.007.462-.011.363-.006.72-.011,1.072-.034.174-.011.348-.022.52-.036.346-.028.686-.06,1.022-.1.164-.022.329-.037.486-.058.391-.049.77-.113,1.146-.182.1-.019.207-.034.308-.047.477-.1.943-.2,1.4-.317.121-.028.236-.064.355-.1.338-.089.675-.188,1.009-.29.161-.051.318-.107.481-.162.282-.1.562-.2.84-.3.162-.064.327-.128.487-.2.277-.115.545-.228.818-.352.145-.066.288-.13.427-.2.382-.182.749-.376,1.109-.574.092-.052.185-.107.274-.165.3-.164.588-.343.872-.522.143-.1.278-.2.419-.291.213-.145.42-.292.62-.444.147-.106.288-.218.429-.328.19-.152.371-.308.553-.461.135-.12.266-.231.394-.35q.286-.27.551-.542c.105-.107.212-.2.312-.309,0-.007.008-.011.012-.016,3.848,1.656,7.437,3.2,10.668,4.586l16.281,7,6.162.209S99.8,65.279,86.627,57.978L67.233,103.555s10.606-10.8,13.344-13.1c3.867-3.25,7.627-3.8,13.305-1.417,6.891,2.9,21.889,9.308,38.609,16.469,1.451.583,3.721,1.578,5.364,2.3C138.534,108.1,139.2,108.383,139.882,108.674Z" transform="translate(-16.257)" style="fill:#424343"/><path d="M175.4,124.389q-.264.271-.551.542c-.128.119-.259.23-.394.35-.182.153-.363.309-.553.461-.141.11-.282.222-.429.328-.2.152-.407.3-.62.444-.141.094-.276.194-.419.291-.284.179-.572.358-.872.522-.089.058-.182.113-.274.165-.36.2-.727.392-1.109.574-.139.066-.282.13-.427.2-.273.124-.541.237-.818.352-.16.068-.325.132-.487.2-.278.1-.558.2-.84.3-.163.055-.32.111-.481.162-.334.1-.671.2-1.009.29-.119.033-.234.069-.355.1-.46.117-.926.221-1.4.317-.1.013-.2.028-.308.047-.376.069-.755.133-1.146.182-.157.021-.322.036-.486.058-.336.038-.676.07-1.022.1-.172.014-.346.025-.52.036-.352.023-.709.028-1.072.034-.155,0-.307.011-.462.011-.514,0-1.03-.011-1.551-.043-.381-.021-.758-.051-1.135-.088-.126-.01-.247-.027-.369-.042-.252-.028-.5-.06-.752-.092-.134-.021-.267-.047-.4-.064-.239-.045-.485-.09-.726-.137-.12-.025-.238-.046-.352-.074-.28-.06-.558-.126-.829-.2-.075-.021-.146-.038-.218-.055a19.59,19.59,0,0,1-10.686-6.987l-.019.006a7.172,7.172,0,0,1-2.877.374,6.849,6.849,0,0,1-3.076-.992q-.166.373-.33.762l-1,2.763c5.424,5.748,14.254,9.521,24.522,9.832,10.787.465,20.581-2.228,26.847-6.759-.143.036-10.68-4.57-10.68-4.57C175.609,124.184,175.5,124.282,175.4,124.389Z" transform="translate(-16.257)" style="fill:#b0bc22"/><path d="M137,112.716c.04-.016.075-.039.115-.054a6.191,6.191,0,0,1,.7-.2c.1-.026.2-.064.3-.085.164-.031.339-.037.508-.057s.357-.054.543-.06v0h.02c.006-.1.01-.187.016-.284a14.764,14.764,0,0,1,.676-3.3c0,.022-.853-.354-2.027-.868-1.8-.77-3.6-1.543-5.364-2.3-.578-.23-1.143-.49-1.722-.727a17.794,17.794,0,0,0-1.4,5.465,19.077,19.077,0,0,0-.058,2.092l5.267,2.216A5.505,5.505,0,0,1,137,112.716Z" transform="translate(-16.257)" style="fill:#b0bc22"/><path d="M136.016,122.814q.164-.388.33-.762a5.419,5.419,0,0,1-2.711-5.032,4.96,4.96,0,0,1,.184-.978,4.842,4.842,0,0,1,.763-1.489l-5.267-2.216a19.849,19.849,0,0,0,5.705,13.24Z" transform="translate(-16.257)" style="fill:#b0bc22"/><path d="M139.882,108.674c-.682-.291-1.348-.577-2.027-.868C139.029,108.32,139.885,108.7,139.882,108.674Z" transform="translate(-16.257)" style="fill:#b0bc22"/><path d="M175.709,124.08s10.537,4.606,10.68,4.57c-3.231-1.387-6.82-2.93-10.668-4.586C175.717,124.069,175.711,124.073,175.709,124.08Z" transform="translate(-16.257)" style="fill:#b0bc22"/><path d="M153,129.651a19.548,19.548,0,0,1-10.658-7,.074.074,0,0,0-.028.008A19.59,19.59,0,0,0,153,129.651Z" transform="translate(-16.257)" style="fill:#b7d433"/><path d="M139.206,111.975c-.006.1-.01.186-.016.284h.006C139.2,112.17,139.2,112.072,139.206,111.975Z" transform="translate(-16.257)" style="fill:#b7d433"/><path d="M142.3,122.67l.019-.006c-.322-.431-.615-.879-.892-1.335a15.266,15.266,0,0,1-2.256-9.067c-.186.006-.362.039-.543.06s-.344.026-.508.057c-.1.021-.2.059-.3.085a6.191,6.191,0,0,0-.7.2c-.04.015-.075.038-.115.054a5.5,5.5,0,0,0-2.417,1.837L139.2,116.5a52.994,52.994,0,0,0-2.85,5.557,6.849,6.849,0,0,0,3.076.992A7.228,7.228,0,0,0,142.3,122.67Z" transform="translate(-16.257)" style="fill:#ffef00"/><path d="M134.583,114.553a4.822,4.822,0,0,0-.764,1.489,4.96,4.96,0,0,0-.184.978,5.419,5.419,0,0,0,2.711,5.032,52.994,52.994,0,0,1,2.85-5.557Z" transform="translate(-16.257)" style="fill:#ffef00"/><path d="M141.426,121.329c.277.456.57.9.892,1.335l.028-.008-.006-.009-.022.009C142,122.227,141.7,121.782,141.426,121.329Z" transform="translate(-16.257)" style="fill:#ffef00"/><polygon points="122.939 112.259 122.939 112.259 122.937 112.259 122.939 112.259" style="fill:#ffef00"/><path d="M138.119,112.379c.164-.031.339-.037.508-.057C138.458,112.342,138.283,112.348,138.119,112.379Z" transform="translate(-16.257)" style="fill:#ffef00"/><path d="M137.115,112.662a6.191,6.191,0,0,1,.7-.2A6.191,6.191,0,0,0,137.115,112.662Z" transform="translate(-16.257)" style="fill:#ffef00"/><path d="M139.422,123.044a7.172,7.172,0,0,0,2.877-.374A7.228,7.228,0,0,1,139.422,123.044Z" transform="translate(-16.257)" style="fill:#ffef00"/><path d="M137,112.716a5.505,5.505,0,0,0-2.418,1.837h0A5.5,5.5,0,0,1,137,112.716Z" transform="translate(-16.257)" style="fill:#ffef00"/><path d="M134.582,114.553a4.842,4.842,0,0,0-.763,1.489,4.822,4.822,0,0,1,.764-1.489Z" transform="translate(-16.257)" style="fill:#ffef00"/><path d="M139.19,112.26h0l-.019,0h0Z" transform="translate(-16.257)" style="fill:#b0bc22"/><path d="M142.34,122.647a5.25,5.25,0,0,0,3.762-4.332c.24-2.87-2.346-5.552-5.783-6a7.479,7.479,0,0,0-1.123-.051A15.393,15.393,0,0,0,142.34,122.647Z" transform="translate(-16.257)" style="fill:#b0bc22"/><polygon points="122.933 112.259 122.933 112.26 122.937 112.259 122.933 112.259" style="fill:#b0bc22"/><path d="M139.17,112.259v0l.019,0A.12.12,0,0,1,139.17,112.259Z" transform="translate(-16.257)" style="fill:#b0bc22"/><path d="M139.19,112.26l-.02,0a15.266,15.266,0,0,0,2.256,9.067A15.312,15.312,0,0,1,139.19,112.26Z" transform="translate(-16.257)" style="fill:#b0bc22"/><path d="M139.19,112.26a15.312,15.312,0,0,0,2.236,9.069c.277.453.57.9.892,1.327l.022-.009a15.393,15.393,0,0,1-3.144-10.388h-.006Z" transform="translate(-16.257)" style="fill:#b0bc22"/><path d="M404.873,172.15l-23.514-70.791c2.393,2.377,28.371,24.673,28.371,24.673L376.938,48.15s-19.911,11.9-34.782,21.345L302.8,26.112H157.208L117.85,69.5C102.979,60.046,83.066,48.15,83.066,48.15l-32.79,77.882s25.977-22.3,28.375-24.673L49.273,189.787c-2.431,6.377-.061,13.542,5.344,16.807l-31.86,3.132-6.5,68.4,421.62-41.459,5.869-68.343ZM57.348,204.2c-4.74-2.1-6.91-8.036-4.877-13.269l30.017-90.356a2.5,2.5,0,0,1,.1-.248,10.414,10.414,0,0,1,9.5-6.544,10.049,10.049,0,0,1,3.794.575,41.482,41.482,0,0,0-3.668-2.2c-4.36-1.818-6.671-1.743-9.8.887-2.147,1.805-23.665,21.436-23.665,21.436l25.907-61.4S137.474,84.93,137.577,85L120.44,71.263l38.281-41.737H301.283l38.285,41.737L322.428,85c.105-.069,52.924-31.913,52.924-31.913l25.908,61.4s-21.522-19.631-23.668-21.436c-3.123-2.63-5.438-2.7-9.8-.887a40.975,40.975,0,0,0-3.664,2.2,10.032,10.032,0,0,1,3.789-.575,10.427,10.427,0,0,1,9.51,6.544c.035.082.058.163.092.248l23.886,71.913-3.461.34L374.3,101.651c-1.518-3.6-5.406-5.385-8.692-4l-34.56,14.543a19.907,19.907,0,0,1-5.961,13.662l18.857,52.291-3.49.343-16.9-46.864a39.441,39.441,0,0,1-18,6.786h4.716a3.4,3.4,0,0,1,2.372,5.832L279.455,176.65a3.388,3.388,0,0,1-2.371.96H182.927a3.409,3.409,0,0,1-2.376-.96l-33.187-32.411a3.4,3.4,0,0,1,2.371-5.832h4.718a39.462,39.462,0,0,1-18-6.786l-25.018,69.385-50.168,4.933ZM145,146.663l33.18,32.415a6.8,6.8,0,0,0,4.75,1.929h94.157a6.784,6.784,0,0,0,4.741-1.929l33.191-32.415a6.778,6.778,0,0,0,1.538-7.417c0-.028,3.572-1.58,5.243-2.5l15.172,42.082L115.176,200.639l23.039-63.893c1.667.92,5.244,2.472,5.23,2.5A6.779,6.779,0,0,0,145,146.663ZM434.592,233.43,20.2,274.172l5.818-61.2,413.827-40.695Z" transform="translate(-16.257)" style="fill:#424343"/><polygon points="415.707 230.832 7.094 271.014 12.364 215.568 420.467 175.433 415.707 230.832" style="fill:#424343"/><path d="M74.6,221.549l-.895,10.734-5.138.5.381-3.81-3.071.306-.664,6.748,4.3-.426-.594,6.581-4.21.406-.772,7.537,1.844-.184-.259,1.873-.6,2.9-1.105,1.836-1.668.734-6.4.635,2.726-7.444,2.1-22.334-2.8-4.98L74.6,221.549m-28.862,9.845-3.069.291-1.963,20.581,3.062-.3Zm5.659-2.377-2.1,23.2-.249,1.574-.381,1.5-.564,1.387-.736,1.173-.8.76-.867.3-8.125.793L34.95,254.57,37.3,230.228l.265-1.451.49-1.287.731-1.17.852-.8.835-.521.861-.217,7.415-.726Zm372.746-41.876-.783,7.429-1.14.1-1.942,20.451-.3,2.33-.3,1.758-.42,1.195-.6,1.043-.869.656-1.115.325-2.418.244L410.6,205.437,408.889,223.2l-7.323.731,2.77-7.457,2.1-22.325-2.8-4.99,8.425-.828,3.789,16.82,1.528-17.336ZM391.383,197.4l-3.024.307-1.966,20.627,3.033-.3Zm5.66-2.369-2.1,23.256-.248,1.58-.39,1.451-.576,1.383-.723,1.178-.77.746-.808.295-8.157.81-2.591-5.156,2.256-24.322.253-1.455.541-1.289.729-1.182.805-.791.873-.519.869-.219,7.465-.729Zm-21.7-3.082-.717,6.705-1.055.1-1.955,21.121,1.842-.191-.252,1.876-.6,2.9-1.149,1.84-1.619.738-6.353.627,2.8-7.447L368.3,197.9,365.59,192.9Zm-17.424,1.746-.949,10.683-4.561.448.469-3.76-1.889.184-1.894,20.836,1.846-.184-.264,1.873-.225,1.772-.3,1.267-.457.883-.8.834-1.178.559-1.574.281-5.664.568,2.816-7.464,2.265-20.7-1.759.175-.42,3.765-4.488.435,1.3-10.764ZM331.6,201.463l-.476,5.5-5.616.555.307-3.663-2.99.282-1.964,20.59,3.032-.309.464-4.693,5.579-.543-.569,5.552-.242,1.567-.351,1.459-.569,1.383-.719,1.177-.762.739-.861.308-8.125.8-2.638-5.149,2.273-24.326.285-1.465.5-1.275.769-1.187.8-.79.842-.516.862-.222,7.588-.747Zm-22.012-3.06-.717,6.71-1.06.106-1.949,21.119,1.844-.18-.261,1.873-.6,2.906-1.1,1.827-1.644.752-6.332.611,2.816-7.443,2.066-22.323-2.8-5.01Zm-22.23,9.181-3.064.31L282.221,228.3l3.153-.309Zm5.713-2.236L290.9,228.73l-.21,1.526-.342,1.4-.451,1.3-.643,1.117-.682.735-.763.3-13.965,1.362,2.812-7.444,2.112-22.324-2.8-4.994,14.26-1.408Zm-28.926,4.523-3.079.3-2.021,20.406,3.113-.3Zm5.761-2.254-2.189,23.4-.249,1.528-.341,1.412-.451,1.277-.643,1.117-.681.743-.77.283-13.957,1.383,2.82-7.453,2.1-22.321-2.8-5,14.259-1.4Zm-33.144,4.541-2.114,12.356,2.024-.192Zm7.6-7.344-.556,6.965-1.669.166.392,20.623,1.755-.179-.222,1.878-.222,1.754-.314,1.268-.446.887-.8.828-1.234.572-1.57.281-2.937.287.085-9.041-3.209.313-1.579,9.189-8.026.786,2.953-6.04,5.033-24.029-2.445-5.031Zm-42.224,11.161-3.16.3-2.022,20.41,3.206-.312Zm5.673-2.246-2.174,23.388-.2,1.52-.343,1.422-.467,1.275-.634,1.127-.677.73-.774.295-13.911,1.377,2.731-7.447,2.1-22.329-2.8-4.986,14.305-1.4Zm-33.849,4.6L171.816,230.7l2.021-.2Zm7.52-7.332-.548,6.957-1.676.166.439,20.619,1.708-.176-.164,1.869-.226,1.756-.329,1.276-.438.882-.808.838-1.223.563-1.529.277-2.974.3.028-9.045-3.2.321-1.573,9.185-7.991.8,3-6.055,4.991-24.033-2.446-5.027Zm-29.725,9.961-3.073.3-1.963,20.58,3.069-.289Zm5.709-2.377-2.147,23.248-.247,1.584-.392,1.455-.535,1.383-.713,1.17-.771.75-.858.3-8.128.8-2.623-5.138,2.3-24.336.22-1.448.538-1.279.765-1.2.8-.786.843-.525.916-.222,7.41-.73ZM127.848,223.8l-3.084.3L124.329,230l2.978-.289Zm5.854-3.061-.131,1.83-.145,2.153-.21,2.367-.172,2.672-.162.679-.159.725-.232.773-.323.739-.363.763-.553.653-.369.4-.655.455-.884.492,1.346,1.5.908,1.61.377,1.595.012.577-.11,1.113-.188,1.66,1.8-.174-.315,2.338-.307,1.754-.369,1.191-.646,1.041-.819.645-1.135.338-4.607.455,1.324-11.822-3.172-2.44-.664,7.559,1.751-.18-.3,2.334-.324,1.758-.414,1.187-.6,1.041-.862.67-1.133.321-6.4.636,2.807-7.461,2.12-22.316-2.808-4.99,14.055-1.348ZM99,219.158l-.932,10.721-5.089.5.283-3.8-3.026.291-.622,6.748,4.256-.4-.582,6.564-4.263.424-.676,7.512,1.749-.168-.162,1.865-.607,2.894-1.152,1.844-1.615.734-6.4.623,2.721-7.435,2.1-22.33-2.79-4.985ZM359.7,192.06l-1.187,13.62-6.319.632-1.308,14.135,1.879-.18-.44,3.616-.295,1.984-.381,1.5-.56,1.08-1.127,1.166-1.6.781-2.1.422-8.152.8,3.551-9.428,1.625-15-6.273.623,1.654-13.781Zm.9-.843L359.3,206.324l-6.33.619L351.773,219.6l1.932-.195-.572,4.537-.287,2.065-.463,1.6-.592,1.211-1.291,1.319-1.805.931-2.349.5-9.441.928,3.95-10.449,1.535-14.059-6.318.628,1.87-15.223ZM294.776,205.04l-2.229,23.79-.244,1.588-.339,1.527-.517,1.481,0,.043-.04.039-.948,1.6-1.194,1-1.326.436-16.459,1.625,3.557-9.385L277.068,207l-3.666-6.557,17.817-1.754Zm.822-.162-2.2,24.014-.24,1.61-.418,1.592-.517,1.558.009.043-.043.051-1.152,1.83-1.389,1.205-1.624.512-17.731,1.758,3.936-10.414,2-21.471-4.078-7.3,19.522-1.92Zm-112.326,4.434-.784,10.012-1.54.141.358,17.652,1.893-.195-.353,3.631-.253,1.968-.424,1.51-.52,1.072-1.124,1.174-1.611.776-2.121.435-4.743.467.045-9.057-.086.02-1.633,9.189L158.31,249.3l4.073-8.149,4.873-23.431-3.117-6.521Zm.9-.79-.912,11.421-1.451.145.3,16.193,2.023-.205-.441,4.524-.293,2.07-.45,1.6-.595,1.2-1.29,1.332-1.813.918-2.34.511-5.666.545-.027-.7-.1.709-14.134,1.4,4.631-9.279,4.773-23.111-3.455-7.188Zm214.569-13.794L396.6,218.391l-.282,1.8-.443,1.588-.623,1.477-1.033,1.66-1.225,1.016-1.42.443-9.3.908-3.293-6.41,2.312-24.736.365-1.716.6-1.562.936-1.332,1.076-1.127,1.267-.738,1.336-.363,8.6-.849Zm.834-.166L397.393,218.4l-.307,1.887-.453,1.729-.639,1.527-1.207,1.84-1.418,1.207-1.736.525-9.912.969-3.571-7.076,2.336-24.924.344-1.849.688-1.669.961-1.5,1.291-1.239,1.423-.849,1.6-.379,9.176-.9Zm-66.279,6.6-.666,7.115-8.651.854-.865,9.205,8.647-.844-.746,7.336-.263,1.8-.47,1.605-.6,1.471-1.029,1.662-1.244,1.006-1.4.449-9.321.916-3.247-6.418,2.309-24.736.32-1.717.6-1.561.934-1.336,1.136-1.127,1.216-.747,1.336-.346,8.728-.857Zm.832-.166-.733,7.964-8.64.849-.744,7.734,8.64-.85-.836,8.2-.261,1.831-.494,1.734-.647,1.535-1.189,1.832-1.438,1.211-1.709.518-9.877.976-3.625-7.08,2.33-24.916.35-1.852.682-1.666,1.015-1.509,1.286-1.242,1.423-.846,1.548-.38,9.317-.917Zm-87.977,2.139-.783,10.008-1.548.154.37,17.642,1.883-.191-.355,3.623-.26,1.883-.41,1.549-.522,1.117h-.047l-1.168,1.183-1.609.786-2.086.414-4.779.478.13-9.056-.126.011-1.584,9.2-12.11,1.192,4.118-8.16,4.819-23.427-3.157-6.513Zm.892-.8-.909,11.437-1.5.151.355,16.183,2.022-.205-.455,4.524-.278,2.015-.465,1.6-.588,1.213v.043h-.037l-1.335,1.332-1.808.93-2.357.5-5.662.548-.021-.216-.014.226L219.859,244l4.579-9.258,4.815-23.123-3.535-7.187ZM76.4,219.914,75.211,233.6l-3.86.368-.881,9.525-4.259.418-.444,4.566,1.893-.191-.491,3.641-.383,2.343-.706,1.834-.978,1.332-1.245.889-1.553.408-8.909.875,3.464-9.363,2.066-21.8L55.271,221.9Zm.889-.832-1.306,15.18-3.9.384-.843,9.479-4.258.424-.315,3.08,1.928-.188-.615,4.537-.253,1.883-.512,1.6L66.6,256.81l-1.158,1.358-1.373.891-1.69.427-10.139.99,3.819-10.38,2-21.467-4.041-7.315Zm47.522,20.75.086.029-.336,2.869Zm10.542-19.025-.17,2.414-.169,2.318-.179,2.189-.19,2.1.007.043-.026.223-.174.9-.2.738-.2.639-.36.871-.483.9-.579.81-.248.244-.282.242-.319.295.92,1.379.626,1.4.325,1.472-.01.358-.029.619-.09.9,1.759-.171-.141,1.742-.27,2.287-.335,1.853-.444,1.463-.04.047-.035.094-.959,1.512-1.315.964-1.689.436-6.593.644.081-.675-.707.435-.825.3-.951.188-8.911.871,3.553-9.385,2.065-21.779-3.659-6.565,17.472-1.627,3.767,5.869Zm.8,0-.156,2.46-.176,2.319-.182,2.2-.141,2.1,0,.094-.072.218-.172.909-.189.781-.191.679-.4.963-.524.944-.672.9-.159.15-.114.145-.164.145.8,1.341.528,1.366.262,1.39.039.262v.357l-.048.5,1.758-.175-.243,2.6-.247,2.377-.389,1.942-.433,1.494-.027.1-.04.051-1.16,1.742-1.568,1.135-1.947.547-7.591.746.026-.174-.425.123-.476.09-.536.1-10.125.988,3.889-10.4,2.014-21.459-4.089-7.362,19.231-1.793,4.182,6.5Zm289.82-35.357-1.053,10.478-1.183.107-1.8,19.188-.321,2.519-.4,1.859-.393,1.321-.961,1.517-1.328,1-1.724.448-3.862.363-1.724-8.016-.78,8.264-11.189,1.1,3.463-9.377,2.033-21.787-3.668-6.543,12.34-1.22,1.734,7.767.672-8.007Zm.892-.794-1.214,11.908-1.141.1-1.711,18.608h-.049l-.322,2.562-.377,1.949-.453,1.367-.488.887-.547.773-.686.645-.92.576-.988.361-1.088.245-4.6.447-.734-3.432-.31,3.535-13.182,1.293,3.865-10.4,2-21.473-4.084-7.3,14.215-1.408.721,3.214.293-3.308Zm-49.744,5.6-.992,9.705-1.053.107L373.4,218.225l1.932-.194-.488,3.637-.43,2.348-.666,1.851-.975,1.328-1.285.879-1.523.414-8.863.865,3.562-9.384,1.98-21.77-3.574-6.56Zm.948-.811-1.211,11.2-1,.1-1.567,16.633,1.981-.192-.617,4.536-.291,1.9-.469,1.592-.621,1.351-1.147,1.358-1.424.9-1.644.418-10.137,1,3.949-10.406,1.955-21.467-3.992-7.32Zm-66.639,7.26-1.049,9.723-1.012.106L307.7,224.685l1.887-.187-.475,3.648-.4,2.34-.7,1.844-.979,1.326-1.236.879-1.557.418-8.865.863,3.6-9.381,2.027-21.783-3.67-6.556Zm.893-.794-1.163,11.194-1,.09-1.564,16.641,1.931-.184-.612,4.529-.258,1.891-.461,1.6-.667,1.345-1.114,1.352-1.416.892-1.683.428-10.1.994,3.9-10.392,2.014-21.477-4.047-7.31Zm-40.758,11.413-2.221,23.785-.246,1.588-.344,1.535-.52,1.461.006.047-.044.043-.944,1.607L266.06,238.4l-1.336.436-16.451,1.613,3.553-9.381,2.012-21.779-3.654-6.561L268,200.973Zm.832-.172-2.215,24.016-.248,1.619-.411,1.586L269,235.928l.015.054-.049.047-1.142,1.84-1.381,1.2-1.634.512-17.736,1.75,3.942-10.4,2.009-21.481-4.083-7.307,19.53-1.916Zm-62.871,6.266L207.283,237.2l-.246,1.592-.334,1.527-.518,1.477.006.052-.043.038L205.2,243.5l-1.187,1-1.342.443-16.409,1.614,3.469-9.385,2.071-21.785-3.665-6.551,17.782-1.75Zm.819-.17-2.251,24.023-.239,1.614-.377,1.591-.507,1.555-.042.051,0,.043-1.153,1.834-1.382,1.209-1.637.508-17.639,1.736,3.8-10.383,2.015-21.469-4.046-7.314,19.537-1.921ZM159.118,218.3l-2.144,23.648-.241,1.66-.462,1.643-.6,1.523.006.047-1.039,1.594-1.23,1.066-1.468.448-9.3.906-3.242-6.4,2.307-24.7.282-1.711.6-1.515.97-1.43,1.136-1.139,1.2-.721,1.347-.372,8.608-.836Zm.858-.184-2.161,23.832-.274,1.754-.448,1.732-.638,1.618h-.043v.047l-1.19,1.839-1.476,1.213-1.724.53-9.874.964-3.584-7.086,2.3-24.869.305-1.808.674-1.7,1.049-1.571,1.3-1.23,1.413-.849,1.561-.372,9.218-.9Zm-59.182-.6L99.6,231.189l-3.935.381L94.79,241.1l-4.273.411-.383,4.566,1.8-.18-.355,3.633-.441,2.34-.657,1.844-.978,1.322-1.286.887-1.556.424-8.867.861,3.468-9.367,2.028-21.776-3.665-6.56Zm.894-.834-1.3,15.185-3.949.389-.886,9.484-4.262.422-.27,3.078,1.8-.183-.441,4.527-.3,1.887-.467,1.6-.622,1.344-1.149,1.348-1.42.892-1.684.432-10.146,1L80.454,247.7l2.01-21.48-4.091-7.3Zm289.7-19.282-3.024.307-1.966,20.627,3.033-.3Zm-33.469-3.7-.949,10.683-4.561.448.469-3.76-1.889.184-1.894,20.836,1.846-.184-.264,1.873-.225,1.772-.3,1.267-.457.883-.8.834-1.178.559-1.574.281-5.664.568,2.816-7.464,2.265-20.7-1.759.175-.42,3.765-4.488.435,1.3-10.764Zm-64.845,11.657L290.9,228.73l-.21,1.526-.342,1.4-.451,1.3-.643,1.117-.682.735-.763.3-13.965,1.362,2.812-7.444,2.112-22.324-2.8-4.994,14.26-1.408Zm-28.926,4.523-3.079.3-2.021,20.406,3.113-.3Zm-218.4,21.523-3.069.291-1.963,20.581,3.062-.3Zm82.107-7.591-3.084.3L124.329,230l2.978-.289ZM181.483,211l-.548,6.957-1.676.166.439,20.619,1.708-.176-.164,1.869-.226,1.756-.329,1.276-.438.882-.808.838-1.223.563-1.529.277-2.974.3.028-9.045-3.2.321-1.573,9.185-7.991.8,3-6.055,4.991-24.033-2.446-5.027Zm-29.725,9.961-3.073.3-1.963,20.58,3.069-.289Zm245.285-25.936-2.1,23.256-.248,1.58-.39,1.451-.576,1.383-.723,1.178-.77.746-.808.295-8.157.81-2.591-5.156,2.256-24.322.253-1.455.541-1.289.729-1.182.805-.791.873-.519.869-.219,7.465-.729ZM331.6,201.463l-.476,5.5-5.616.555.307-3.663-2.99.282-1.964,20.59,3.032-.309.464-4.693,5.579-.543-.569,5.552-.242,1.567-.351,1.459-.569,1.383-.719,1.177-.762.739-.861.308-8.125.8-2.638-5.149,2.273-24.326.285-1.465.5-1.275.769-1.187.8-.79.842-.516.862-.222,7.588-.747Zm-87.235,3.351-.556,6.965-1.669.166.392,20.623,1.755-.179-.222,1.878-.222,1.754-.314,1.268-.446.887-.8.828-1.234.572-1.57.281-2.937.287.085-9.041-3.209.313-1.579,9.189-8.026.786,2.953-6.04,5.033-24.029-2.445-5.031Zm-42.224,11.161-3.16.3-2.022,20.41,3.206-.312ZM74.6,221.549l-.895,10.734-5.138.5.381-3.81-3.071.306-.664,6.748,4.3-.426-.594,6.581-4.21.406-.772,7.537,1.844-.184-.259,1.873-.6,2.9-1.105,1.836-1.668.734-6.4.635,2.726-7.444,2.1-22.334-2.8-4.98Zm59.1-.807-.131,1.83-.145,2.153-.21,2.367-.172,2.672-.162.679-.159.725-.232.773-.323.739-.363.763-.553.653-.369.4-.655.455-.884.492,1.346,1.5.908,1.61.377,1.595.012.577-.11,1.113-.188,1.66,1.8-.174-.315,2.338-.307,1.754-.369,1.191-.646,1.041-.819.645-1.135.338-4.607.455,1.324-11.822-3.172-2.44-.664,7.559,1.751-.18-.3,2.334-.324,1.758-.414,1.187-.6,1.041-.862.67-1.133.321-6.4.636,2.807-7.461,2.12-22.316-2.808-4.99,14.055-1.348Zm290.444-33.6-.783,7.429-1.14.1-1.942,20.451-.3,2.33-.3,1.758-.42,1.195-.6,1.043-.869.656-1.115.325-2.418.244L410.6,205.437,408.889,223.2l-7.323.731,2.77-7.457,2.1-22.325-2.8-4.99,8.425-.828,3.789,16.82,1.528-17.336Zm-48.808,4.8-.717,6.705-1.055.1-1.955,21.121,1.842-.191-.252,1.876-.6,2.9-1.149,1.84-1.619.738-6.353.627,2.8-7.447L368.3,197.9,365.59,192.9ZM309.586,198.4l-.717,6.71-1.06.106-1.949,21.119,1.844-.18-.261,1.873-.6,2.906-1.1,1.827-1.644.752-6.332.611,2.816-7.443,2.066-22.323-2.8-5.01Zm-22.23,9.181-3.064.31L282.221,228.3l3.153-.309Zm-17.452.033-2.189,23.4-.249,1.528-.341,1.412-.451,1.277-.643,1.117-.681.743-.77.283-13.957,1.383,2.82-7.453,2.1-22.321-2.8-5,14.259-1.4Zm-33.144,4.541-2.114,12.356,2.024-.192Zm-28.948,1.571-2.174,23.388-.2,1.52-.343,1.422-.467,1.275-.634,1.127-.677.73-.774.295-13.911,1.377,2.731-7.447,2.1-22.329-2.8-4.986,14.305-1.4Zm-33.849,4.6L171.816,230.7l2.021-.2Zm-16.5.252-2.147,23.248-.247,1.584-.392,1.455-.535,1.383-.713,1.17-.771.75-.858.3-8.128.8-2.623-5.138,2.3-24.336.22-1.448.538-1.279.765-1.2.8-.786.843-.525.916-.222,7.41-.73ZM99,219.158l-.932,10.721-5.089.5.283-3.8-3.026.291-.622,6.748,4.256-.4-.582,6.564-4.263.424-.676,7.512,1.749-.168-.162,1.865-.607,2.894-1.152,1.844-1.615.734-6.4.623,2.721-7.435,2.1-22.33-2.79-4.985Zm-47.6,9.859-2.1,23.2-.249,1.574-.381,1.5-.564,1.387-.736,1.173-.8.76-.867.3-8.125.793L34.95,254.57,37.3,230.228l.265-1.451.49-1.287.731-1.17.852-.8.835-.521.861-.217,7.415-.726Zm1.7-.291-2.156,23.551L50.672,254l-.413,1.625-.65,1.566.014.057-.045.029L48.5,258.906l-1.234,1.012-1.422.439-9.314.922-3.227-6.42,2.35-24.689.272-1.717.6-1.557.92-1.425h.05l1.169-1.135,1.218-.7,1.261-.34,8.589-.856Zm.831-.179-2.188,23.791-.26,1.8-.453,1.671-.631,1.67-.045.043,0,.047-1.275,1.848-1.443,1.156-1.718.533-9.891.979-3.564-7.1,2.375-24.875.319-1.847.622-1.7,1-1.509h.048l-.009-.047,1.343-1.25,1.425-.8,1.477-.367,9.172-.9Zm-2.532.47-2.1,23.2-.249,1.574-.381,1.5-.564,1.387-.736,1.173-.8.76-.867.3-8.125.793L34.95,254.57,37.3,230.228l.265-1.451.49-1.287.731-1.17.852-.8.835-.521.861-.217,7.415-.726Zm372.746-41.876-.783,7.429-1.14.1-1.942,20.451-.3,2.33-.3,1.758-.42,1.195-.6,1.043-.869.656-1.115.325-2.418.244L410.6,205.437,408.889,223.2l-7.323.731,2.77-7.457,2.1-22.325-2.8-4.99,8.425-.828,3.789,16.82,1.528-17.336ZM391.383,197.4l-3.024.307-1.966,20.627,3.033-.3Zm5.66-2.369-2.1,23.256-.248,1.58-.39,1.451-.576,1.383-.723,1.178-.77.746-.808.295-8.157.81-2.591-5.156,2.256-24.322.253-1.455.541-1.289.729-1.182.805-.791.873-.519.869-.219,7.465-.729Zm-21.7-3.082-.717,6.705-1.055.1-1.955,21.121,1.842-.191-.252,1.876-.6,2.9-1.149,1.84-1.619.738-6.353.627,2.8-7.447L368.3,197.9,365.59,192.9Zm-17.424,1.746-.949,10.683-4.561.448.469-3.76-1.889.184-1.894,20.836,1.846-.184-.264,1.873-.225,1.772-.3,1.267-.457.883-.8.834-1.178.559-1.574.281-5.664.568,2.816-7.464,2.265-20.7-1.759.175-.42,3.765-4.488.435,1.3-10.764ZM331.6,201.463l-.476,5.5-5.616.555.307-3.663-2.99.282-1.964,20.59,3.032-.309.464-4.693,5.579-.543-.569,5.552-.242,1.567-.351,1.459-.569,1.383-.719,1.177-.762.739-.861.308-8.125.8-2.638-5.149,2.273-24.326.285-1.465.5-1.275.769-1.187.8-.79.842-.516.862-.222,7.588-.747Zm-22.012-3.06-.717,6.71-1.06.106-1.949,21.119,1.844-.18-.261,1.873-.6,2.906-1.1,1.827-1.644.752-6.332.611,2.816-7.443,2.066-22.323-2.8-5.01Zm-22.23,9.181-3.064.31L282.221,228.3l3.153-.309Zm5.713-2.236L290.9,228.73l-.21,1.526-.342,1.4-.451,1.3-.643,1.117-.682.735-.763.3-13.965,1.362,2.812-7.444,2.112-22.324-2.8-4.994,14.26-1.408Zm-28.926,4.523-3.079.3-2.021,20.406,3.113-.3Zm5.761-2.254-2.189,23.4-.249,1.528-.341,1.412-.451,1.277-.643,1.117-.681.743-.77.283-13.957,1.383,2.82-7.453,2.1-22.321-2.8-5,14.259-1.4Zm-33.144,4.541-2.114,12.356,2.024-.192Zm7.6-7.344-.556,6.965-1.669.166.392,20.623,1.755-.179-.222,1.878-.222,1.754-.314,1.268-.446.887-.8.828-1.234.572-1.57.281-2.937.287.085-9.041-3.209.313-1.579,9.189-8.026.786,2.953-6.04,5.033-24.029-2.445-5.031Zm-42.224,11.161-3.16.3-2.022,20.41,3.206-.312Zm5.673-2.246-2.174,23.388-.2,1.52-.343,1.422-.467,1.275-.634,1.127-.677.73-.774.295-13.911,1.377,2.731-7.447,2.1-22.329-2.8-4.986,14.305-1.4Zm-33.849,4.6L171.816,230.7l2.021-.2Zm7.52-7.332-.548,6.957-1.676.166.439,20.619,1.708-.176-.164,1.869-.226,1.756-.329,1.276-.438.882-.808.838-1.223.563-1.529.277-2.974.3.028-9.045-3.2.321-1.573,9.185-7.991.8,3-6.055,4.991-24.033-2.446-5.027Zm-29.725,9.961-3.073.3-1.963,20.58,3.069-.289Zm5.709-2.377-2.147,23.248-.247,1.584-.392,1.455-.535,1.383-.713,1.17-.771.75-.858.3-8.128.8-2.623-5.138,2.3-24.336.22-1.448.538-1.279.765-1.2.8-.786.843-.525.916-.222,7.41-.73ZM127.848,223.8l-3.084.3L124.329,230l2.978-.289Zm5.854-3.061-.131,1.83-.145,2.153-.21,2.367-.172,2.672-.162.679-.159.725-.232.773-.323.739-.363.763-.553.653-.369.4-.655.455-.884.492,1.346,1.5.908,1.61.377,1.595.012.577-.11,1.113-.188,1.66,1.8-.174-.315,2.338-.307,1.754-.369,1.191-.646,1.041-.819.645-1.135.338-4.607.455,1.324-11.822-3.172-2.44-.664,7.559,1.751-.18-.3,2.334-.324,1.758-.414,1.187-.6,1.041-.862.67-1.133.321-6.4.636,2.807-7.461,2.12-22.316-2.808-4.99,14.055-1.348ZM99,219.158l-.932,10.721-5.089.5.283-3.8-3.026.291-.622,6.748,4.256-.4-.582,6.564-4.263.424-.676,7.512,1.749-.168-.162,1.865-.607,2.894-1.152,1.844-1.615.734-6.4.623,2.721-7.435,2.1-22.33-2.79-4.985Zm-24.4,2.391-.895,10.734-5.138.5.381-3.81-3.071.306-.664,6.748,4.3-.426-.594,6.581-4.21.406-.772,7.537,1.844-.184-.259,1.873-.6,2.9-1.105,1.836-1.668.734-6.4.635,2.726-7.444,2.1-22.334-2.8-4.98Zm-28.862,9.845-3.069.291-1.963,20.581,3.062-.3Z" transform="translate(-16.257)" style="fill:#b0bc22;fill-rule:evenodd"/></svg>