<svg id="Layer_1" data-name="Layer 1" xmlns="http://www.w3.org/2000/svg" viewBox="0 0 427.489 278.129"><title>ORA_LOGO_grey</title><path d="M87.692,231.989a10.107,10.107,0,0,0,9.242-6.705l4.569-12.671-3.744.368-4.02,11.151c-1.436,3.594-5.13,5.381-8.251,4L59.742,216.719l-6.844.673,31.218,13.841A8.685,8.685,0,0,0,87.692,231.989Z" transform="translate(-6.591 -10.876)" style="fill:none"/><path d="M394.677,202.963c1.434,3.593.063,7.631-3.055,9.018L355.183,228.13c-3.123,1.383-6.815-.4-8.246-4L334.522,189.7l-3.49.343,12.7,35.237a10.122,10.122,0,0,0,9.244,6.705,8.755,8.755,0,0,0,3.586-.756L393,215.079c4.731-2.1,6.905-8.036,4.866-13.269l-5.9-17.754-3.461.34Z" transform="translate(-6.591 -10.876)" style="fill:none"/><path d="M122.825,116.383c1.767.756,3.566,1.529,5.363,2.3C126.545,117.961,124.276,116.966,122.825,116.383Z" transform="translate(-6.591 -10.876)" style="fill:none"/><path d="M306.887,150.122a6.777,6.777,0,0,1-1.538,7.417l-33.191,32.415a6.782,6.782,0,0,1-4.741,1.929H173.26a6.8,6.8,0,0,1-4.749-1.929L135.33,157.539a6.779,6.779,0,0,1-1.552-7.417c.014-.028-3.562-1.58-5.23-2.5l-23.3,64.623,222.3-21.855L312.13,147.622C310.459,148.542,306.882,150.094,306.887,150.122Z" transform="translate(-6.591 -10.876)" style="fill:none"/><path d="M434.079,10.876H13.589l-.5,210.43,32.97-3.242c-6.182-2.908-9.047-10.6-6.455-17.4l29.379-88.428c-2.4,2.377-28.376,24.673-28.376,24.673L73.4,59.026s19.913,11.9,34.783,21.345l39.358-43.383h145.59L332.49,80.371c14.871-9.449,34.781-21.345,34.781-21.345l32.793,77.882s-25.979-22.3-28.371-24.673l23.743,71.48,38.643-3.8Z" transform="translate(-6.591 -10.876)" style="fill:none"/><path d="M49.054,211.981c-3.122-1.387-4.489-5.425-3.052-9.018l30.041-90.436c1.517-3.6,5.408-5.385,8.7-4l34.907,14.691a19.075,19.075,0,0,1,.057-2.092,17.794,17.794,0,0,1,1.4-5.465c.579.237,1.144.5,1.723.727-16.72-7.161-31.719-13.567-38.609-16.469-5.679-2.386-9.439-1.833-13.306,1.417-2.737,2.3-13.343,13.1-13.343,13.1L76.96,68.854c13.169,7.3,122.205,77.883,122.205,77.883L193,146.528s-6.459-2.779-16.281-7c-6.266,4.531-16.06,7.224-26.846,6.759-10.269-.311-19.1-4.084-24.523-9.832L97.759,212.981l3.744-.368L126.785,142.5a39.462,39.462,0,0,0,18,6.786h-4.718a3.4,3.4,0,0,0-2.371,5.832l33.188,32.411a3.4,3.4,0,0,0,2.375.96h94.157a3.386,3.386,0,0,0,2.371-.96l33.188-32.411a3.4,3.4,0,0,0-2.371-5.832h-4.717a39.441,39.441,0,0,0,18-6.786l17.144,47.55,3.49-.343-19.105-52.977c-5.445,5.595-14.162,9.251-24.268,9.558-10.782.465-20.582-2.228-26.843-6.759-9.82,4.223-16.278,7-16.278,7l-6.167.209S350.9,76.155,364.066,68.854l19.39,45.577s-10.6-10.8-13.343-13.1c-3.866-3.25-7.625-3.8-13.3-1.417-6.9,2.9-21.893,9.308-38.614,16.469.58-.23,1.147-.49,1.725-.727a18.051,18.051,0,0,1,1.394,5.465,19.24,19.24,0,0,1,.059,1.944l34.561-14.543c3.285-1.38,7.174.408,8.691,4L388.508,184.4l3.461-.34-24.116-72.6c-.033-.085-.057-.166-.092-.248a10.427,10.427,0,0,0-9.51-6.544,10.035,10.035,0,0,0-3.789.575,41.124,41.124,0,0,1,3.664-2.195c4.362-1.818,6.676-1.743,9.8.887,2.147,1.8,23.668,21.436,23.668,21.436l-25.908-61.4s-52.818,31.844-52.924,31.913L329.9,82.139,291.617,40.4H149.054L110.773,82.139,127.91,95.875c-.1-.069-52.92-31.913-52.92-31.913l-25.908,61.4S70.6,105.734,72.747,103.929c3.126-2.63,5.437-2.7,9.8-.887a41.582,41.582,0,0,1,3.667,2.195,10.046,10.046,0,0,0-3.793-.575,10.413,10.413,0,0,0-9.5,6.544,2.087,2.087,0,0,0-.1.248L42.8,201.81c-2.033,5.233.138,11.169,4.877,13.269l5.217,2.313,6.844-.673Zm127.682-68.6,12.952,5.57H174.721a3.362,3.362,0,0,0-3.382,3.491l-1.132-1.667a3.4,3.4,0,0,0-2.809-1.489h-8.575A44.1,44.1,0,0,0,176.736,143.378ZM173.26,185.1l-33.192-32.419H167.4L189.41,185.1Zm19.51-.337c.535.064-17.759-32.419-17.759-32.419h26.05l7.856,32.419Zm18.752.111-5.166-32.193h27.307L228.5,184.871ZM174.768,88.38h90.846l-37.9,58.4H212.668Zm8.787,19.326L166.464,86,145.627,83.47H295.34l-20.8,2.369-17.127,21.867L271.888,85.08l-102.651-.124Zm117.05,44.972L267.417,185.1H251.263l22.014-32.419Zm-36.664-9.3a44.106,44.106,0,0,0,17.906,5.905h-8.57a3.417,3.417,0,0,0-2.813,1.489l-1.131,1.667a3.356,3.356,0,0,0-3.378-3.491H250.988Zm2.014,8.963S247.663,184.824,248.2,184.76H232.05l7.854-32.419Zm-28.945-5.617h-5.745l45.117-57.8,45.065-4.839ZM117.018,80.077l33.439-36.272H289.921l33.438,36.272H117.018Zm2.209,4,45.067,4.839,45.112,57.8h-5.745Z" transform="translate(-6.591 -10.876)" style="fill:none"/><path d="M318.2,116.383c-1.452.583-3.722,1.579-5.365,2.3Z" transform="translate(-6.591 -10.876)" style="fill:none"/><path d="M170.207,150.772l1.132,1.667a3.362,3.362,0,0,1,3.382-3.491h14.967l-12.952-5.57a44.1,44.1,0,0,1-17.913,5.905H167.4A3.4,3.4,0,0,1,170.207,150.772Z" transform="translate(-6.591 -10.876)" style="fill:#424343"/><path d="M119.649,123.213,84.742,108.522c-3.291-1.38-7.182.408-8.7,4L46,202.963c-1.437,3.593-.07,7.631,3.052,9.018l10.688,4.738,38.017-3.738,27.594-76.528A19.848,19.848,0,0,1,119.649,123.213Z" transform="translate(-6.591 -10.876)" style="fill:#424343"/><polygon points="202.815 135.848 157.704 78.045 112.636 73.206 197.071 135.848 202.815 135.848" style="fill:#424343"/><path d="M140.068,152.678,173.26,185.1h16.15L167.4,152.678Z" transform="translate(-6.591 -10.876)" style="fill:#424343"/><polygon points="221.125 135.899 259.023 77.504 168.178 77.504 206.077 135.899 221.125 135.899" style="fill:#424343"/><polygon points="199.765 141.802 204.931 173.995 221.913 173.995 227.073 141.802 199.765 141.802" style="fill:#424343"/><polygon points="316.768 69.201 283.33 32.929 282.413 32.929 144.787 32.929 143.867 32.929 110.428 69.201 111.347 69.201 315.85 69.201 316.768 69.201" style="fill:#424343"/><path d="M268.888,150.629a3.4,3.4,0,0,1,.445,1.81l1.131-1.667a3.417,3.417,0,0,1,2.813-1.489h8.57a44.106,44.106,0,0,1-17.906-5.905l-12.953,5.57h14.967A3.379,3.379,0,0,1,268.888,150.629Z" transform="translate(-6.591 -10.876)" style="fill:#424343"/><polygon points="265.297 74.204 250.821 96.83 267.948 74.963 288.749 72.594 139.037 72.594 159.873 75.127 176.965 96.83 162.646 74.08 265.297 74.204" style="fill:#424343"/><polygon points="224.674 135.848 230.419 135.848 314.856 73.206 269.791 78.045 224.674 135.848" style="fill:#424343"/><path d="M251.263,185.1h16.154l33.188-32.419H273.277Z" transform="translate(-6.591 -10.876)" style="fill:#424343"/><path d="M232.05,184.76H248.2c-.534.064,17.758-32.419,17.758-32.419H239.9Z" transform="translate(-6.591 -10.876)" style="fill:#424343"/><path d="M175.011,152.341s18.294,32.483,17.759,32.419h16.147l-7.856-32.419Z" transform="translate(-6.591 -10.876)" style="fill:#424343"/><path d="M310.8,119.557a14.66,14.66,0,0,1,.686,3.294,14.547,14.547,0,0,0-.679-3.3Z" transform="translate(-6.591 -10.876)" style="fill:none"/><polygon points="304.913 112.259 304.913 112.259 304.913 112.259 304.913 112.259" style="fill:none"/><path d="M311.919,123.182c-.133-.013-.26-.039-.395-.044h0C311.659,123.143,311.786,123.169,311.919,123.182Z" transform="translate(-6.591 -10.876)" style="fill:none"/><path d="M308.374,133.54c.023.008.046.013.069.02-.023-.007-.046-.012-.069-.02Z" transform="translate(-6.591 -10.876)" style="fill:none"/><path d="M308.347,133.532a.054.054,0,0,1,.027.008h0Z" transform="translate(-6.591 -10.876)"/><polygon points="304.913 112.259 304.913 112.259 304.908 112.259 304.909 112.259 304.913 112.259"/><path d="M274.982,134.956c.1.1.209.2.314.309.174.181.358.362.55.542.126.119.261.23.4.35.18.153.364.309.549.461.144.11.286.222.427.328.2.152.412.3.621.444.141.094.279.194.425.291.282.179.571.358.87.522.088.058.18.113.274.165.361.2.725.392,1.109.574.139.066.284.13.43.2.263.124.535.237.814.352.162.068.327.132.489.2.28.1.557.2.839.3.164.055.322.111.485.162.328.1.666.2,1,.29.121.033.233.069.351.1.463.117.934.221,1.408.317.1.013.2.028.305.047.38.069.762.133,1.146.182.161.021.325.036.487.058.337.038.675.07,1.021.1.174.014.348.025.52.036.357.023.717.028,1.077.034.153,0,.307.011.466.011.5,0,1.025-.011,1.547-.043.378-.021.757-.051,1.132-.088.123-.01.248-.027.37-.042.253-.028.5-.06.755-.092.132-.021.266-.047.4-.064.243-.045.488-.09.73-.137.117-.025.233-.046.35-.074.279-.06.555-.126.83-.195.072-.021.145-.038.215-.055a19.546,19.546,0,0,0,10.66-6.995l.007-.009a5.249,5.249,0,0,1-3.761-4.332c-.25-2.87,2.343-5.552,5.781-6a7.492,7.492,0,0,1,1.124-.051h0c-.01-.089,0-.187-.01-.284a14.66,14.66,0,0,0-.686-3.294l.007-.007c.679-.289,1.35-.578,2.026-.867,1.643-.721,3.913-1.717,5.365-2.3,16.721-7.161,31.715-13.567,38.614-16.469,5.674-2.386,9.433-1.833,13.3,1.417,2.74,2.3,13.343,13.1,13.343,13.1l-19.39-45.577c-13.168,7.3-122.2,77.883-122.2,77.883l6.167-.209s6.458-2.779,16.278-7c3.228-1.387,6.818-2.93,10.661-4.586A.026.026,0,0,1,274.982,134.956Z" transform="translate(-6.591 -10.876)" style="fill:#424343"/><path d="M310.809,119.55a14.547,14.547,0,0,1,.679,3.3c.01.1.01.186.015.284h.021v0c.135,0,.262.031.395.044a5.867,5.867,0,0,1,4.117,2.131l5.342-2.248a19.24,19.24,0,0,0-.059-1.944,18.051,18.051,0,0,0-1.394-5.465c-.578.237-1.145.5-1.725.727l-5.365,2.3C311.662,119.2,310.807,119.572,310.809,119.55Z" transform="translate(-6.591 -10.876)" style="fill:#b0bc22"/><path d="M314.065,133.092a6.886,6.886,0,0,1-2.8.828,7.161,7.161,0,0,1-2.827-.36c-.023-.007-.046-.012-.069-.02a19.578,19.578,0,0,1-10.687,6.987c-.07.017-.143.034-.215.055-.275.069-.551.135-.83.195-.117.028-.233.049-.35.074-.242.047-.487.092-.73.137-.133.017-.267.043-.4.064-.254.032-.5.064-.755.092-.122.015-.247.032-.37.042-.375.037-.754.067-1.132.088-.522.032-1.042.043-1.547.043-.159,0-.313-.007-.466-.011-.36-.006-.72-.011-1.077-.034-.172-.011-.346-.022-.52-.036-.346-.028-.684-.06-1.021-.1-.162-.022-.326-.037-.487-.058-.384-.049-.766-.113-1.146-.182-.1-.019-.2-.034-.305-.047-.474-.1-.945-.2-1.408-.317-.118-.028-.23-.064-.351-.1-.338-.089-.676-.188-1-.29-.163-.051-.321-.107-.485-.162-.282-.1-.559-.2-.839-.3-.162-.064-.327-.128-.489-.2-.279-.115-.551-.228-.814-.352-.146-.066-.291-.13-.43-.2-.384-.182-.748-.376-1.109-.574-.094-.052-.186-.107-.274-.165-.3-.164-.588-.343-.87-.522-.146-.1-.284-.2-.425-.291-.209-.145-.416-.292-.621-.444-.141-.106-.283-.218-.427-.328-.185-.152-.369-.308-.549-.461-.135-.12-.27-.231-.4-.35-.192-.18-.376-.361-.55-.542-.105-.107-.214-.2-.314-.309,0,0-10.533,4.606-10.676,4.57,6.261,4.531,16.061,7.224,26.843,6.759,10.106-.307,18.823-3.963,24.268-9.558l-1.095-3.037C314.237,133.487,314.151,133.289,314.065,133.092Z" transform="translate(-6.591 -10.876)" style="fill:#b0bc22"/><path d="M316.036,125.313a4.825,4.825,0,0,1,1.026,2.583,5.477,5.477,0,0,1-3,5.2c.086.2.172.395.257.6l1.095,3.037a19.907,19.907,0,0,0,5.961-13.662Z" transform="translate(-6.591 -10.876)" style="fill:#b0bc22"/><path d="M310.809,119.55c0,.022.853-.353,2.026-.867C312.159,118.972,311.488,119.261,310.809,119.55Z" transform="translate(-6.591 -10.876)" style="fill:#b0bc22"/><path d="M274.967,134.94c-3.843,1.656-7.433,3.2-10.661,4.586.143.036,10.676-4.57,10.676-4.57A.026.026,0,0,0,274.967,134.94Z" transform="translate(-6.591 -10.876)" style="fill:#b0bc22"/><path d="M297.687,140.527a19.578,19.578,0,0,0,10.687-6.987.054.054,0,0,0-.027-.008A19.546,19.546,0,0,1,297.687,140.527Z" transform="translate(-6.591 -10.876)" style="fill:#b7d433"/><path d="M311.488,122.851c.01.1,0,.2.01.284h0C311.5,123.037,311.5,122.948,311.488,122.851Z" transform="translate(-6.591 -10.876)" style="fill:#b7d433"/><path d="M311.229,127.336l4.806-2.023a5.875,5.875,0,0,0-4.116-2.131c-.133-.013-.26-.039-.395-.044A15.148,15.148,0,0,1,311.229,127.336Z" transform="translate(-6.591 -10.876)" style="fill:#ffef00"/><path d="M309.055,132.547c-.216.337-.439.671-.681.993.023.008.046.013.069.02a7.2,7.2,0,0,0,2.827.36,6.886,6.886,0,0,0,2.8-.828,53.118,53.118,0,0,0-2.867-5.635A15.639,15.639,0,0,1,309.055,132.547Z" transform="translate(-6.591 -10.876)" style="fill:#ffef00"/><path d="M311.229,127.336c-.009.041-.023.08-.031.121a53.118,53.118,0,0,1,2.867,5.635,5.477,5.477,0,0,0,3-5.2,4.826,4.826,0,0,0-1.027-2.583Z" transform="translate(-6.591 -10.876)" style="fill:#ffef00"/><path d="M309.055,132.547c-.216.334-.438.665-.679.985l-.022-.009-.007.009.027.008C308.616,133.218,308.839,132.884,309.055,132.547Z" transform="translate(-6.591 -10.876)" style="fill:#ffef00"/><polygon points="304.908 112.259 304.908 112.259 304.909 112.259 304.908 112.259" style="fill:#ffef00"/><path d="M308.443,133.56a7.161,7.161,0,0,0,2.827.36A7.2,7.2,0,0,1,308.443,133.56Z" transform="translate(-6.591 -10.876)" style="fill:#ffef00"/><path d="M311.919,123.182a5.875,5.875,0,0,1,4.116,2.131h0A5.867,5.867,0,0,0,311.919,123.182Z" transform="translate(-6.591 -10.876)" style="fill:#ffef00"/><path d="M317.062,127.9a4.825,4.825,0,0,0-1.026-2.583h0A4.826,4.826,0,0,1,317.062,127.9Z" transform="translate(-6.591 -10.876)" style="fill:#ffef00"/><path d="M311.5,123.136l.021,0h0l-.02,0h0Z" transform="translate(-6.591 -10.876)" style="fill:#b0bc22"/><path d="M311.146,127.371l.055-.023a15.138,15.138,0,0,0,.3-4.213,7.492,7.492,0,0,0-1.124.051c-3.438.453-6.031,3.135-5.781,6a5.249,5.249,0,0,0,3.761,4.332,15.742,15.742,0,0,0,2.826-6.095C311.159,127.394,311.146,127.371,311.146,127.371Z" transform="translate(-6.591 -10.876)" style="fill:#b0bc22"/><polygon points="304.909 112.259 304.913 112.26 304.913 112.259 304.909 112.259" style="fill:#b0bc22"/><path d="M311.146,127.371s.013.023.034.057c.006-.027.016-.053.021-.08Z" transform="translate(-6.591 -10.876)" style="fill:#b0bc22"/><path d="M311.524,123.135h-.02l.02,0Z" transform="translate(-6.591 -10.876)" style="fill:#b0bc22"/><path d="M309.055,132.547a15.639,15.639,0,0,0,2.143-5.09l-.012-.02A15.652,15.652,0,0,1,309.055,132.547Z" transform="translate(-6.591 -10.876)" style="fill:#b0bc22"/><path d="M311.524,123.138l-.021,0a15.264,15.264,0,0,1-.293,4.208l.019-.008A15.148,15.148,0,0,0,311.524,123.138Z" transform="translate(-6.591 -10.876)" style="fill:#b0bc22"/><path d="M311.186,127.437l.012.02c.008-.041.022-.08.031-.121l-.019.008C311.2,127.375,311.193,127.406,311.186,127.437Z" transform="translate(-6.591 -10.876)" style="fill:#b0bc22"/><path d="M309.055,132.547a15.652,15.652,0,0,0,2.131-5.11l-.006-.009a15.742,15.742,0,0,1-2.826,6.095l.022.009C308.617,133.212,308.839,132.881,309.055,132.547Z" transform="translate(-6.591 -10.876)" style="fill:#b0bc22"/><path d="M311.2,127.348l.009,0a15.264,15.264,0,0,0,.293-4.208h0A15.138,15.138,0,0,1,311.2,127.348Z" transform="translate(-6.591 -10.876)" style="fill:#b0bc22"/><path d="M311.2,127.348c0,.027-.015.053-.021.08l.006.009c.007-.031.017-.062.024-.093Z" transform="translate(-6.591 -10.876)" style="fill:#b0bc22"/><path d="M130.216,119.55a14.709,14.709,0,0,0-.677,3.3,14.769,14.769,0,0,1,.684-3.294Z" transform="translate(-6.591 -10.876)" style="fill:none"/><path d="M127.333,123.592c.04-.016.075-.039.116-.054C127.408,123.553,127.373,123.576,127.333,123.592Z" transform="translate(-6.591 -10.876)" style="fill:none"/><path d="M129.5,123.138c-.186.006-.363.039-.544.06.181-.021.358-.054.544-.06Z" transform="translate(-6.591 -10.876)" style="fill:none"/><polygon points="122.933 112.259 122.932 112.259 122.933 112.259 122.933 112.259" style="fill:none"/><path d="M132.632,133.546l.02-.006h0Z" transform="translate(-6.591 -10.876)" style="fill:none"/><path d="M128.152,123.34c.1-.026.2-.064.3-.085C128.348,123.276,128.254,123.314,128.152,123.34Z" transform="translate(-6.591 -10.876)" style="fill:none"/><path d="M123.969,127.9a4.818,4.818,0,0,1,.184-.978A4.818,4.818,0,0,0,123.969,127.9Z" transform="translate(-6.591 -10.876)"/><path d="M129.528,123.135h0Z" transform="translate(-6.591 -10.876)"/><path d="M132.652,133.54a.07.07,0,0,1,.027-.008l-.027.008Z" transform="translate(-6.591 -10.876)"/><path d="M130.216,119.55l.007.007a14.769,14.769,0,0,0-.684,3.294c-.009.1,0,.2-.009.284h0a7.466,7.466,0,0,1,1.122.051c3.438.453,6.023,3.135,5.783,6a5.249,5.249,0,0,1-3.762,4.332l.006.009a19.548,19.548,0,0,0,10.658,6.995c.072.017.143.034.218.055.271.069.549.135.829.195.114.028.233.049.352.074.241.047.487.092.727.137.136.017.27.043.4.064.248.032.5.064.752.092.122.015.244.032.37.042.376.037.753.067,1.134.088.521.032,1.037.043,1.551.043.155,0,.307-.007.462-.011.363-.006.72-.011,1.072-.034.175-.011.348-.022.52-.036.346-.028.686-.06,1.022-.1.164-.022.329-.037.487-.058.39-.049.769-.113,1.146-.182.1-.019.207-.034.307-.047.477-.1.943-.2,1.4-.317.122-.028.236-.064.356-.1.337-.089.674-.188,1.008-.29.161-.051.319-.107.481-.162.283-.1.562-.2.841-.3.162-.064.326-.128.486-.2.277-.115.545-.228.818-.352.145-.066.288-.13.428-.2.381-.182.749-.376,1.108-.574.093-.052.186-.107.274-.165.3-.164.588-.343.872-.522.143-.1.278-.2.419-.291.213-.145.42-.292.62-.444.147-.106.288-.218.429-.328.19-.152.371-.308.553-.461.135-.12.267-.231.394-.35q.287-.27.551-.542c.106-.107.213-.2.313-.309a.046.046,0,0,1,.011-.016c3.848,1.656,7.438,3.2,10.668,4.586,9.822,4.223,16.281,7,16.281,7l6.162.209S90.129,76.155,76.96,68.854L57.567,114.431s10.606-10.8,13.343-13.1c3.867-3.25,7.627-3.8,13.306-1.417,6.89,2.9,21.889,9.308,38.609,16.469,1.451.583,3.72,1.578,5.363,2.3C128.867,118.973,129.533,119.259,130.216,119.55Z" transform="translate(-6.591 -10.876)" style="fill:#424343"/><path d="M165.73,135.265q-.264.272-.551.542c-.127.119-.259.23-.394.35-.182.153-.363.309-.553.461-.141.11-.282.222-.429.328-.2.152-.407.3-.62.444-.141.094-.276.194-.419.291-.284.179-.572.358-.872.522-.088.058-.181.113-.274.165-.359.2-.727.392-1.108.574-.14.066-.283.13-.428.2-.273.124-.541.237-.818.352-.16.068-.324.132-.486.2-.279.1-.558.2-.841.3-.162.055-.32.111-.481.162-.334.1-.671.2-1.008.29-.12.033-.234.069-.356.1-.46.117-.926.221-1.4.317-.1.013-.2.028-.307.047-.377.069-.756.133-1.146.182-.158.021-.323.036-.487.058-.336.038-.676.07-1.022.1-.172.014-.345.025-.52.036-.352.023-.709.028-1.072.034-.155,0-.307.011-.462.011-.514,0-1.03-.011-1.551-.043-.381-.021-.758-.051-1.134-.088-.126-.01-.248-.027-.37-.042-.251-.028-.5-.06-.752-.092-.133-.021-.267-.047-.4-.064-.24-.045-.486-.09-.727-.137-.119-.025-.238-.046-.352-.074-.28-.06-.558-.126-.829-.195-.075-.021-.146-.038-.218-.055a19.588,19.588,0,0,1-10.685-6.987l-.02.006a7.167,7.167,0,0,1-2.876.374,6.849,6.849,0,0,1-3.077-.992c-.11.249-.221.5-.33.762l-1,2.763c5.424,5.748,14.254,9.521,24.523,9.832,10.786.465,20.58-2.228,26.846-6.759-.143.036-10.679-4.57-10.679-4.57C165.943,135.06,165.836,135.158,165.73,135.265Z" transform="translate(-6.591 -10.876)" style="fill:#b0bc22"/><path d="M127.333,123.592c.04-.016.075-.039.116-.054a6.117,6.117,0,0,1,.7-.2c.1-.026.2-.064.3-.085.165-.031.339-.037.508-.057s.358-.054.544-.06v0h.019c.007-.1.01-.187.016-.284a14.709,14.709,0,0,1,.677-3.3c0,.022-.853-.354-2.028-.868-1.8-.77-3.6-1.543-5.363-2.3-.579-.23-1.144-.49-1.723-.727a17.794,17.794,0,0,0-1.4,5.465,19.075,19.075,0,0,0-.057,2.092l5.266,2.216A5.517,5.517,0,0,1,127.333,123.592Z" transform="translate(-6.591 -10.876)" style="fill:#b0bc22"/><path d="M126.349,133.69c.109-.259.22-.513.33-.762a5.417,5.417,0,0,1-2.71-5.032,4.666,4.666,0,0,1,.946-2.467l-5.266-2.216a19.848,19.848,0,0,0,5.7,13.24Z" transform="translate(-6.591 -10.876)" style="fill:#b0bc22"/><path d="M130.216,119.55c-.683-.291-1.349-.577-2.028-.868C129.363,119.2,130.219,119.572,130.216,119.55Z" transform="translate(-6.591 -10.876)" style="fill:#b0bc22"/><path d="M166.043,134.956s10.536,4.606,10.679,4.57c-3.23-1.387-6.82-2.93-10.668-4.586A.046.046,0,0,0,166.043,134.956Z" transform="translate(-6.591 -10.876)" style="fill:#b0bc22"/><path d="M143.337,140.527a19.548,19.548,0,0,1-10.658-6.995.07.07,0,0,0-.027.008A19.588,19.588,0,0,0,143.337,140.527Z" transform="translate(-6.591 -10.876)" style="fill:#b7d433"/><path d="M129.539,122.851c-.006.1-.009.186-.016.284h.007C129.537,123.046,129.53,122.948,129.539,122.851Z" transform="translate(-6.591 -10.876)" style="fill:#b7d433"/><path d="M132.632,133.546l.02-.006c-.323-.431-.616-.879-.893-1.335a15.259,15.259,0,0,1-2.255-9.067c-.186.006-.363.039-.544.06s-.343.026-.508.057c-.1.021-.2.059-.3.085a6.117,6.117,0,0,0-.7.2c-.041.015-.076.038-.116.054a5.51,5.51,0,0,0-2.417,1.837l4.614,1.942a52.874,52.874,0,0,0-2.851,5.557,6.849,6.849,0,0,0,3.077.992A7.223,7.223,0,0,0,132.632,133.546Z" transform="translate(-6.591 -10.876)" style="fill:#ffef00"/><path d="M124.916,125.429a4.658,4.658,0,0,0-.947,2.467,5.417,5.417,0,0,0,2.71,5.032,52.874,52.874,0,0,1,2.851-5.557Z" transform="translate(-6.591 -10.876)" style="fill:#ffef00"/><path d="M131.759,132.205c.277.456.57.9.893,1.335l.027-.008-.006-.009-.021.009C132.329,133.1,132.036,132.658,131.759,132.205Z" transform="translate(-6.591 -10.876)" style="fill:#ffef00"/><polygon points="122.939 112.259 122.939 112.259 122.937 112.259 122.939 112.259" style="fill:#ffef00"/><path d="M128.452,123.255c.165-.031.339-.037.508-.057C128.791,123.218,128.617,123.224,128.452,123.255Z" transform="translate(-6.591 -10.876)" style="fill:#ffef00"/><path d="M127.449,123.538a6.117,6.117,0,0,1,.7-.2A6.117,6.117,0,0,0,127.449,123.538Z" transform="translate(-6.591 -10.876)" style="fill:#ffef00"/><path d="M129.756,133.92a7.167,7.167,0,0,0,2.876-.374A7.223,7.223,0,0,1,129.756,133.92Z" transform="translate(-6.591 -10.876)" style="fill:#ffef00"/><path d="M127.333,123.592a5.517,5.517,0,0,0-2.418,1.837h0A5.51,5.51,0,0,1,127.333,123.592Z" transform="translate(-6.591 -10.876)" style="fill:#ffef00"/><path d="M124.915,125.429a4.839,4.839,0,0,0-.762,1.489,4.82,4.82,0,0,1,.763-1.489Z" transform="translate(-6.591 -10.876)" style="fill:#ffef00"/><path d="M129.523,123.136h0l-.019,0h0Z" transform="translate(-6.591 -10.876)" style="fill:#b0bc22"/><path d="M132.673,133.523a5.249,5.249,0,0,0,3.762-4.332c.24-2.87-2.345-5.552-5.783-6a7.466,7.466,0,0,0-1.122-.051A15.392,15.392,0,0,0,132.673,133.523Z" transform="translate(-6.591 -10.876)" style="fill:#b0bc22"/><polygon points="122.933 112.259 122.933 112.26 122.937 112.259 122.933 112.259" style="fill:#b0bc22"/><path d="M129.5,123.135v0l.018,0Z" transform="translate(-6.591 -10.876)" style="fill:#b0bc22"/><path d="M129.523,123.136l-.019,0a15.259,15.259,0,0,0,2.255,9.067A15.319,15.319,0,0,1,129.523,123.136Z" transform="translate(-6.591 -10.876)" style="fill:#b0bc22"/><path d="M129.523,123.136a15.319,15.319,0,0,0,2.236,9.069c.277.453.57.9.893,1.327l.021-.009a15.392,15.392,0,0,1-3.143-10.388h-.007Z" transform="translate(-6.591 -10.876)" style="fill:#b0bc22"/><path d="M395.206,183.026l-23.513-70.791c2.392,2.377,28.371,24.673,28.371,24.673L367.271,59.026s-19.91,11.9-34.781,21.345L293.131,36.988H147.541L108.183,80.371C93.313,70.922,73.4,59.026,73.4,59.026L40.609,136.908s25.977-22.3,28.376-24.673L39.606,200.663c-2.431,6.377-.061,13.542,5.344,16.807L13.091,220.6l-6.5,68.4L428.21,247.546l5.869-68.343ZM47.681,215.079c-4.739-2.1-6.91-8.036-4.877-13.269l30.018-90.356a2.087,2.087,0,0,1,.1-.248,10.413,10.413,0,0,1,9.5-6.544,10.046,10.046,0,0,1,3.793.575,41.582,41.582,0,0,0-3.667-2.195c-4.361-1.818-6.672-1.743-9.8.887-2.147,1.8-23.665,21.436-23.665,21.436l25.908-61.4s52.817,31.844,52.92,31.913L110.773,82.139,149.054,40.4H291.617L329.9,82.139,312.761,95.875c.106-.069,52.924-31.913,52.924-31.913l25.908,61.4s-21.521-19.631-23.668-21.436c-3.123-2.63-5.437-2.7-9.8-.887a41.124,41.124,0,0,0-3.664,2.195,10.035,10.035,0,0,1,3.789-.575,10.427,10.427,0,0,1,9.51,6.544c.035.082.059.163.092.248l23.887,71.913-3.461.34-23.649-71.18c-1.517-3.6-5.406-5.385-8.691-4l-34.561,14.543a19.907,19.907,0,0,1-5.961,13.662l18.858,52.291-3.491.343-16.9-46.864a39.441,39.441,0,0,1-18,6.786h4.717a3.4,3.4,0,0,1,2.371,5.832l-33.188,32.411a3.386,3.386,0,0,1-2.371.96H173.26a3.4,3.4,0,0,1-2.375-.96L137.7,155.115a3.4,3.4,0,0,1,2.371-5.832h4.718a39.462,39.462,0,0,1-18-6.786l-25.018,69.385L51.6,216.815Zm87.649-57.54,33.181,32.415a6.8,6.8,0,0,0,4.749,1.929h94.157a6.782,6.782,0,0,0,4.741-1.929l33.191-32.415a6.777,6.777,0,0,0,1.538-7.417c0-.028,3.572-1.58,5.243-2.5L327.3,189.7,105.509,211.515l23.039-63.893c1.668.92,5.244,2.472,5.23,2.5A6.779,6.779,0,0,0,135.33,157.539Zm289.6,86.767L10.532,285.048l5.818-61.2,413.827-40.695Z" transform="translate(-6.591 -10.876)" style="fill:#424343"/><polygon points="415.707 230.832 7.094 271.014 12.364 215.568 420.467 175.433 415.707 230.832" style="fill:#424343"/><path d="M64.936,232.425l-.9,10.734-5.137.5.38-3.81-3.07.306-.665,6.748,4.3-.426-.593,6.581-4.211.406L54.272,261l1.844-.184-.26,1.873-.6,2.9-1.105,1.836-1.668.734-6.4.635,2.726-7.444,2.1-22.334-2.8-4.98,16.816-1.617M36.075,242.27l-3.069.291-1.963,20.581,3.061-.3Zm5.659-2.377-2.1,23.2-.248,1.574-.381,1.5-.565,1.387-.736,1.173-.8.76-.868.3-8.125.793-2.626-5.133L27.628,241.1l.265-1.451.491-1.287.731-1.17.851-.8.836-.521.86-.217,7.415-.726ZM414.48,198.017l-.783,7.429-1.141.1L410.615,226l-.3,2.33-.3,1.758-.42,1.195-.6,1.043-.869.656-1.116.325-2.418.244-3.648-17.239-1.713,17.758-7.322.731,2.769-7.457,2.1-22.325-2.8-4.99,8.426-.828,3.789,16.82,1.527-17.336Zm-32.764,10.255-3.023.307-1.967,20.627,3.033-.3Zm5.66-2.369-2.1,23.256-.248,1.58-.391,1.451-.576,1.383-.723,1.178-.769.746-.809.295-8.156.81-2.592-5.156,2.256-24.322.254-1.455.541-1.289.728-1.182.805-.791.873-.519.869-.219,7.465-.729Zm-21.7-3.082-.717,6.705-1.054.1-1.955,21.121,1.841-.191-.252,1.876-.6,2.9-1.148,1.84-1.62.738-6.353.627,2.8-7.447,2.019-22.317-2.709-5.006Zm-17.424,1.746L347.3,215.25l-4.56.448.468-3.76-1.888.184-1.895,20.836,1.846-.184-.264,1.873-.224,1.772-.3,1.267-.457.883-.8.834-1.178.559-1.574.281-5.664.568,2.816-7.464,2.265-20.7-1.759.175-.42,3.765-4.488.435,1.3-10.764Zm-26.316,7.772-.476,5.5-5.616.555.307-3.663-2.989.282-1.964,20.59,3.031-.309.465-4.693,5.578-.543-.568,5.552-.243,1.567-.35,1.459-.57,1.383-.718,1.177-.763.739-.86.308-8.125.8-2.639-5.149,2.273-24.326.286-1.465.5-1.275.769-1.187.8-.79.842-.516.861-.222,7.589-.747Zm-22.012-3.06-.717,6.71-1.06.106-1.948,21.119,1.843-.18-.26,1.873-.6,2.906-1.1,1.827-1.645.752L288.1,245l2.816-7.443,2.067-22.323-2.8-5.01ZM277.69,218.46l-3.065.31-2.071,20.407,3.153-.309Zm5.713-2.236-2.171,23.382-.211,1.526-.342,1.4-.451,1.3-.643,1.117-.681.735-.764.3-13.965,1.362,2.813-7.444,2.111-22.324-2.8-4.994,14.26-1.408Zm-28.927,4.523-3.078.3-2.022,20.406,3.114-.295Zm5.762-2.254-2.19,23.4-.249,1.528-.341,1.412-.451,1.277-.642,1.117-.682.743-.77.283-13.957,1.383,2.821-7.453,2.1-22.321-2.8-5,14.259-1.4Zm-33.145,4.541-2.114,12.356L227,235.2Zm7.6-7.344-.557,6.965-1.669.166.393,20.623,1.754-.179-.222,1.878-.222,1.754-.313,1.268-.447.887-.8.828-1.235.572-1.57.281-2.937.287.085-9.041-3.209.313-1.579,9.189-8.026.786,2.953-6.04,5.033-24.029-2.445-5.031Zm-42.225,11.161-3.159.3-2.023,20.41,3.206-.312Zm5.673-2.246-2.174,23.388-.2,1.52-.342,1.422-.468,1.275-.634,1.127-.676.73-.775.295-13.91,1.377,2.73-7.447,2.1-22.329L181,220.977l14.3-1.4ZM164.3,229.21l-2.147,12.365,2.021-.2Zm7.52-7.332-.548,6.957-1.675.166.438,20.619,1.709-.176-.165,1.869-.226,1.756-.329,1.276-.438.882-.808.838-1.222.563-1.53.277-2.973.3.027-9.045-3.2.321-1.572,9.185-7.992.8,3-6.055L159.3,228.37l-2.447-5.027Zm-29.725,9.961-3.073.295-1.963,20.58,3.069-.289Zm5.71-2.377-2.147,23.248-.248,1.584-.392,1.455-.535,1.383-.713,1.17-.771.75-.858.3-8.127.8-2.624-5.138,2.3-24.336.22-1.448.537-1.279.765-1.2.8-.786.844-.525.915-.222,7.41-.73Zm-29.62,5.217-3.084.3-.435,5.893,2.978-.289Zm5.854-3.061-.13,1.83-.145,2.153-.211,2.367-.172,2.672-.162.679-.159.725-.231.773-.324.739-.363.763-.552.653-.369.4-.656.455-.884.492,1.347,1.5.907,1.61.377,1.595.012.577-.11,1.113-.188,1.66,1.8-.174-.315,2.338-.308,1.754-.369,1.191-.646,1.041-.819.645-1.134.338-4.608.455,1.324-11.822-3.171-2.44-.665,7.559,1.751-.18-.3,2.334-.324,1.758-.414,1.187-.6,1.041-.862.67-1.132.321-6.405.636,2.807-7.461,2.12-22.316-2.808-4.99L121,226.911Zm-34.7-1.584L88.4,240.755l-5.089.5.284-3.8-3.026.291-.622,6.748,4.255-.4-.582,6.564-4.262.424L78.68,258.6l1.749-.168-.162,1.865-.607,2.894-1.151,1.844-1.616.734-6.4.623,2.721-7.435,2.1-22.33-2.79-4.985Zm260.705-27.1-1.187,13.62-6.318.632-1.309,14.135,1.879-.18-.44,3.616-.294,1.984-.381,1.5-.561,1.08-1.127,1.166-1.6.781-2.1.422-8.151.8,3.55-9.428,1.625-15-6.273.623L329,204.905Zm.9-.843L349.628,217.2l-6.33.619-1.191,12.658,1.931-.195-.572,4.537-.287,2.065-.463,1.6-.592,1.211-1.291,1.319-1.8.931-2.35.5-9.44.928,3.95-10.449,1.534-14.059-6.317.628,1.87-15.223ZM285.11,215.916l-2.23,23.79-.244,1.588-.339,1.527-.516,1.481,0,.043-.04.039-.948,1.6-1.194,1-1.325.436-16.459,1.625,3.556-9.385L267.4,217.88l-3.666-6.557,17.816-1.754Zm.821-.162-2.2,24.014-.24,1.61-.418,1.592-.518,1.558.01.043-.043.051-1.153,1.83-1.388,1.205-1.624.512-17.732,1.758,3.936-10.414,2.006-21.471-4.078-7.3,19.521-1.92Zm-112.325,4.434-.785,10.012-1.539.141.357,17.652,1.893-.195-.353,3.631-.253,1.968-.424,1.51-.519,1.072-1.125,1.174-1.611.776-2.12.435-4.744.467.045-9.057-.085.02-1.633,9.189-12.067,1.188,4.073-8.149,4.873-23.431-3.117-6.521Zm.9-.79-.912,11.421-1.451.145.3,16.193,2.023-.205-.441,4.524-.294,2.07-.45,1.6-.595,1.2-1.289,1.332-1.814.918-2.34.511-5.666.545-.026-.7-.1.709-14.134,1.4,4.632-9.279,4.772-23.111-3.454-7.188ZM389.075,205.6l-2.146,23.663-.281,1.8-.444,1.588-.623,1.477-1.033,1.66-1.224,1.016-1.42.443-9.305.908-3.293-6.41,2.312-24.736.366-1.716.6-1.562.936-1.332,1.076-1.127,1.268-.738,1.336-.363,8.6-.849Zm.834-.166-2.183,23.836-.307,1.887-.453,1.729-.639,1.527-1.207,1.84-1.418,1.207-1.736.525-9.912.969-3.57-7.076,2.336-24.924.343-1.849.688-1.669.961-1.5L374.1,200.7l1.424-.849,1.6-.379,9.176-.9Zm-66.279,6.6-.666,7.115-8.65.854-.865,9.205,8.646-.844-.746,7.336-.263,1.8-.469,1.605-.6,1.471-1.028,1.662-1.245,1.006-1.4.449-9.32.916-3.247-6.418,2.308-24.736.321-1.717.6-1.561.935-1.336,1.135-1.127,1.216-.747,1.336-.346,8.729-.857Zm.832-.166-.732,7.964-8.641.849-.744,7.734,8.641-.85-.836,8.2-.262,1.831-.494,1.734-.647,1.535-1.189,1.832-1.438,1.211-1.709.518-9.877.976-3.625-7.08,2.331-24.916.349-1.852.682-1.666,1.015-1.509,1.287-1.242L310,206.3l1.548-.38,9.318-.917Zm-87.976,2.139-.784,10.008-1.547.154.37,17.642,1.883-.191-.356,3.623-.26,1.883-.41,1.549-.521,1.117h-.047l-1.169,1.183-1.609.786-2.086.414-4.779.478.13-9.056-.126.011-1.584,9.2L211.481,254l4.118-8.16,4.819-23.427-3.157-6.513Zm.891-.8-.909,11.437-1.5.151.356,16.183,2.021-.205-.455,4.524-.277,2.015-.465,1.6-.589,1.213v.043h-.036l-1.336,1.332-1.808.93-2.356.5-5.662.548-.022-.216-.014.226-14.132,1.383,4.579-9.258,4.814-23.123-3.535-7.187ZM66.729,230.79l-1.184,13.687-3.861.368L60.8,254.37l-4.258.418-.445,4.566,1.893-.191L57.5,262.8l-.384,2.343-.706,1.834-.978,1.332-1.244.889-1.554.408-8.909.875,3.465-9.363,2.065-21.8L45.6,232.774Zm.889-.832-1.306,15.18-3.9.384L61.57,255l-4.258.424L57,258.505l1.928-.188-.615,4.537-.253,1.883-.511,1.6-.617,1.349-1.159,1.358-1.372.891-1.691.427-10.139.99,3.819-10.38,2-21.467L44.35,232.19Zm47.522,20.75.086.029-.336,2.869Zm10.542-19.025-.17,2.414-.168,2.318-.18,2.189-.19,2.1.007.043-.026.223-.173.9-.2.738-.2.639-.36.871-.483.9-.579.81-.248.244-.281.242-.319.295.919,1.379.627,1.4.324,1.472-.009.358-.029.619-.091.9,1.759-.171-.14,1.742-.27,2.287-.335,1.853-.444,1.463-.041.047-.035.094-.958,1.512-1.316.964-1.689.436-6.593.644.081-.675-.707.435-.825.295-.95.188-8.912.871,3.553-9.385,2.066-21.779-3.66-6.565,17.472-1.627,3.768,5.869Zm.8,0-.156,2.46-.176,2.319-.181,2.2-.142,2.1,0,.094-.071.218-.172.909-.19.781-.191.679-.4.963-.524.944-.673.9-.158.15-.115.145-.164.145.8,1.341.528,1.366.263,1.39.038.262v.357l-.048.5,1.759-.175-.243,2.6-.248,2.377-.389,1.942-.433,1.494-.027.1-.04.051-1.16,1.742-1.568,1.135-1.946.547-7.592.746.027-.174-.425.123-.477.09-.535.1-10.125.988,3.889-10.4,2.013-21.459-4.088-7.362,19.23-1.793,4.183,6.5ZM416.3,196.326,415.245,206.8l-1.183.107-1.8,19.188-.32,2.519-.4,1.859-.392,1.321-.961,1.517-1.328,1-1.725.448-3.861.363-1.725-8.016-.779,8.264-11.19,1.105,3.463-9.377,2.033-21.787-3.668-6.543,12.34-1.22,1.735,7.767.672-8.007Zm.893-.794-1.215,11.908-1.141.1-1.711,18.608h-.049l-.322,2.562-.377,1.949-.453,1.367-.488.887-.547.773-.686.645-.919.576-.989.361-1.088.245-4.6.447-.735-3.432-.31,3.535-13.182,1.293,3.865-10.4,2-21.473-4.084-7.3,14.215-1.408L405.1,200l.293-3.308Zm-49.744,5.6-.993,9.705-1.052.107L363.736,229.1l1.931-.194-.488,3.637-.43,2.348-.666,1.851-.974,1.328-1.285.879-1.524.414-8.863.865L355,230.845l1.981-21.77-3.574-6.56Zm.947-.811-1.211,11.2-1,.1-1.566,16.633,1.98-.192-.617,4.536-.291,1.9-.469,1.592-.621,1.351L363.45,238.8l-1.423.9-1.645.418-10.137,1,3.95-10.406,1.955-21.467-3.992-7.32Zm-66.639,7.26-1.049,9.723-1.011.106-1.666,18.147,1.886-.187-.474,3.648-.4,2.34-.705,1.844-.978,1.326-1.237.879-1.556.418-8.865.863,3.595-9.381,2.028-21.783-3.67-6.556Zm.894-.794-1.163,11.194-1,.09-1.565,16.641,1.931-.184-.611,4.529-.259,1.891-.461,1.6-.667,1.345-1.113,1.352-1.416.892-1.684.428-10.1.994,3.9-10.392,2.013-21.477-4.046-7.31ZM261.89,218.2l-2.221,23.785-.246,1.588-.344,1.535-.52,1.461.007.047-.045.043-.944,1.607-1.184,1.008-1.336.436-16.45,1.613,3.552-9.381,2.012-21.779-3.654-6.561,17.818-1.757Zm.832-.172-2.215,24.016-.248,1.619-.411,1.586-.519,1.551.015.054-.049.047-1.141,1.84-1.381,1.2-1.635.512-17.735,1.75,3.941-10.4,2.009-21.481-4.083-7.307,19.53-1.916ZM199.851,224.3l-2.235,23.781-.246,1.592-.334,1.527-.518,1.477.006.052-.042.038-.946,1.609-1.187,1-1.341.443-16.41,1.614,3.469-9.385,2.071-21.785-3.665-6.551,17.783-1.75Zm.82-.17-2.252,24.023-.239,1.614-.376,1.591-.507,1.555-.043.051,0,.043-1.154,1.834-1.382,1.209-1.636.508-17.64,1.736,3.8-10.383,2.015-21.469-4.045-7.314,19.536-1.921Zm-51.22,5.049-2.144,23.648-.24,1.66-.463,1.643-.6,1.523,0,.047-1.039,1.594-1.229,1.066-1.468.448-9.3.906-3.242-6.4,2.307-24.7.283-1.711.6-1.515.969-1.43,1.137-1.139,1.2-.721,1.347-.372,8.608-.836Zm.858-.184-2.161,23.832-.274,1.754-.448,1.732-.638,1.618h-.043v.047l-1.19,1.839-1.476,1.213-1.723.53-9.874.964-3.584-7.086,2.3-24.869.305-1.808.675-1.7,1.048-1.571,1.3-1.23,1.413-.849,1.561-.372,9.219-.9Zm-59.181-.6-1.192,13.677L86,242.446l-.879,9.533-4.273.411-.382,4.566,1.8-.18-.355,3.633-.44,2.34-.658,1.844-.977,1.322-1.287.887-1.556.424-8.866.861L71.6,258.72l2.027-21.776-3.665-6.56Zm.893-.834-1.3,15.185-3.949.389-.885,9.484-4.263.422-.27,3.078,1.8-.183-.44,4.527-.3,1.887-.466,1.6-.623,1.344-1.149,1.348-1.42.892-1.683.432-10.146,1,3.86-10.383L72.8,237.1l-4.091-7.3Zm289.7-19.282-3.023.307-1.967,20.627,3.033-.3Zm-33.469-3.7L347.3,215.25l-4.56.448.468-3.76-1.888.184-1.895,20.836,1.846-.184-.264,1.873-.224,1.772-.3,1.267-.457.883-.8.834-1.178.559-1.574.281-5.664.568,2.816-7.464,2.265-20.7-1.759.175-.42,3.765-4.488.435,1.3-10.764ZM283.4,216.224l-2.171,23.382-.211,1.526-.342,1.4-.451,1.3-.643,1.117-.681.735-.764.3-13.965,1.362,2.813-7.444,2.111-22.324-2.8-4.994,14.26-1.408Zm-28.927,4.523-3.078.3-2.022,20.406,3.114-.295ZM36.075,242.27l-3.069.291-1.963,20.581,3.061-.3Zm82.106-7.591-3.084.3-.435,5.893,2.978-.289Zm53.635-12.8-.548,6.957-1.675.166.438,20.619,1.709-.176-.165,1.869-.226,1.756-.329,1.276-.438.882-.808.838-1.222.563-1.53.277-2.973.3.027-9.045-3.2.321-1.572,9.185-7.992.8,3-6.055L159.3,228.37l-2.447-5.027Zm-29.725,9.961-3.073.295-1.963,20.58,3.069-.289ZM387.376,205.9l-2.1,23.256-.248,1.58-.391,1.451-.576,1.383-.723,1.178-.769.746-.809.295-8.156.81-2.592-5.156,2.256-24.322.254-1.455.541-1.289.728-1.182.805-.791.873-.519.869-.219,7.465-.729Zm-65.445,6.436-.476,5.5-5.616.555.307-3.663-2.989.282-1.964,20.59,3.031-.309.465-4.693,5.578-.543-.568,5.552-.243,1.567-.35,1.459-.57,1.383-.718,1.177-.763.739-.86.308-8.125.8-2.639-5.149,2.273-24.326.286-1.465.5-1.275.769-1.187.8-.79.842-.516.861-.222,7.589-.747ZM234.7,215.69l-.557,6.965-1.669.166.393,20.623,1.754-.179-.222,1.878-.222,1.754-.313,1.268-.447.887-.8.828-1.235.572-1.57.281-2.937.287.085-9.041-3.209.313-1.579,9.189-8.026.786,2.953-6.04,5.033-24.029-2.445-5.031Zm-42.225,11.161-3.159.3-2.023,20.41,3.206-.312ZM64.936,232.425l-.9,10.734-5.137.5.38-3.81-3.07.306-.665,6.748,4.3-.426-.593,6.581-4.211.406L54.272,261l1.844-.184-.26,1.873-.6,2.9-1.105,1.836-1.668.734-6.4.635,2.726-7.444,2.1-22.334-2.8-4.98Zm59.1-.807-.13,1.83-.145,2.153-.211,2.367-.172,2.672-.162.679-.159.725-.231.773-.324.739-.363.763-.552.653-.369.4-.656.455-.884.492,1.347,1.5.907,1.61.377,1.595.012.577-.11,1.113-.188,1.66,1.8-.174-.315,2.338-.308,1.754-.369,1.191-.646,1.041-.819.645-1.134.338-4.608.455,1.324-11.822-3.171-2.44-.665,7.559,1.751-.18-.3,2.334-.324,1.758-.414,1.187-.6,1.041-.862.67-1.132.321-6.405.636,2.807-7.461,2.12-22.316-2.808-4.99L121,226.911Zm290.445-33.6-.783,7.429-1.141.1L410.615,226l-.3,2.33-.3,1.758-.42,1.195-.6,1.043-.869.656-1.116.325-2.418.244-3.648-17.239-1.713,17.758-7.322.731,2.769-7.457,2.1-22.325-2.8-4.99,8.426-.828,3.789,16.82,1.527-17.336Zm-48.809,4.8-.717,6.705-1.054.1-1.955,21.121,1.841-.191-.252,1.876-.6,2.9-1.148,1.84-1.62.738-6.353.627,2.8-7.447,2.019-22.317-2.709-5.006Zm-65.752,6.458-.717,6.71-1.06.106-1.948,21.119,1.843-.18-.26,1.873-.6,2.906-1.1,1.827-1.645.752L288.1,245l2.816-7.443,2.067-22.323-2.8-5.01ZM277.69,218.46l-3.065.31-2.071,20.407,3.153-.309Zm-17.452.033-2.19,23.4-.249,1.528-.341,1.412-.451,1.277-.642,1.117-.682.743-.77.283-13.957,1.383,2.821-7.453,2.1-22.321-2.8-5,14.259-1.4Zm-33.145,4.541-2.114,12.356L227,235.2Zm-28.948,1.571-2.174,23.388-.2,1.52-.342,1.422-.468,1.275-.634,1.127-.676.73-.775.295-13.91,1.377,2.73-7.447,2.1-22.329L181,220.977l14.3-1.4ZM164.3,229.21l-2.147,12.365,2.021-.2Zm-16.5.252-2.147,23.248-.248,1.584-.392,1.455-.535,1.383-.713,1.17-.771.75-.858.3-8.127.8-2.624-5.138,2.3-24.336.22-1.448.537-1.279.765-1.2.8-.786.844-.525.915-.222,7.41-.73Zm-58.47.572L88.4,240.755l-5.089.5.284-3.8-3.026.291-.622,6.748,4.255-.4-.582,6.564-4.262.424L78.68,258.6l1.749-.168-.162,1.865-.607,2.894-1.151,1.844-1.616.734-6.4.623,2.721-7.435,2.1-22.33-2.79-4.985Zm-47.6,9.859-2.1,23.2-.248,1.574-.381,1.5-.565,1.387-.736,1.173-.8.76-.868.3-8.125.793-2.626-5.133L27.628,241.1l.265-1.451.491-1.287.731-1.17.851-.8.836-.521.86-.217,7.415-.726Zm1.7-.291-2.156,23.551-.273,1.725-.413,1.625-.65,1.566.014.057-.045.029-1.077,1.627L37.6,270.794l-1.422.439-9.314.922-3.226-6.42,2.349-24.689.272-1.717.6-1.557.92-1.425h.05L29,235.212l1.218-.7,1.261-.34,8.589-.856Zm.831-.179-2.188,23.791-.26,1.8-.452,1.671-.632,1.67-.045.043,0,.047-1.276,1.848-1.443,1.156-1.718.533-9.891.979-3.563-7.1,2.375-24.875.318-1.847.622-1.7,1-1.509h.048l-.009-.047,1.343-1.25,1.426-.8,1.477-.367,9.171-.9Zm-2.531.47-2.1,23.2-.248,1.574-.381,1.5-.565,1.387-.736,1.173-.8.76-.868.3-8.125.793-2.626-5.133L27.628,241.1l.265-1.451.491-1.287.731-1.17.851-.8.836-.521.86-.217,7.415-.726ZM414.48,198.017l-.783,7.429-1.141.1L410.615,226l-.3,2.33-.3,1.758-.42,1.195-.6,1.043-.869.656-1.116.325-2.418.244-3.648-17.239-1.713,17.758-7.322.731,2.769-7.457,2.1-22.325-2.8-4.99,8.426-.828,3.789,16.82,1.527-17.336Zm-32.764,10.255-3.023.307-1.967,20.627,3.033-.3Zm5.66-2.369-2.1,23.256-.248,1.58-.391,1.451-.576,1.383-.723,1.178-.769.746-.809.295-8.156.81-2.592-5.156,2.256-24.322.254-1.455.541-1.289.728-1.182.805-.791.873-.519.869-.219,7.465-.729Zm-21.7-3.082-.717,6.705-1.054.1-1.955,21.121,1.841-.191-.252,1.876-.6,2.9-1.148,1.84-1.62.738-6.353.627,2.8-7.447,2.019-22.317-2.709-5.006Zm-17.424,1.746L347.3,215.25l-4.56.448.468-3.76-1.888.184-1.895,20.836,1.846-.184-.264,1.873-.224,1.772-.3,1.267-.457.883-.8.834-1.178.559-1.574.281-5.664.568,2.816-7.464,2.265-20.7-1.759.175-.42,3.765-4.488.435,1.3-10.764Zm-26.316,7.772-.476,5.5-5.616.555.307-3.663-2.989.282-1.964,20.59,3.031-.309.465-4.693,5.578-.543-.568,5.552-.243,1.567-.35,1.459-.57,1.383-.718,1.177-.763.739-.86.308-8.125.8-2.639-5.149,2.273-24.326.286-1.465.5-1.275.769-1.187.8-.79.842-.516.861-.222,7.589-.747Zm-22.012-3.06-.717,6.71-1.06.106-1.948,21.119,1.843-.18-.26,1.873-.6,2.906-1.1,1.827-1.645.752L288.1,245l2.816-7.443,2.067-22.323-2.8-5.01ZM277.69,218.46l-3.065.31-2.071,20.407,3.153-.309Zm5.713-2.236-2.171,23.382-.211,1.526-.342,1.4-.451,1.3-.643,1.117-.681.735-.764.3-13.965,1.362,2.813-7.444,2.111-22.324-2.8-4.994,14.26-1.408Zm-28.927,4.523-3.078.3-2.022,20.406,3.114-.295Zm5.762-2.254-2.19,23.4-.249,1.528-.341,1.412-.451,1.277-.642,1.117-.682.743-.77.283-13.957,1.383,2.821-7.453,2.1-22.321-2.8-5,14.259-1.4Zm-33.145,4.541-2.114,12.356L227,235.2Zm7.6-7.344-.557,6.965-1.669.166.393,20.623,1.754-.179-.222,1.878-.222,1.754-.313,1.268-.447.887-.8.828-1.235.572-1.57.281-2.937.287.085-9.041-3.209.313-1.579,9.189-8.026.786,2.953-6.04,5.033-24.029-2.445-5.031Zm-42.225,11.161-3.159.3-2.023,20.41,3.206-.312Zm5.673-2.246-2.174,23.388-.2,1.52-.342,1.422-.468,1.275-.634,1.127-.676.73-.775.295-13.91,1.377,2.73-7.447,2.1-22.329L181,220.977l14.3-1.4ZM164.3,229.21l-2.147,12.365,2.021-.2Zm7.52-7.332-.548,6.957-1.675.166.438,20.619,1.709-.176-.165,1.869-.226,1.756-.329,1.276-.438.882-.808.838-1.222.563-1.53.277-2.973.3.027-9.045-3.2.321-1.572,9.185-7.992.8,3-6.055L159.3,228.37l-2.447-5.027Zm-29.725,9.961-3.073.295-1.963,20.58,3.069-.289Zm5.71-2.377-2.147,23.248-.248,1.584-.392,1.455-.535,1.383-.713,1.17-.771.75-.858.3-8.127.8-2.624-5.138,2.3-24.336.22-1.448.537-1.279.765-1.2.8-.786.844-.525.915-.222,7.41-.73Zm-29.62,5.217-3.084.3-.435,5.893,2.978-.289Zm5.854-3.061-.13,1.83-.145,2.153-.211,2.367-.172,2.672-.162.679-.159.725-.231.773-.324.739-.363.763-.552.653-.369.4-.656.455-.884.492,1.347,1.5.907,1.61.377,1.595.012.577-.11,1.113-.188,1.66,1.8-.174-.315,2.338-.308,1.754-.369,1.191-.646,1.041-.819.645-1.134.338-4.608.455,1.324-11.822-3.171-2.44-.665,7.559,1.751-.18-.3,2.334-.324,1.758-.414,1.187-.6,1.041-.862.67-1.132.321-6.405.636,2.807-7.461,2.12-22.316-2.808-4.99L121,226.911Zm-34.7-1.584L88.4,240.755l-5.089.5.284-3.8-3.026.291-.622,6.748,4.255-.4-.582,6.564-4.262.424L78.68,258.6l1.749-.168-.162,1.865-.607,2.894-1.151,1.844-1.616.734-6.4.623,2.721-7.435,2.1-22.33-2.79-4.985Zm-24.395,2.391-.9,10.734-5.137.5.38-3.81-3.07.306-.665,6.748,4.3-.426-.593,6.581-4.211.406L54.272,261l1.844-.184-.26,1.873-.6,2.9-1.105,1.836-1.668.734-6.4.635,2.726-7.444,2.1-22.334-2.8-4.98ZM36.075,242.27l-3.069.291-1.963,20.581,3.061-.3Z" transform="translate(-6.591 -10.876)" style="fill:#b0bc22;fill-rule:evenodd"/></svg>